<svg width="221" height="120" viewBox="0 0 221 120" fill="none" xmlns="http://www.w3.org/2000/svg">
<g clip-path="url(#clip0_2670_73329)">
<path d="M220.086 72.686C210.267 69.2009 201.616 61.5592 193.579 51.7248V20.3792C193.579 9.63049 184.891 0.916504 174.174 0.916504H20.319C9.60219 0.916504 0.914062 9.63049 0.914062 20.3792V99.6207C0.914062 110.369 9.60219 119.083 20.319 119.083H174.174C184.891 119.083 193.579 110.369 193.579 99.6207V77.5597L220.086 72.686V72.686Z" fill="white"/>
<path d="M174.174 120H20.3187C9.11533 120 0 110.858 0 99.6208V20.3792C0 9.14246 9.11533 0 20.3187 0H174.174C185.377 0 194.492 9.14246 194.492 20.3792V51.3949C203.26 62.0656 211.736 68.7472 220.392 71.8199C220.783 71.9574 221.032 72.3423 220.998 72.7571C220.966 73.1718 220.66 73.5109 220.251 73.5865L194.49 78.3227V99.6185C194.49 110.855 185.375 119.998 174.171 119.998L174.174 120ZM20.3187 1.83308C10.1228 1.83308 1.82764 10.1529 1.82764 20.3792V99.6208C1.82764 109.847 10.1228 118.167 20.3187 118.167H174.174C184.37 118.167 192.665 109.847 192.665 99.6208V77.5597C192.665 77.1175 192.98 76.7371 193.414 76.6592L216.81 72.3561C208.798 68.7632 200.937 62.1733 192.873 52.3045C192.738 52.1395 192.665 51.9356 192.665 51.7225V20.3792C192.665 10.1529 184.37 1.83308 174.174 1.83308H20.3187Z" fill="#DBDBDD"/>
<path d="M13.735 91.8484C13.6231 91.8484 13.5089 91.8278 13.3992 91.7843C12.9309 91.5987 12.7001 91.0671 12.8852 90.5951C13.0474 90.1849 16.9243 80.449 24.3422 71.6594C28.7308 66.458 33.4461 62.6979 38.3578 60.4799C44.5513 57.6822 51.0508 57.3431 57.676 59.4763C84.7135 68.1811 102.337 68.9281 117.999 47.9829C123.962 40.009 129.169 35.7861 134.386 34.6931C139.058 33.7147 142.969 35.4286 146.75 37.0853C148.318 37.7727 149.94 38.483 151.562 38.9642C158.315 40.9714 174.727 43.8218 181.29 26.9965C181.473 26.5245 182.005 26.2931 182.474 26.4764C182.944 26.662 183.175 27.1936 182.992 27.6633C180.107 35.062 175.102 39.7203 168.118 41.5122C161.385 43.2375 154.529 41.7573 151.043 40.7217C149.311 40.2061 147.639 39.4729 146.019 38.7648C138.72 35.5661 131.828 32.5461 119.461 49.0828C111.708 59.4511 103.262 65.003 92.8762 66.5566C83.6924 67.9314 72.9984 66.3343 57.1162 61.2223C45.874 57.602 35.3263 61.5019 25.7654 72.8119C18.5303 81.3701 14.6237 91.1725 14.5849 91.2687C14.4432 91.6285 14.0983 91.8484 13.735 91.8484Z" fill="#1B369A"/>
<path d="M132.59 41.5809C135.653 41.5809 138.135 39.0911 138.135 36.0198C138.135 32.9485 135.653 30.4587 132.59 30.4587C129.528 30.4587 127.046 32.9485 127.046 36.0198C127.046 39.0911 129.528 41.5809 132.59 41.5809Z" fill="#F9623B"/>
<path d="M71.9499 71.121C75.0121 71.121 77.4944 68.6312 77.4944 65.5599C77.4944 62.4886 75.0121 59.9988 71.9499 59.9988C68.8877 59.9988 66.4053 62.4886 66.4053 65.5599C66.4053 68.6312 68.8877 71.121 71.9499 71.121Z" fill="#FFB701"/>
<path d="M14.7741 98.5782C17.8363 98.5782 20.3187 96.0885 20.3187 93.0172C20.3187 89.9458 17.8363 87.4561 14.7741 87.4561C11.7119 87.4561 9.22949 89.9458 9.22949 93.0172C9.22949 96.0885 11.7119 98.5782 14.7741 98.5782Z" fill="#1B369A"/>
<path d="M180.411 30.8072C183.473 30.8072 185.955 28.3175 185.955 25.2462C185.955 22.1748 183.473 19.6851 180.411 19.6851C177.349 19.6851 174.866 22.1748 174.866 25.2462C174.866 28.3175 177.349 30.8072 180.411 30.8072Z" fill="#1B369A"/>
<path d="M48.7334 103.791H14.4264C12.896 103.791 11.6553 105.035 11.6553 106.57V106.573C11.6553 108.108 12.896 109.352 14.4264 109.352H48.7334C50.2639 109.352 51.5046 108.108 51.5046 106.573V106.57C51.5046 105.035 50.2639 103.791 48.7334 103.791Z" fill="#DBDBDD"/>
<path d="M110.327 103.791H76.0202C74.4897 103.791 73.249 105.035 73.249 106.57V106.573C73.249 108.108 74.4897 109.352 76.0202 109.352H110.327C111.858 109.352 113.098 108.108 113.098 106.573V106.57C113.098 105.035 111.858 103.791 110.327 103.791Z" fill="#CAE2F5"/>
<path d="M171.921 103.791H137.614C136.083 103.791 134.843 105.035 134.843 106.57V106.573C134.843 108.108 136.083 109.352 137.614 109.352H171.921C173.451 109.352 174.692 108.108 174.692 106.573V106.57C174.692 105.035 173.451 103.791 171.921 103.791Z" fill="#DBDBDD"/>
<path d="M68.4407 14.0369H37.5148C36.2947 14.0369 35.3057 15.0289 35.3057 16.2526C35.3057 17.4763 36.2947 18.4683 37.5148 18.4683H68.4407C69.6608 18.4683 70.6499 17.4763 70.6499 16.2526C70.6499 15.0289 69.6608 14.0369 68.4407 14.0369Z" fill="#ECEDF2"/>
<path d="M92.9582 14.0369H79.7033C78.4832 14.0369 77.4941 15.0289 77.4941 16.2526C77.4941 17.4763 78.4832 18.4683 79.7033 18.4683H92.9582C94.1783 18.4683 95.1674 17.4763 95.1674 16.2526C95.1674 15.0289 94.1783 14.0369 92.9582 14.0369Z" fill="#ECEDF2"/>
</g>
<defs>
<clipPath id="clip0_2670_73329">
<rect width="221" height="120" fill="white"/>
</clipPath>
</defs>
</svg>
