<svg width="222" height="182" viewBox="0 0 222 182" fill="none" xmlns="http://www.w3.org/2000/svg">
<path d="M77.9639 181.4C115.881 181.4 146.619 150.662 146.619 112.745C146.619 74.8274 115.881 44.0894 77.9639 44.0894C40.0466 44.0894 9.30859 74.8274 9.30859 112.745C9.30859 150.662 40.0466 181.4 77.9639 181.4Z" fill="#ECEDF2"/>
<path d="M175.862 66.8377C190.341 66.8377 202.079 55.0997 202.079 40.6203C202.079 26.1408 190.341 14.4028 175.862 14.4028C161.382 14.4028 149.645 26.1408 149.645 40.6203C149.645 55.0997 161.382 66.8377 175.862 66.8377Z" fill="#ECEDF2"/>
<path d="M189.726 105.487C193.085 100.626 195.005 92.0722 198.298 93.5129C201.59 94.9536 200.048 96.8675 198.754 99.8243C197.46 102.781 198.155 104.985 202.222 104.586C206.287 104.186 217.765 103.522 220.031 106.242C222.298 108.963 222.205 114.935 213.131 118.668C204.345 122.281 197.47 118.463 192.532 120.213C189.018 121.459 184.723 124.212 184.723 124.212L180.912 111.106C180.912 111.106 186.635 109.275 189.728 105.487H189.726Z" fill="#FFD4CC"/>
<path d="M190.949 121.319C187.293 130.748 161.082 148.406 140.756 150.592C131.263 151.614 123.052 149.261 119.023 141.118C106.366 115.539 113.648 70.3682 113.648 70.3682C113.648 70.3682 137.39 76.1757 143.917 123.465C155.395 117.943 184.531 108.781 184.531 108.781C184.531 108.781 190.476 110.584 190.921 120.163C190.94 120.536 190.949 120.921 190.949 121.319Z" fill="white"/>
<path d="M119.954 85.1299C119.954 85.1299 129.475 91.6493 131.752 105.208C134.029 118.764 121.198 111.357 121.198 111.357C121.198 111.357 121.816 95.272 121.816 92.9951L119.954 85.1299Z" fill="#CAE2F5"/>
<path d="M190.949 121.319C187.293 130.748 161.083 148.406 140.756 150.592V138.634C140.756 138.634 153.344 144.282 167.966 135.84C176.778 130.753 185.433 124.406 190.921 120.163C190.941 120.536 190.949 120.921 190.949 121.319Z" fill="#CAE2F5"/>
<path d="M123.001 167.027C122.703 168.551 117.983 170.437 110.507 171.698C107.99 172.123 105.16 172.477 102.081 172.724C88.8309 173.783 70.9687 172.84 53.549 166.902C46.125 147.976 44.0435 125.869 43.7364 109.177C43.6973 107.069 43.6875 105.047 43.6987 103.132C43.7643 91.3841 44.62 83.5245 44.62 83.5245C48.8039 65.9583 74.5732 58.7603 109.366 68.654C124.009 72.8169 124.904 91.8909 125.545 110.824C126.288 132.835 125.27 155.474 123 167.027H123.001Z" fill="white"/>
<path d="M77.9084 160.714C66.0156 154.961 56.7893 144.93 57.2388 128.905C57.8991 105.363 46.89 95.9714 46.89 95.9714L43.7001 103.13C43.689 105.047 43.6987 107.067 43.7378 109.175C44.0156 124.351 45.7635 144.002 51.6561 161.67C60.3017 160.277 69.0953 160.46 77.907 160.712L77.9084 160.714Z" fill="#CAE2F5"/>
<path d="M110.508 171.698C107.991 172.122 105.161 172.477 102.083 172.724C89.9028 173.698 73.8276 172.979 57.7816 168.245C56.3702 167.829 54.9588 167.382 53.5502 166.902C52.876 165.182 52.2464 163.436 51.6572 161.67C60.3028 160.277 69.0964 160.461 77.9082 160.714C80.636 162.031 83.5034 163.127 86.4267 164.017C89.484 164.949 92.6028 165.657 95.6866 166.164C102.369 167.262 107.138 169.398 110.508 171.698Z" fill="#CAE2F5"/>
<path d="M86.4267 164.017C79.8221 165.368 65.8576 167.22 57.7816 168.245C56.3702 167.829 54.9588 167.382 53.5502 166.902C52.876 165.182 52.2464 163.436 51.6572 161.67C60.3028 160.277 69.0964 160.461 77.9082 160.714C80.636 162.031 83.5034 163.127 86.4267 164.017Z" fill="#98AAB8"/>
<path d="M93.7951 64.1797C93.7951 64.1797 86.8527 73.9142 82.0447 73.9142C77.2368 73.9142 71.8481 61.389 71.8481 61.389L72.4024 57.9045L73.2414 52.6276L93.0161 50.5L93.7951 64.1811V64.1797Z" fill="#FFD4CC"/>
<path d="M92.7313 52.6262C92.2567 54.0236 89.4883 61.3667 83.3891 61.7813C78.7654 62.0954 74.5774 59.5407 72.4023 57.9017L73.2414 52.6248H92.7299L92.7313 52.6262Z" fill="#F4BDB5"/>
<path d="M67.1406 65.3119L71.848 61.3877L83.3889 73.9143L76.5261 79.3476C76.5261 79.3476 69.0224 73.8598 67.1392 65.3105L67.1406 65.3119Z" fill="#F9623B"/>
<path d="M99.0596 65.6762L93.7323 61.3359L83.3892 73.9142L91.6774 80.4755C91.6774 80.4755 97.1777 74.2255 99.0596 65.6762Z" fill="#F9623B"/>
<path d="M152.386 95.9729H56.5783C55.1273 95.9729 53.951 97.1492 53.951 98.6002V149.822C53.951 151.273 55.1273 152.449 56.5783 152.449H152.386C153.837 152.449 155.014 151.273 155.014 149.822V98.6002C155.014 97.1492 153.837 95.9729 152.386 95.9729Z" fill="white"/>
<path d="M152.388 153.008H56.5783C54.8221 153.008 53.3926 151.578 53.3926 149.822V98.5988C53.3926 96.8426 54.8221 95.4131 56.5783 95.4131H152.388C154.144 95.4131 155.574 96.8426 155.574 98.5988V149.822C155.574 151.578 154.144 153.008 152.388 153.008ZM56.5783 96.5313C55.4378 96.5313 54.5094 97.4597 54.5094 98.6002V149.823C54.5094 150.964 55.4378 151.892 56.5783 151.892H152.388C153.528 151.892 154.457 150.964 154.457 149.823V98.6002C154.457 97.4597 153.528 96.5313 152.388 96.5313H56.5783Z" fill="#DBDBDD"/>
<path d="M58.7909 138.634C58.7909 138.634 64.107 125.631 77.1278 127.399C77.1278 127.399 87.827 133.374 96.4391 127.233C105.051 121.091 108.236 120.537 116.994 125.594C125.751 130.65 130.431 117.444 134.546 113.331C138.659 109.217 147.742 108.781 147.742 108.781V144.042C147.742 145.428 146.618 146.552 145.232 146.552H61.2996C59.9134 146.552 58.7896 145.428 58.7896 144.042V138.634H58.7909Z" fill="#F9623B"/>
<path d="M91.6241 21.3033C91.6241 21.3033 95.8917 27.2393 97.1649 33.7294C98.4381 40.2181 92.3779 36.1459 92.3779 36.1459L91.6241 21.3033Z" fill="#091558"/>
<path d="M63.1814 43.3508C58.6875 28.37 58.305 18.4289 73.1434 13.9518C84.2251 11.7782 89.3178 16.4507 93.7642 28.0196C96.2198 34.4065 98.5484 54.3543 85.6756 59.5713C76.4353 63.3517 65.193 50.0601 63.18 43.3508H63.1814Z" fill="#FFD4CC"/>
<path d="M87.1274 23.2564C87.1274 23.2564 92.706 27.2435 93.6315 28.9271C94.5571 30.6107 96.4208 19.1004 91.9423 18.9943C87.4639 18.8882 87.1288 23.2564 87.1288 23.2564H87.1274Z" fill="#091558"/>
<path d="M63.3042 28.3742C63.3042 28.3742 74.478 33.0244 83.3749 28.169C92.2718 23.3136 94.6925 16.099 94.6925 16.099C94.6925 16.099 87.2754 12.9649 82.1548 11.8062C77.0342 10.6475 61.8314 17.1544 61.562 19.4885C61.2911 21.8227 61.0971 26.8903 63.3056 28.3742H63.3042Z" fill="#091558"/>
<path d="M64.16 41.6031C64.16 41.6031 60.3404 37.4541 60.0333 42.1014C59.7262 46.7488 63.286 51.4158 67.1391 49.2603C66.7217 45.6418 64.16 41.6031 64.16 41.6031Z" fill="#FFD4CC"/>
<path d="M94.1578 36.0482C94.1578 36.0482 96.1262 30.7629 98.1672 34.951C100.207 39.1391 98.6754 44.8041 94.2933 44.2639C93.3132 40.7557 94.1592 36.0482 94.1592 36.0482H94.1578Z" fill="#FFD4CC"/>
<path d="M62.1553 40.2502C62.1553 40.2502 66.0697 44.6561 67.1237 44.4495C68.1777 44.2429 65.5546 41.1744 65.3885 37.5531C65.2224 33.9318 66.3783 28.7274 65.7542 27.5282C65.1302 26.329 64.1502 20.9222 61.0468 22.1535C57.9435 23.3848 56.6898 30.1974 58.231 34.426C59.7722 38.6546 59.9551 40.2768 62.1553 40.2502Z" fill="#091558"/>
<path d="M83.3889 73.9141L79.117 77.2966C79.117 77.2966 80.0342 79.5414 80.9695 80.4768C78.7345 83.9613 77.1025 95.9741 77.1025 95.9741H90.9721C90.9721 95.9741 86.6961 80.9347 85.8417 80.0817C87.221 78.0282 87.221 76.9504 87.221 76.9504L83.3889 73.9155V73.9141Z" fill="#1B369A"/>
<path d="M79.1045 147.948L92.8693 144.534L118.161 152.449C118.161 152.449 109.946 157.814 107.152 157.814C104.359 157.814 93.5953 156.951 93.1806 156.951C92.766 156.951 83.1418 158.4 83.1418 158.4L79.1059 147.948H79.1045Z" fill="#FFD4CC"/>
<path d="M88.6842 161.408C88.6842 161.408 69.1942 165.857 50.0881 165.302C33.5075 164.824 17.2158 160.578 14.1865 146.396C9.1426 122.786 23.6278 98.2344 38.0809 83.1043C45.1713 75.6802 52.2562 70.5233 57.0222 68.8606L50.1998 110.591C50.1998 113.803 41.9214 138.013 41.9214 138.013C41.9214 138.013 61.4504 146.057 84.7404 143.16C88.1551 145.131 88.6828 161.408 88.6828 161.408H88.6842Z" fill="white"/>
<path d="M89.8974 145.271C89.8974 145.271 95.0418 143.188 98.9744 137.082C102.907 130.975 105.287 132.528 105.287 135.633C105.287 138.737 95.3419 142.381 107.408 149.347C100.056 153.591 89.896 145.269 89.896 145.269L89.8974 145.271Z" fill="#FFD4CC"/>
<path d="M167.738 99.4043C167.738 103.238 164.631 106.345 160.797 106.345C164.631 106.345 167.738 109.453 167.738 113.286C167.738 109.453 170.846 106.345 174.679 106.345C170.846 106.345 167.738 103.238 167.738 99.4043Z" fill="#ECEDF2"/>
<path d="M50.0881 165.302C33.5075 164.824 17.2158 160.578 14.1865 146.396C9.1426 122.786 23.6278 98.2344 38.0809 83.1042C31.2459 93.6568 22.3337 111.569 19.4076 125.807C12.7081 158.402 35.709 162.231 48.5441 164.921C49.097 165.037 49.6107 165.166 50.0881 165.302Z" fill="#CAE2F5"/>
<path d="M79.5387 101.582H66.2024C64.8871 101.582 63.8208 102.648 63.8208 103.964C63.8208 105.279 64.8871 106.345 66.2024 106.345H79.5387C80.854 106.345 81.9203 105.279 81.9203 103.964C81.9203 102.648 80.854 101.582 79.5387 101.582Z" fill="#ECEDF2"/>
<path d="M95.487 101.582H88.8181C87.5028 101.582 86.4365 102.648 86.4365 103.964C86.4365 105.279 87.5028 106.345 88.8181 106.345H95.487C96.8023 106.345 97.8686 105.279 97.8686 103.964C97.8686 102.648 96.8023 101.582 95.487 101.582Z" fill="#ECEDF2"/>
<path d="M106.021 118.247H99.2563C98.4899 118.247 97.8687 118.868 97.8687 119.634C97.8687 120.401 98.4899 121.022 99.2563 121.022H106.021C106.788 121.022 107.409 120.401 107.409 119.634C107.409 118.868 106.788 118.247 106.021 118.247Z" fill="#1B369A"/>
<path d="M75.2309 121.437H68.4658C67.6994 121.437 67.0781 122.058 67.0781 122.824C67.0781 123.591 67.6994 124.212 68.4658 124.212H75.2309C75.9973 124.212 76.6186 123.591 76.6186 122.824C76.6186 122.058 75.9973 121.437 75.2309 121.437Z" fill="#1B369A"/>
<path d="M134.14 107.394H127.375C126.609 107.394 125.987 108.015 125.987 108.781C125.987 109.548 126.609 110.169 127.375 110.169H134.14C134.906 110.169 135.528 109.548 135.528 108.781C135.528 108.015 134.906 107.394 134.14 107.394Z" fill="#1B369A"/>
<path d="M27.6958 44.2751L29.4464 45.921L21.3718 55.6067L12.6941 51.5247L0 61.2676L1.45187 63.5305L13.1673 54.4284L21.8688 58.4573L30.996 47.3785L32.5596 48.8485L34.3423 41.7231L27.6958 44.2751Z" fill="#F9623B"/>
<path d="M47.9203 120.127C47.8492 120.127 47.778 120.113 47.7082 120.085C47.4234 119.968 47.2866 119.641 47.4038 119.356C48.0865 117.698 48.261 116.148 48.4299 114.65C48.5877 113.249 48.737 111.925 49.308 110.737C49.442 110.459 49.7757 110.342 50.0535 110.476C50.3313 110.61 50.4486 110.944 50.3145 111.222C49.8259 112.239 49.6933 113.415 49.5397 114.776C49.3708 116.277 49.1782 117.978 48.4355 119.781C48.3461 119.996 48.1381 120.127 47.919 120.127H47.9203Z" fill="#1B369A"/>
<path d="M124.621 95.4869C124.348 95.4869 124.109 95.2858 124.068 95.008L123.161 88.6603C123.118 88.3546 123.33 88.0726 123.634 88.0279C123.94 87.9832 124.222 88.1968 124.267 88.5011L125.174 94.8489C125.217 95.1546 125.005 95.4366 124.701 95.4813C124.674 95.4855 124.648 95.4869 124.621 95.4869Z" fill="#1B369A"/>
<path d="M151.26 73.0638C151.553 76.7954 151.977 80.1585 151.977 80.1585C151.977 80.1585 154.26 78.6815 155.039 76.4674C155.195 76.0234 155.55 75.4189 156.016 74.7377L151.26 73.0638Z" fill="#F9623B"/>
<path d="M173.808 80.9976C173.746 81.8212 173.644 82.5136 173.487 82.9576C172.708 85.1717 173.563 87.7529 173.563 87.7529C173.563 87.7529 175.999 85.3964 178.565 82.6714L173.808 80.9976Z" fill="#F9623B"/>
<path d="M161.518 68.0689L163.542 57.896C163.542 57.896 152.36 60.8039 151.321 63.7551C150.802 65.2307 150.965 69.3323 151.26 73.0639L156.016 74.7377C157.875 72.021 161.518 68.0689 161.518 68.0689Z" fill="white"/>
<path d="M156.015 75.1426C155.97 75.1426 155.924 75.1356 155.881 75.1202L151.124 73.4464C150.973 73.3933 150.867 73.2565 150.855 73.096C150.461 68.087 150.489 64.8999 150.939 63.6211C151.417 62.26 153.622 60.8598 157.679 59.3395C160.591 58.2492 163.412 57.5121 163.44 57.5037C163.575 57.4688 163.718 57.5051 163.82 57.6014C163.922 57.6978 163.966 57.8388 163.938 57.9742L161.914 68.147C161.9 68.2196 161.865 68.288 161.815 68.3425C161.779 68.3816 158.17 72.3044 156.35 74.9653C156.273 75.0783 156.146 75.1412 156.016 75.1412L156.015 75.1426ZM151.642 72.7707L155.858 74.2547C157.617 71.7572 160.61 68.4612 161.142 67.8804L163.017 58.4572C159.611 59.3995 152.445 61.777 151.702 63.8906C151.423 64.6835 151.188 66.8697 151.642 72.7707Z" fill="#DBDBDD"/>
<path d="M184.346 75.3757C183.826 76.8513 181.13 79.9463 178.565 82.6713L177.364 82.2497L173.807 80.9975C174.058 77.7154 173.694 72.3533 173.694 72.3533L178.485 63.1534C178.485 63.1534 181.325 66.9702 183.086 70.4854C184.071 72.4482 184.717 74.3175 184.346 75.3757Z" fill="white"/>
<path d="M178.565 83.0762C178.52 83.0762 178.474 83.0692 178.431 83.0539L173.674 81.38C173.501 81.3186 173.391 81.1497 173.405 80.9668C173.652 77.7517 173.295 72.4343 173.292 72.3798C173.286 72.3058 173.303 72.2318 173.336 72.1648L178.128 62.965C178.192 62.8407 178.316 62.7598 178.454 62.7486C178.594 62.7374 178.728 62.7989 178.812 62.9106C178.841 62.9496 181.693 66.7957 183.449 70.3025C184.679 72.7553 185.098 74.4585 184.728 75.5083C184.279 76.7857 182.305 79.2888 178.861 82.9478C178.782 83.0301 178.675 83.0748 178.566 83.0748L178.565 83.0762ZM174.234 80.7183L178.452 82.2023C182.5 77.8858 183.685 76.0346 183.964 75.2417C184.163 74.6777 184.11 73.4268 182.726 70.6669C181.382 67.9823 179.374 65.0842 178.544 63.9213L174.107 72.4398C174.157 73.2258 174.428 77.6694 174.234 80.7183Z" fill="#DBDBDD"/>
<path d="M180.015 37.1538C178.629 36.6666 174.336 38.9882 170.121 42.8468L183.385 47.5138C182.887 41.9967 181.401 37.6411 180.015 37.1538Z" fill="#1B369A"/>
<path d="M181.87 62.376C180.287 66.8726 177.953 70.6851 175.352 73.3767L172.634 72.4204L159.586 67.8289C159.244 64.1001 159.81 59.6663 161.392 55.1697C163.044 50.4762 166.555 46.1108 170.121 42.8469L181.079 46.7014L183.385 47.5125C183.807 52.1808 183.521 57.6811 181.869 62.3746L181.87 62.376Z" fill="white"/>
<path d="M175.352 73.7815C175.308 73.7815 175.262 73.7745 175.218 73.7591L159.45 68.2113C159.301 68.1583 159.196 68.0243 159.182 67.8665C158.825 63.9604 159.474 59.4038 161.011 55.0356C162.996 49.3915 167.401 44.7902 169.849 42.5481C169.959 42.4476 170.116 42.4155 170.257 42.4644L183.522 47.1313C183.671 47.1843 183.776 47.3184 183.791 47.4761C184.078 50.6451 184.259 56.8114 182.254 62.5086C180.717 66.8767 178.371 70.8359 175.646 73.6572C175.567 73.7382 175.463 73.7815 175.354 73.7815H175.352ZM159.965 67.5343L175.239 72.909C177.808 70.1825 180.022 66.4063 181.488 62.2419C183.388 56.8393 183.271 50.9801 183.005 47.8098L170.216 43.3104C167.794 45.5552 163.654 49.961 161.773 55.305C160.307 59.4694 159.668 63.8013 159.965 67.5357V67.5343Z" fill="#DBDBDD"/>
<path d="M172.462 51.511C173.302 49.5964 172.936 47.5843 171.643 47.0168C170.351 46.4494 168.621 47.5415 167.781 49.4561C166.94 51.3707 167.307 53.3828 168.6 53.9503C169.892 54.5177 171.622 53.4256 172.462 51.511Z" fill="#F9623B"/>
<path d="M159.584 67.8287C159.749 69.624 160.123 71.256 160.697 72.652L171.464 76.4408C172.785 75.7121 174.1 74.6749 175.352 73.3766L159.584 67.8287Z" fill="#1B369A"/>
<path d="M156.116 84.958C158.287 83.6234 161.98 75.2808 161.98 75.2808L160.546 74.6986C160.546 74.6986 156.211 83.4364 156.116 84.958Z" fill="#ECEDF2"/>
<path d="M170.898 78.3408L169.415 77.8969C169.415 77.8969 167.07 86.7128 167.925 89.1126C168.805 87.8673 170.896 78.3394 170.896 78.3394L170.898 78.3408Z" fill="#ECEDF2"/>
<path d="M163.806 76.0961C163.806 76.0961 160.235 86.2438 161.73 87.806L161.765 87.8185C163.909 87.5365 167.479 77.3888 167.479 77.3888L163.806 76.0961Z" fill="#ECEDF2"/>
<path d="M181.87 62.376C180.287 66.8726 177.953 70.6852 175.352 73.3767L172.634 72.4205C174.127 70.7466 175.831 68.3873 177.459 65.1318C180.747 58.5551 181.1 50.2906 181.079 46.7014L183.385 47.5125C183.807 52.1808 183.521 57.6812 181.869 62.3746L181.87 62.376Z" fill="#DBDBDD"/>
<path d="M184.346 75.3759C183.826 76.8515 181.131 79.9465 178.565 82.6715L177.364 82.2499C180.226 79.9395 182.227 73.6602 183.087 70.4856C184.071 72.4484 184.717 74.3177 184.346 75.3759Z" fill="#DBDBDD"/>
<path d="M206.295 64.5147C213.478 64.5147 219.301 58.692 219.301 51.5093C219.301 44.3266 213.478 38.5039 206.295 38.5039C199.113 38.5039 193.29 44.3266 193.29 51.5093C193.29 58.692 199.113 64.5147 206.295 64.5147Z" fill="#DBDBDD"/>
<path d="M212.15 55.1544V58.9376H200.442V55.1544C200.442 52.6987 202.433 50.708 204.888 50.708H205.19C203.829 50.2655 202.844 48.9853 202.844 47.4776C202.844 45.6027 204.365 44.0811 206.241 44.0811C208.117 44.0811 209.638 45.6013 209.638 47.4776C209.638 48.9853 208.653 50.2655 207.292 50.708H207.704C210.16 50.708 212.15 52.6987 212.15 55.1544Z" fill="white"/>
<path d="M142.087 20.4323C147.729 20.4323 152.303 15.8584 152.303 10.2161C152.303 4.57392 147.729 0 142.087 0C136.445 0 131.871 4.57392 131.871 10.2161C131.871 15.8584 136.445 20.4323 142.087 20.4323Z" fill="#DBDBDD"/>
<path d="M146.685 13.0807V16.0529H137.488V13.0807C137.488 11.1514 139.052 9.58787 140.981 9.58787H141.218C140.149 9.24026 139.376 8.23512 139.376 7.04989C139.376 5.57708 140.571 4.38208 142.043 4.38208C143.516 4.38208 144.711 5.57708 144.711 7.04989C144.711 8.23512 143.938 9.23887 142.869 9.58787H143.192C145.122 9.58787 146.685 11.1514 146.685 13.0807Z" fill="white"/>
<path d="M1.93652 13.6323V15.8841C1.93652 21.8075 6.73747 26.6084 12.6608 26.6084H26.3028C27.8789 28.2753 31.7096 30.6332 39.8178 28.0435C37.9848 26.9853 36.3668 24.7782 35.3435 23.1365C37.0969 21.2281 38.1677 18.6818 38.1677 15.8841V13.6323C38.1677 7.71037 33.3667 2.90942 27.4434 2.90942H12.6608C6.73747 2.90942 1.93652 7.71037 1.93652 13.6323Z" fill="#ECEDF2"/>
<path d="M11.759 16.2765C12.843 16.2765 13.7218 15.3977 13.7218 14.3136C13.7218 13.2296 12.843 12.3508 11.759 12.3508C10.675 12.3508 9.79617 13.2296 9.79617 14.3136C9.79617 15.3977 10.675 16.2765 11.759 16.2765Z" fill="white"/>
<path d="M22.0701 16.2765C23.1541 16.2765 24.0329 15.3977 24.0329 14.3136C24.0329 13.2296 23.1541 12.3508 22.0701 12.3508C20.986 12.3508 20.1072 13.2296 20.1072 14.3136C20.1072 15.3977 20.986 16.2765 22.0701 16.2765Z" fill="white"/>
<path d="M32.3797 16.2765C33.4638 16.2765 34.3426 15.3977 34.3426 14.3136C34.3426 13.2296 33.4638 12.3508 32.3797 12.3508C31.2957 12.3508 30.4169 13.2296 30.4169 14.3136C30.4169 15.3977 31.2957 16.2765 32.3797 16.2765Z" fill="white"/>
<path d="M160.222 43.5408C159.848 43.5408 159.473 43.5338 159.106 43.5212L159.133 42.7129C159.491 42.7255 159.858 42.7311 160.222 42.7311V43.5408ZM157.469 43.4207C156.921 43.3718 156.372 43.3062 155.84 43.2267L155.96 42.4267C156.475 42.5035 157.007 42.5677 157.541 42.6152L157.468 43.4207H157.469ZM154.225 42.9321C153.686 42.8162 153.15 42.6808 152.631 42.53L152.856 41.7524C153.357 41.8976 153.875 42.0275 154.395 42.1405L154.225 42.9321ZM151.067 42.0163C150.551 41.825 150.038 41.6128 149.546 41.3853L149.885 40.6496C150.359 40.8674 150.851 41.0726 151.349 41.2569L151.069 42.0163H151.067ZM148.077 40.637C147.598 40.3676 147.126 40.0772 146.673 39.7715L147.125 39.1C147.56 39.3932 148.014 39.6724 148.473 39.9306L148.077 40.637ZM145.344 38.7943C144.916 38.4522 144.498 38.0879 144.098 37.7109L144.654 37.1218C145.038 37.4834 145.44 37.8338 145.849 38.1619L145.344 38.7943ZM142.945 36.5299C142.581 36.1265 142.225 35.6993 141.888 35.2623L142.529 34.7681C142.853 35.1883 143.195 35.5988 143.545 35.9868L142.945 36.5299ZM140.931 33.9193C140.632 33.4642 140.343 32.991 140.075 32.5093L140.781 32.1143C141.041 32.5777 141.319 33.0356 141.608 33.474L140.932 33.9193H140.931ZM139.32 31.0435C139.085 30.5465 138.867 30.037 138.669 29.5274L139.423 29.2343C139.614 29.7257 139.825 30.2185 140.051 30.6987L139.318 31.0435H139.32ZM138.126 27.9667C137.823 26.9769 137.716 26.3654 137.711 26.3389L138.509 26.2007C138.509 26.2007 138.613 26.794 138.901 27.7293L138.127 27.9667H138.126Z" fill="#323F8B"/>
<path d="M211.118 39.0456C210.812 38.5989 210.494 38.1675 210.175 37.7668L210.809 37.2629C211.14 37.6789 211.469 38.1256 211.786 38.5877L211.119 39.0456H211.118ZM209.139 36.5676C208.771 36.1754 208.39 35.8068 208.006 35.4704L208.539 34.8617C208.943 35.2149 209.343 35.603 209.73 36.0134L209.141 36.5676H209.139ZM206.768 34.5029C206.331 34.2 205.88 33.9292 205.427 33.696L205.799 32.9771C206.282 33.2269 206.763 33.5159 207.23 33.8384L206.769 34.5043L206.768 34.5029ZM196.441 33.4824L196.049 32.7746C196.073 32.7607 196.659 32.4396 197.642 32.1548L197.866 32.9324C196.979 33.1893 196.447 33.4796 196.441 33.4824ZM203.994 33.0818C203.501 32.9114 202.995 32.7788 202.489 32.6881L202.633 31.8909C203.178 31.9901 203.726 32.1325 204.256 32.3153L203.992 33.0804L203.994 33.0818ZM199.39 32.6141L199.285 31.8114C199.755 31.7499 200.234 31.7192 200.706 31.7192C200.79 31.7192 200.875 31.7192 200.96 31.722L200.941 32.5317C200.861 32.5303 200.783 32.5289 200.705 32.5289C200.268 32.5289 199.825 32.5583 199.388 32.6155L199.39 32.6141Z" fill="#323F8B"/>
</svg>
