<svg width="199" height="156" viewBox="0 0 199 156" fill="none" xmlns="http://www.w3.org/2000/svg">
<path d="M107.417 155.4C145.334 155.4 176.072 124.662 176.072 86.7452C176.072 48.8279 145.334 18.0898 107.417 18.0898C69.4997 18.0898 38.7617 48.8279 38.7617 86.7452C38.7617 124.662 69.4997 155.4 107.417 155.4Z" fill="#ECEDF2"/>
<path d="M13.2426 80.4588C20.5563 80.4588 26.4852 74.5299 26.4852 67.2162C26.4852 59.9025 20.5563 53.9736 13.2426 53.9736C5.92891 53.9736 0 59.9025 0 67.2162C0 74.5299 5.92891 80.4588 13.2426 80.4588Z" fill="#F9623B"/>
<path d="M198.101 46V61.5793C198.101 64.7138 195.559 67.2569 192.423 67.2569H181.762V46.8846C181.762 46.3964 182.157 46.0013 182.645 46.0013H198.101V46Z" fill="#ECEDF2"/>
<path d="M198.101 61.2324V61.5785C198.101 64.7129 195.559 67.256 192.424 67.256H191.836C191.836 67.256 193.914 64.5909 193.082 61.4753C196.231 62.9639 198.101 61.2324 198.101 61.2324Z" fill="#DBDBDD"/>
<path d="M183.831 49.2724C184.304 49.2724 184.688 48.8888 184.688 48.4155C184.688 47.9422 184.304 47.5586 183.831 47.5586C183.357 47.5586 182.974 47.9422 182.974 48.4155C182.974 48.8888 183.357 49.2724 183.831 49.2724Z" fill="#F35757"/>
<path d="M194.32 50.0498H189.006C188.648 50.0498 188.357 50.3405 188.357 50.6991C188.357 51.0577 188.648 51.3484 189.006 51.3484H194.32C194.679 51.3484 194.969 51.0577 194.969 50.6991C194.969 50.3405 194.679 50.0498 194.32 50.0498Z" fill="white"/>
<path d="M194.32 53.2441H185.012C184.654 53.2441 184.363 53.5348 184.363 53.8934C184.363 54.252 184.654 54.5427 185.012 54.5427H194.32C194.679 54.5427 194.969 54.252 194.969 53.8934C194.969 53.5348 194.679 53.2441 194.32 53.2441Z" fill="white"/>
<path d="M194.32 56.6279H185.012C184.654 56.6279 184.363 56.9186 184.363 57.2772C184.363 57.6358 184.654 57.9265 185.012 57.9265H194.32C194.679 57.9265 194.969 57.6358 194.969 57.2772C194.969 56.9186 194.679 56.6279 194.32 56.6279Z" fill="white"/>
<path d="M189.016 60.0117H185.012C184.654 60.0117 184.363 60.3024 184.363 60.661C184.363 61.0196 184.654 61.3103 185.012 61.3103H189.016C189.375 61.3103 189.666 61.0196 189.666 60.661C189.666 60.3024 189.375 60.0117 189.016 60.0117Z" fill="white"/>
<path d="M52.5653 25.6354C51.1283 23.7882 48.467 23.4547 46.6197 24.8918C45.0405 26.1199 44.5687 28.2427 45.3614 29.9867L37.7272 35.9247C37.2968 36.2594 37.2188 36.8798 37.5535 37.3101C37.7209 37.5253 37.9599 37.6524 38.2104 37.6839C38.4608 37.7153 38.7237 37.6512 38.9389 37.4838L46.5732 31.5458C48.0693 32.7437 50.2424 32.8091 51.8216 31.581C53.6689 30.1453 54.0011 27.4826 52.5653 25.6367V25.6354ZM51.088 30.636C49.763 31.6678 47.8516 31.4287 46.8211 30.1025C45.7905 28.7775 46.0296 26.8661 47.3546 25.8355C48.6796 24.8037 50.591 25.0428 51.6216 26.369C52.6534 27.6953 52.413 29.6054 51.088 30.636Z" fill="#323F8B"/>
<path d="M38.9314 40.3535H35.7617V45.3604H38.9314V40.3535Z" fill="#F9623B"/>
<path d="M44.42 36.6963H41.2503V45.3624H44.42V36.6963Z" fill="#DBDBDD"/>
<path d="M49.9077 36.6963H46.738V45.3624H49.9077V36.6963Z" fill="#F9623B"/>
<path d="M55.3963 32.1699H52.2266V45.3609H55.3963V32.1699Z" fill="#DBDBDD"/>
<path d="M60.884 27.1631H57.7143V45.361H60.884V27.1631Z" fill="#F9623B"/>
<path d="M75.4958 50.0745C75.1712 50.0745 74.9094 50.3375 74.9094 50.6609C74.9094 50.9843 75.1724 51.2473 75.4958 51.2473H79.9918V50.0732H75.4958V50.0745Z" fill="#323F8B"/>
<path d="M95.4541 50.0742H79.9918V51.2482H95.4541C95.7787 51.2482 96.0404 50.9852 96.0404 50.6619C96.0404 50.3385 95.7774 50.0755 95.4541 50.0755V50.0742Z" fill="white"/>
<path d="M95.4539 51.4996H79.9917C79.8532 51.4996 79.74 51.3864 79.74 51.2479V50.0739C79.74 49.9355 79.8532 49.8223 79.9917 49.8223H95.4539C95.9158 49.8223 96.292 50.1985 96.292 50.6603C96.292 51.1221 95.9158 51.4983 95.4539 51.4983V51.4996ZM80.2433 50.9963H95.4539C95.6389 50.9963 95.7886 50.8453 95.7886 50.6616C95.7886 50.4779 95.6389 50.3269 95.4539 50.3269H80.2433V50.9975V50.9963Z" fill="#DBDBDD"/>
<path d="M75.4958 47.6194C75.1712 47.6194 74.9094 47.8824 74.9094 48.2058C74.9094 48.5292 75.1724 48.7922 75.4958 48.7922H83.0306V47.6182H75.4958V47.6194Z" fill="#F9623B"/>
<path d="M95.454 47.6191H83.0293V48.7932H95.454C95.7786 48.7932 96.0404 48.5302 96.0404 48.2068C96.0404 47.8834 95.7774 47.6204 95.454 47.6204V47.6191Z" fill="white"/>
<path d="M95.4538 49.0445H83.0304C82.892 49.0445 82.7787 48.9313 82.7787 48.7929V47.6189C82.7787 47.4804 82.892 47.3672 83.0304 47.3672H95.4538C95.9157 47.3672 96.2919 47.7434 96.2919 48.2052C96.2919 48.667 95.9157 49.0433 95.4538 49.0433V49.0445ZM83.2821 48.5412H95.4538C95.6388 48.5412 95.7886 48.3915 95.7886 48.2065C95.7886 48.0215 95.6388 47.8718 95.4538 47.8718H83.2821V48.5425V48.5412Z" fill="#DBDBDD"/>
<path d="M75.4958 45.1653C75.1712 45.1653 74.9094 45.4283 74.9094 45.7517C74.9094 46.0751 75.1724 46.3381 75.4958 46.3381H90.1918V45.1641H75.4958V45.1653Z" fill="#323F8B"/>
<path d="M95.4539 45.166H90.1916V46.34H95.4539C95.7786 46.34 96.0403 46.077 96.0403 45.7537C96.0403 45.4303 95.7773 45.1673 95.4539 45.1673V45.166Z" fill="white"/>
<path d="M95.4542 46.5914H90.1919C90.0535 46.5914 89.9402 46.4782 89.9402 46.3397V45.1657C89.9402 45.0273 90.0535 44.9141 90.1919 44.9141H95.4542C95.916 44.9141 96.2923 45.2903 96.2923 45.7521C96.2923 46.2139 95.916 46.5902 95.4542 46.5902V46.5914ZM90.4436 46.0881H95.4542C95.6392 46.0881 95.7889 45.9383 95.7889 45.7534C95.7889 45.5684 95.6392 45.4186 95.4542 45.4186H90.4436V46.0893V46.0881Z" fill="#DBDBDD"/>
<path d="M75.4958 42.7112C75.1712 42.7112 74.9094 42.9742 74.9094 43.2976C74.9094 43.621 75.1724 43.884 75.4958 43.884H91.9824V42.71H75.4958V42.7112Z" fill="#323F8B"/>
<path d="M95.4541 42.7119H91.9824V43.8859H95.4541C95.7788 43.8859 96.0405 43.6229 96.0405 43.2996C96.0405 42.9762 95.7775 42.7132 95.4541 42.7132V42.7119Z" fill="white"/>
<path d="M95.4541 44.1373H91.9824C91.844 44.1373 91.7307 44.0241 91.7307 43.8856V42.7116C91.7307 42.5732 91.844 42.46 91.9824 42.46H95.4541C95.9159 42.46 96.2921 42.8362 96.2921 43.298C96.2921 43.7598 95.9159 44.136 95.4541 44.136V44.1373ZM92.234 43.634H95.4541C95.6391 43.634 95.7888 43.483 95.7888 43.2993C95.7888 43.1155 95.6391 42.9645 95.4541 42.9645H92.234V43.6352V43.634Z" fill="#DBDBDD"/>
<path d="M141.696 86.7628C139.86 80.8802 143.142 74.6238 149.025 72.7879C149.923 72.5073 150.832 72.3462 151.73 72.2959L152.348 83.4396L163.375 85.1623C162.737 89.2266 159.865 92.7827 155.671 94.0913C149.788 95.926 143.532 92.6455 141.697 86.7628H141.696Z" fill="white"/>
<path d="M152.334 94.9165C150.503 94.9165 148.687 94.4736 147.02 93.599C144.306 92.1759 142.309 89.7813 141.397 86.8557C139.513 80.817 142.893 74.3718 148.931 72.4869C149.837 72.2038 150.774 72.0339 151.714 71.981C151.798 71.976 151.878 72.0049 151.941 72.0603C152.003 72.1157 152.041 72.1937 152.046 72.2767L152.649 83.1663L163.424 84.8499C163.507 84.8625 163.58 84.9078 163.629 84.9757C163.678 85.0437 163.698 85.128 163.685 85.2098C163.002 89.5611 159.968 93.0793 155.765 94.3905C154.638 94.7416 153.483 94.9165 152.335 94.9165H152.334ZM151.434 72.6316C150.652 72.6983 149.874 72.8518 149.119 73.0871C143.411 74.8676 140.216 80.9604 141.998 86.6669C142.86 89.4315 144.749 91.6952 147.313 93.0403C149.878 94.3855 152.813 94.651 155.578 93.789C159.45 92.581 162.273 89.3912 163.011 85.4224L152.3 83.7489C152.153 83.7262 152.042 83.6042 152.034 83.4557L151.434 72.6316Z" fill="#0C0A0A"/>
<path d="M154.164 81.9434L153.546 70.7997C158.531 70.5191 163.26 73.636 164.814 78.6202C165.341 80.3089 165.446 82.029 165.189 83.6661L154.163 81.9434H154.164Z" fill="white"/>
<path d="M165.19 83.9811C165.174 83.9811 165.158 83.9811 165.141 83.9773L154.115 82.2546C153.967 82.232 153.857 82.1099 153.849 81.9615L153.231 70.8177C153.221 70.6441 153.355 70.4956 153.528 70.4868C158.781 70.1936 163.546 73.498 165.115 78.5275C165.645 80.2262 165.774 81.9715 165.5 83.7156C165.476 83.8703 165.341 83.9811 165.189 83.9811H165.19ZM154.463 81.672L164.924 83.3053C165.121 81.7614 164.984 80.2174 164.515 78.7137C163.063 74.0604 158.72 70.9637 153.878 71.1009L154.463 81.672Z" fill="#0C0A0A"/>
<path d="M53.6536 66.8496C50.4323 66.8496 47.82 69.4619 47.82 72.6832V124.278H123.128V66.8496H53.6536Z" fill="white"/>
<path d="M123.129 124.781H47.8199C47.5418 124.781 47.3166 124.556 47.3166 124.278V72.6826C47.3166 69.1883 50.1591 66.3457 53.6535 66.3457H123.128C123.406 66.3457 123.631 66.5709 123.631 66.849V124.278C123.631 124.556 123.406 124.781 123.128 124.781H123.129ZM48.3245 123.774H122.626V67.3524H53.6535C50.7141 67.3524 48.3232 69.7432 48.3232 72.6826V123.774H48.3245Z" fill="#DBDBDD"/>
<path d="M173.839 72.6832C173.839 69.4619 171.226 66.8496 168.005 66.8496H123.128V124.278H173.839V72.6832Z" fill="white"/>
<path d="M173.839 124.781H123.128C122.85 124.781 122.625 124.556 122.625 124.278V66.849C122.625 66.5709 122.85 66.3457 123.128 66.3457H168.005C171.499 66.3457 174.342 69.1883 174.342 72.6826V124.278C174.342 124.556 174.117 124.781 173.839 124.781ZM123.631 123.774H173.335V72.6826C173.335 69.7432 170.944 67.3524 168.005 67.3524H123.631V123.774Z" fill="#DBDBDD"/>
<path d="M47.8198 124.277V126.827C47.8198 130.048 50.4321 132.66 53.6534 132.66H123.129V124.277H47.8198Z" fill="white"/>
<path d="M123.129 133.164H53.6533C50.159 133.164 47.3164 130.321 47.3164 126.827V124.278C47.3164 124 47.5416 123.774 47.8197 123.774H123.128C123.406 123.774 123.631 124 123.631 124.278V132.661C123.631 132.939 123.406 133.164 123.128 133.164H123.129ZM48.3243 124.781V126.827C48.3243 129.767 50.7151 132.157 53.6546 132.157H122.626V124.781H48.3231H48.3243Z" fill="#DBDBDD"/>
<path d="M123.129 124.277V132.66H168.006C171.228 132.66 173.84 130.048 173.84 126.827V124.277H123.129Z" fill="white"/>
<path d="M168.005 133.164H123.128C122.85 133.164 122.625 132.939 122.625 132.661V124.278C122.625 124 122.85 123.774 123.128 123.774H173.839C174.117 123.774 174.342 124 174.342 124.278V126.827C174.342 130.321 171.499 133.164 168.005 133.164ZM123.631 132.157H168.005C170.944 132.157 173.335 129.767 173.335 126.827V124.781H123.631V132.157Z" fill="#DBDBDD"/>
<path d="M51.8228 121.885C51.5623 121.885 51.3408 121.684 51.322 121.42C51.3018 121.143 51.5095 120.901 51.7863 120.88L64.9735 119.899L82.3547 98.2529C82.5032 98.0679 82.7612 98.0113 82.9738 98.1182L96.7135 105.042L107.593 98.2151L117.96 77.8756C118.086 77.6277 118.389 77.5295 118.637 77.6554C118.885 77.7812 118.983 78.0845 118.857 78.3324L108.427 98.7965C108.386 98.877 108.323 98.9462 108.246 98.994L97.0079 106.046C96.8582 106.139 96.6707 106.148 96.5134 106.068L82.8845 99.2004L65.6216 120.699C65.5347 120.807 65.4051 120.875 65.2667 120.885L51.8618 121.883C51.8492 121.883 51.8366 121.884 51.824 121.884L51.8228 121.885Z" fill="#DBDBDD"/>
<path d="M51.8226 121.512C51.6943 121.512 51.5646 121.463 51.4665 121.365C51.2702 121.169 51.2702 120.85 51.4665 120.653L60.5742 111.545C60.7039 111.415 60.8939 111.366 61.07 111.417L78.3267 116.392L95.528 101.493C95.6802 101.361 95.8979 101.332 96.0791 101.422L106.459 106.505L117.766 87.3712C117.907 87.1321 118.217 87.0529 118.456 87.1938C118.695 87.3347 118.774 87.6443 118.633 87.8834L107.089 107.419C106.956 107.645 106.67 107.731 106.435 107.615L95.9369 102.474L78.7809 117.333C78.6526 117.445 78.4752 117.483 78.3116 117.436L61.0788 112.467L52.1812 121.365C52.0831 121.463 51.9535 121.512 51.8251 121.512H51.8226Z" fill="#29346D"/>
<path d="M106.657 108.706C107.509 108.706 108.199 108.015 108.199 107.163C108.199 106.311 107.509 105.62 106.657 105.62C105.805 105.62 105.114 106.311 105.114 107.163C105.114 108.015 105.805 108.706 106.657 108.706Z" fill="#F9623B"/>
<path d="M95.6006 103.197C96.4526 103.197 97.1433 102.506 97.1433 101.654C97.1433 100.802 96.4526 100.111 95.6006 100.111C94.7486 100.111 94.0579 100.802 94.0579 101.654C94.0579 102.506 94.7486 103.197 95.6006 103.197Z" fill="#F9623B"/>
<path d="M78.4135 118.496C79.2655 118.496 79.9562 117.805 79.9562 116.953C79.9562 116.101 79.2655 115.41 78.4135 115.41C77.5615 115.41 76.8708 116.101 76.8708 116.953C76.8708 117.805 77.5615 118.496 78.4135 118.496Z" fill="#F9623B"/>
<path d="M61.2251 113.003C62.0771 113.003 62.7678 112.313 62.7678 111.461C62.7678 110.609 62.0771 109.918 61.2251 109.918C60.3731 109.918 59.6824 110.609 59.6824 111.461C59.6824 112.313 60.3731 113.003 61.2251 113.003Z" fill="#F9623B"/>
<path d="M107.721 100.112C108.573 100.112 109.264 99.4211 109.264 98.5691C109.264 97.7171 108.573 97.0264 107.721 97.0264C106.869 97.0264 106.178 97.7171 106.178 98.5691C106.178 99.4211 106.869 100.112 107.721 100.112Z" fill="#091558"/>
<path d="M96.6289 107.164C97.481 107.164 98.1717 106.473 98.1717 105.621C98.1717 104.769 97.481 104.078 96.6289 104.078C95.7769 104.078 95.0862 104.769 95.0862 105.621C95.0862 106.473 95.7769 107.164 96.6289 107.164Z" fill="#091558"/>
<path d="M82.7472 100.112C83.5992 100.112 84.2899 99.4211 84.2899 98.5691C84.2899 97.7171 83.5992 97.0264 82.7472 97.0264C81.8952 97.0264 81.2045 97.7171 81.2045 98.5691C81.2045 99.4211 81.8952 100.112 82.7472 100.112Z" fill="#091558"/>
<path d="M65.6324 121.707C66.4844 121.707 67.1751 121.016 67.1751 120.164C67.1751 119.312 66.4844 118.621 65.6324 118.621C64.7804 118.621 64.0897 119.312 64.0897 120.164C64.0897 121.016 64.7804 121.707 65.6324 121.707Z" fill="#091558"/>
<path d="M115.701 71.2441H54.3202C52.9407 71.2441 51.8224 72.3622 51.8224 73.7413C51.8224 75.1204 52.9407 76.2384 54.3202 76.2384H115.701C117.081 76.2384 118.199 75.1204 118.199 73.7413C118.199 72.3622 117.081 71.2441 115.701 71.2441Z" fill="#091558"/>
<path d="M101.162 81.5273H56.2868C55.7176 81.5273 55.2562 81.9887 55.2562 82.5579C55.2562 83.1271 55.7176 83.5885 56.2868 83.5885H101.162C101.732 83.5885 102.193 83.1271 102.193 82.5579C102.193 81.9887 101.732 81.5273 101.162 81.5273Z" fill="#DBDBDD"/>
<path d="M74.9716 86.5967H56.2868C55.7176 86.5967 55.2562 87.0581 55.2562 87.6272C55.2562 88.1964 55.7176 88.6578 56.2868 88.6578H74.9716C75.5408 88.6578 76.0022 88.1964 76.0022 87.6272C76.0022 87.0581 75.5408 86.5967 74.9716 86.5967Z" fill="#F9623B"/>
<path d="M138.869 87.0011L133.975 82.6436C131.811 85.0734 130.247 88.0493 129.517 91.3398L135.913 92.7643C136.396 90.5836 137.433 88.6105 138.868 87.0011H138.869Z" fill="white"/>
<path d="M135.914 93.269C135.878 93.269 135.841 93.2652 135.805 93.2564L129.409 91.832C129.138 91.7716 128.967 91.5035 129.026 91.2317C129.757 87.9312 131.339 84.8458 133.6 82.309C133.785 82.1014 134.103 82.0837 134.311 82.2675L139.205 86.625C139.304 86.7144 139.364 86.8389 139.372 86.9723C139.38 87.1057 139.334 87.2366 139.245 87.336C137.842 88.9101 136.86 90.8253 136.406 92.8739C136.377 93.0047 136.298 93.118 136.185 93.1897C136.103 93.2413 136.01 93.269 135.914 93.269ZM130.125 90.9612L135.542 92.1667C136.031 90.2981 136.93 88.5452 138.165 87.0491L134.022 83.3597C132.159 85.5655 130.822 88.174 130.125 90.9612Z" fill="#DBDBDD"/>
<path d="M148.483 82.6878C151.63 82.6878 154.513 83.8178 156.751 85.6927L160.957 80.6695C157.582 77.8408 153.232 76.1357 148.483 76.1357C145.666 76.1357 142.988 76.736 140.571 77.8156L143.24 83.8002C144.842 83.0855 146.616 82.6866 148.483 82.6866V82.6878Z" fill="#F9623B"/>
<path d="M161.297 94.2896C161.339 94.7087 161.36 95.134 161.36 95.5631C161.36 102.674 155.596 108.438 148.485 108.438C143.299 108.438 138.83 105.372 136.79 100.954L130.838 103.697C133.916 110.363 140.661 114.99 148.485 114.99C159.215 114.99 167.912 106.293 167.912 95.5631C167.912 94.915 167.881 94.2733 167.818 93.6416L161.299 94.2896H161.297Z" fill="white"/>
<path d="M148.483 115.494C144.603 115.494 140.84 114.377 137.605 112.265C134.453 110.207 131.954 107.317 130.38 103.908C130.324 103.787 130.318 103.649 130.365 103.523C130.411 103.397 130.504 103.297 130.626 103.24L136.578 100.497C136.83 100.381 137.129 100.491 137.246 100.743C139.264 105.112 143.675 107.936 148.485 107.936C155.307 107.936 160.856 102.386 160.856 95.5642C160.856 95.1591 160.836 94.7476 160.796 94.3399C160.768 94.0631 160.971 93.8177 161.248 93.79L167.767 93.142C167.9 93.1294 168.033 93.1684 168.136 93.254C168.239 93.3395 168.304 93.4616 168.317 93.5937C168.381 94.2468 168.414 94.9099 168.414 95.5642C168.414 106.553 159.473 115.495 148.483 115.495V115.494ZM131.511 103.941C134.688 110.365 141.294 114.487 148.483 114.487C158.917 114.487 167.407 105.998 167.407 95.563C167.407 95.1075 167.391 94.6482 167.358 94.1927L161.838 94.7413C161.854 95.0156 161.863 95.2912 161.863 95.563C161.863 102.941 155.861 108.941 148.485 108.941C143.451 108.941 138.822 106.083 136.552 101.617L131.512 103.94L131.511 103.941Z" fill="#DBDBDD"/>
<path d="M161.297 94.29L167.816 93.642C167.305 88.4438 164.747 83.8472 160.957 80.6699L156.75 85.6931C159.262 87.7983 160.958 90.8447 161.297 94.29Z" fill="#091558"/>
<path d="M143.24 83.802L140.571 77.8174C138.04 78.9474 135.794 80.6033 133.975 82.6456L138.868 87.0031C140.075 85.6492 141.562 84.5519 143.24 83.8032V83.802Z" fill="#091558"/>
<path d="M135.608 95.5647C135.608 94.6034 135.714 93.6672 135.914 92.7662L129.518 91.3418C129.217 92.7008 129.057 94.1139 129.057 95.5647C129.057 98.4689 129.695 101.225 130.837 103.699L136.789 100.955C136.031 99.3158 135.608 97.49 135.608 95.5647Z" fill="#091558"/>
<path d="M169.267 116.604H161.463C161.317 116.604 161.179 116.542 161.083 116.432L156.894 111.618C156.712 111.408 156.734 111.091 156.943 110.908C157.153 110.726 157.471 110.747 157.653 110.957L161.691 115.598H169.266C169.544 115.598 169.769 115.823 169.769 116.101C169.769 116.379 169.544 116.604 169.266 116.604H169.267Z" fill="#29346D"/>
<path d="M168.947 113.693H162.512C162.154 113.693 161.864 113.983 161.864 114.341C161.864 114.699 162.154 114.989 162.512 114.989H168.947C169.305 114.989 169.595 114.699 169.595 114.341C169.595 113.983 169.305 113.693 168.947 113.693Z" fill="#323F8B"/>
<path d="M176.696 26.1562V12.6947C176.696 9.35509 173.989 6.64844 170.65 6.64844H122.06C118.72 6.64844 116.013 9.35509 116.013 12.6947V26.155C116.013 26.8143 116.119 27.4485 116.314 28.0425H176.394C176.589 27.4485 176.695 26.8143 176.695 26.155L176.696 26.1562Z" fill="white"/>
<path d="M176.394 28.2951H116.314C116.206 28.2951 116.109 28.2259 116.075 28.1214C115.867 27.4885 115.762 26.8266 115.762 26.1547V12.6944C115.762 9.22142 118.587 6.39648 122.06 6.39648H170.65C174.123 6.39648 176.948 9.22142 176.948 12.6944V26.1547C176.948 26.8254 176.842 27.4872 176.634 28.1214C176.6 28.2246 176.504 28.2951 176.395 28.2951H176.394ZM116.499 27.7918H176.209C176.365 27.262 176.443 26.7121 176.443 26.1559V12.6944C176.443 9.49951 173.843 6.89981 170.649 6.89981H122.058C118.863 6.89981 116.264 9.49951 116.264 12.6944V26.1547C116.264 26.7121 116.343 27.2607 116.498 27.7905L116.499 27.7918Z" fill="#DBDBDD"/>
<path d="M116.314 28.043C117.107 30.4577 119.379 32.2005 122.058 32.2005H170.648C173.329 32.2005 175.6 30.4564 176.393 28.043H116.313H116.314Z" fill="white"/>
<path d="M170.65 32.7042H122.059C119.222 32.7042 116.722 30.8935 115.837 28.1994C115.787 28.0459 115.813 27.8785 115.908 27.7477C116.002 27.6168 116.154 27.54 116.315 27.54H176.395C176.556 27.54 176.708 27.6181 176.803 27.7477C176.897 27.8773 176.924 28.0471 176.873 28.1994C175.989 30.8935 173.487 32.7042 170.651 32.7042H170.65ZM117.056 28.5467C117.966 30.4568 119.898 31.6975 122.058 31.6975H170.648C172.81 31.6975 174.74 30.4568 175.65 28.5467H117.055H117.056Z" fill="#DBDBDD"/>
<path d="M127.688 20.5527H121.526V26.7991H127.688V20.5527Z" fill="#323F8B"/>
<path d="M138.016 23.4521H131.854V26.798H138.016V23.4521Z" fill="#F9623B"/>
<path d="M148.345 17.7637H142.183V26.7984H148.345V17.7637Z" fill="#323F8B"/>
<path d="M158.673 14.082H152.511V26.7974H158.673V14.082Z" fill="#F9623B"/>
<path d="M169.001 9.37109H162.839V26.7976H169.001V9.37109Z" fill="#323F8B"/>
<path d="M166.315 4.19912C165.935 3.95626 165.43 4.06699 165.187 4.44575L158.38 15.0748L149.684 13.7888C149.444 13.7536 149.203 13.8253 149.023 13.9851L140.485 21.5615L132.184 18.6774C131.926 18.588 131.643 18.6321 131.425 18.7957L121.853 25.9996C121.493 26.2701 121.42 26.7823 121.692 27.1421C121.963 27.502 122.475 27.575 122.835 27.3032L132.058 20.361L140.401 23.2589C140.679 23.3558 140.991 23.2942 141.21 23.0979L149.821 15.4573L158.663 16.766C158.98 16.8126 159.297 16.6678 159.47 16.3986L166.561 5.32531C166.804 4.9453 166.694 4.44071 166.315 4.19786V4.19912Z" fill="#F9623B"/>
<path d="M168.348 7.45305L162.591 4.06061L168.863 0L168.348 7.45305Z" fill="#F9623B"/>
<path d="M138.862 78.5928H137.856V79.5994H138.862V78.5928Z" fill="#323F8B"/>
<path d="M138.862 76.6348H137.856V74.6756H138.862V76.6348ZM138.862 72.7164H137.856V70.7571H138.862V72.7164ZM138.862 68.7979H137.856V66.8387H138.862V68.7979ZM138.862 64.8795H137.856V62.9203H138.862V64.8795ZM138.862 60.9611H137.856V59.0019H138.862V60.9611ZM138.862 57.0427H137.856V55.0835H138.862V57.0427ZM138.862 53.1243H137.856V51.165H138.862V53.1243Z" fill="#323F8B"/>
<path d="M138.862 48.2002H137.856V49.2069H138.862V48.2002Z" fill="#323F8B"/>
<path d="M108.937 127.261H66.7995C66.1552 127.261 65.633 127.783 65.633 128.427V128.428C65.633 129.073 66.1552 129.595 66.7995 129.595H108.937C109.581 129.595 110.103 129.073 110.103 128.428V128.427C110.103 127.783 109.581 127.261 108.937 127.261Z" fill="#DBDBDD"/>
<path d="M163.588 127.261H132.003C131.359 127.261 130.837 127.783 130.837 128.427V128.428C130.837 129.073 131.359 129.595 132.003 129.595H163.588C164.233 129.595 164.755 129.073 164.755 128.428V128.427C164.755 127.783 164.233 127.261 163.588 127.261Z" fill="#F9623B"/>
<path d="M183.905 115.517L185.484 117.002L178.205 125.732L170.383 122.053L158.941 130.835L160.25 132.873L170.81 124.669L178.653 128.302L186.88 118.316L188.289 119.641L189.896 113.217L183.905 115.517Z" fill="#F9623B"/>
</svg>
