<svg width="147" height="179" viewBox="0 0 147 179" fill="none" xmlns="http://www.w3.org/2000/svg">
<path d="M77.9639 178.49C115.881 178.49 146.619 147.752 146.619 109.835C146.619 71.9177 115.881 41.1797 77.9639 41.1797C40.0466 41.1797 9.30859 71.9177 9.30859 109.835C9.30859 147.752 40.0466 178.49 77.9639 178.49Z" fill="#ECEDF2"/>
<path d="M77.319 111.34C77.319 115.581 73.8813 119.018 69.6406 119.018C73.8813 119.018 77.319 122.456 77.319 126.697C77.319 122.456 80.7567 119.018 84.9974 119.018C80.7567 119.018 77.319 115.581 77.319 111.34Z" fill="#ECEDF2"/>
<path d="M126.994 93.0635H31.1858C29.7348 93.0635 28.5585 94.2398 28.5585 95.6908V146.913C28.5585 148.364 29.7348 149.54 31.1858 149.54H126.994C128.445 149.54 129.621 148.364 129.621 146.913V95.6908C129.621 94.2398 128.445 93.0635 126.994 93.0635Z" fill="white"/>
<path d="M126.995 150.098H31.1857C29.4295 150.098 28 148.669 28 146.913V95.6896C28 93.9334 29.4295 92.5039 31.1857 92.5039H126.995C128.751 92.5039 130.181 93.9334 130.181 95.6896V146.913C130.181 148.669 128.751 150.098 126.995 150.098ZM31.1857 93.6221C30.0452 93.6221 29.1168 94.5505 29.1168 95.691V146.914C29.1168 148.055 30.0452 148.983 31.1857 148.983H126.995C128.136 148.983 129.064 148.055 129.064 146.914V95.691C129.064 94.5505 128.136 93.6221 126.995 93.6221H31.1857Z" fill="#DBDBDD"/>
<path d="M33.3998 135.725C33.3998 135.725 38.7159 122.722 51.7367 124.49C51.7367 124.49 62.4358 130.465 71.0479 124.323C79.6601 118.182 82.8444 117.628 91.6031 122.684C100.36 127.741 105.04 114.534 109.155 110.422C113.268 106.308 122.351 105.872 122.351 105.872V141.133C122.351 142.519 121.227 143.643 119.841 143.643H35.9085C34.5222 143.643 33.3984 142.519 33.3984 141.133V135.725H33.3998Z" fill="#F9623B"/>
<path d="M54.1476 98.6729H40.8113C39.496 98.6729 38.4297 99.7391 38.4297 101.054C38.4297 102.37 39.496 103.436 40.8113 103.436H54.1476C55.4629 103.436 56.5292 102.37 56.5292 101.054C56.5292 99.7391 55.4629 98.6729 54.1476 98.6729Z" fill="#ECEDF2"/>
<path d="M70.0973 98.6729H63.4285C62.1132 98.6729 61.0469 99.7391 61.0469 101.054C61.0469 102.37 62.1132 103.436 63.4285 103.436H70.0973C71.4127 103.436 72.479 102.37 72.479 101.054C72.479 99.7391 71.4127 98.6729 70.0973 98.6729Z" fill="#ECEDF2"/>
<path d="M80.6294 115.338H73.8642C73.0978 115.338 72.4766 115.959 72.4766 116.726C72.4766 117.492 73.0978 118.113 73.8642 118.113H80.6294C81.3958 118.113 82.017 117.492 82.017 116.726C82.017 115.959 81.3958 115.338 80.6294 115.338Z" fill="#1B369A"/>
<path d="M49.8403 118.527H43.0752C42.3088 118.527 41.6875 119.149 41.6875 119.915C41.6875 120.681 42.3088 121.303 43.0752 121.303H49.8403C50.6067 121.303 51.228 120.681 51.228 119.915C51.228 119.149 50.6067 118.527 49.8403 118.527Z" fill="#1B369A"/>
<path d="M108.75 104.484H101.985C101.219 104.484 100.598 105.106 100.598 105.872C100.598 106.638 101.219 107.26 101.985 107.26H108.75C109.517 107.26 110.138 106.638 110.138 105.872C110.138 105.106 109.517 104.484 108.75 104.484Z" fill="#1B369A"/>
<path d="M27.6958 41.3664L29.4464 43.0123L21.3718 52.698L12.6941 48.616L0 58.3589L1.45187 60.6218L13.1673 51.5197L21.8688 55.5487L30.996 44.4698L32.5596 45.9398L34.3423 38.8145L27.6958 41.3664Z" fill="#F9623B"/>
<path d="M59.0883 82.2021C59.4126 86.3301 59.882 90.0504 59.882 90.0504C59.882 90.0504 62.407 88.4165 63.2687 85.9672C63.4417 85.4761 63.834 84.8074 64.3498 84.0538L59.0883 82.2021Z" fill="#F9623B"/>
<path d="M84.035 90.9785C83.9655 91.8897 83.8527 92.6556 83.6798 93.1467C82.818 95.596 83.7632 98.4515 83.7632 98.4515C83.7632 98.4515 86.458 95.8447 89.2965 92.8302L84.035 90.9785Z" fill="#F9623B"/>
<path d="M70.4381 76.6763L72.6773 65.4229C72.6773 65.4229 60.3073 68.6397 59.1583 71.9044C58.5838 73.5367 58.7645 78.074 59.0904 82.2019L64.3519 84.0536C66.4089 81.0483 70.4381 76.6763 70.4381 76.6763Z" fill="white"/>
<path d="M64.3488 84.5015C64.2994 84.5015 64.2484 84.4938 64.2005 84.4768L58.939 82.6252C58.7722 82.5665 58.6548 82.4152 58.6409 82.2376C58.2054 76.6965 58.2363 73.1708 58.7336 71.7562C59.2633 70.2505 61.7018 68.7015 66.1896 67.0198C69.4111 65.8137 72.5321 64.9983 72.563 64.989C72.7128 64.9504 72.8703 64.9905 72.9831 65.0971C73.0958 65.2036 73.1452 65.3596 73.1143 65.5094L70.8751 76.7629C70.8596 76.8432 70.821 76.9189 70.7654 76.9791C70.7253 77.0224 66.7332 81.3619 64.7194 84.3054C64.6345 84.4305 64.4939 84.5 64.3503 84.5L64.3488 84.5015ZM59.5119 81.8777L64.1758 83.5194C66.1216 80.7566 69.4327 77.1104 70.0211 76.468L72.0951 66.0438C68.3269 67.0862 60.3999 69.7162 59.5783 72.0543C59.2695 72.9315 59.01 75.3499 59.5119 81.8777Z" fill="#DBDBDD"/>
<path d="M95.6901 84.7598C95.1156 86.3922 92.1335 89.8159 89.295 92.8305L87.9669 92.3641L84.032 90.9788C84.3099 87.3481 83.9069 81.4164 83.9069 81.4164L89.207 71.2393C89.207 71.2393 92.3481 75.4614 94.2971 79.3501C95.3858 81.5214 96.1009 83.5892 95.6901 84.7598Z" fill="white"/>
<path d="M89.2959 93.2784C89.2465 93.2784 89.1955 93.2707 89.1476 93.2537L83.8861 91.402C83.6946 91.3341 83.5726 91.1472 83.5881 90.9449C83.8614 87.3883 83.4661 81.506 83.463 81.4458C83.4568 81.3639 83.4753 81.2821 83.5124 81.2079L88.8125 71.0308C88.8835 70.8934 89.021 70.8038 89.1739 70.7915C89.3283 70.7791 89.4766 70.8471 89.5692 70.9706C89.6017 71.0139 92.7567 75.2685 94.6995 79.1478C96.06 81.8612 96.5233 83.7453 96.1141 84.9066C95.6168 86.3197 93.4331 89.0886 89.6233 93.1363C89.5368 93.2274 89.4179 93.2769 89.2974 93.2769L89.2959 93.2784ZM84.5054 90.67L89.1708 92.3117C93.6493 87.5366 94.9605 85.4888 95.2693 84.6116C95.4886 83.9877 95.43 82.604 93.8995 79.5509C92.4123 76.5812 90.1916 73.3751 89.2727 72.0887L84.3649 81.5122C84.4205 82.3816 84.72 87.2972 84.5054 90.67Z" fill="#DBDBDD"/>
<path d="M90.9017 42.4773C89.3681 41.9383 84.6193 44.5066 79.957 48.7751L94.6297 53.9377C94.0783 47.8346 92.4352 43.0163 90.9017 42.4773Z" fill="#1B369A"/>
<path d="M92.9532 70.378C91.2019 75.3522 88.6198 79.5698 85.7427 82.5473L82.7359 81.4894L68.3011 76.4101C67.9227 72.2852 68.5497 67.3804 70.2994 62.4062C72.1264 57.2141 76.0104 52.385 79.9561 48.7744L92.0775 53.0383L94.6287 53.9355C95.0951 59.0998 94.7786 65.1844 92.9516 70.3764L92.9532 70.378Z" fill="white"/>
<path d="M85.7439 82.9949C85.6945 82.9949 85.6436 82.9872 85.5957 82.9702L68.1525 76.833C67.9873 76.7743 67.8715 76.6261 67.856 76.4516C67.4607 72.1306 68.1788 67.0899 69.8791 62.2577C72.0751 56.014 76.9475 50.9239 79.6562 48.4437C79.7782 48.3325 79.9512 48.297 80.1072 48.351L94.7813 53.5137C94.9466 53.5724 95.0624 53.7206 95.0794 53.8952C95.396 57.4008 95.5967 64.2221 93.3791 70.5245C91.6788 75.3566 89.0828 79.7364 86.0683 82.8574C85.9818 82.947 85.8659 82.9949 85.7455 82.9949H85.7439ZM68.7224 76.084L85.6189 82.0297C88.4604 79.0136 90.9097 74.8362 92.5313 70.2295C94.6331 64.2529 94.5034 57.7714 94.2099 54.2643L80.0624 49.2869C77.383 51.7702 72.8025 56.6441 70.7223 62.5557C69.1008 67.1625 68.3934 71.9545 68.7224 76.0856V76.084Z" fill="#DBDBDD"/>
<path d="M82.5454 58.36C83.4751 56.242 83.0696 54.0162 81.6397 53.3885C80.2097 52.7608 78.2968 53.9689 77.367 56.0869C76.4373 58.2049 76.8428 60.4307 78.2728 61.0584C79.7027 61.6862 81.6157 60.478 82.5454 58.36Z" fill="#F9623B"/>
<path d="M68.2969 76.4102C68.4791 78.3962 68.893 80.2015 69.5277 81.7458L81.4391 85.9371C82.9 85.131 84.3548 83.9835 85.74 82.5473L68.2969 76.4102Z" fill="#1B369A"/>
<path d="M64.4609 95.359C66.8624 93.8826 70.9471 84.6537 70.9471 84.6537L69.3611 84.0098C69.3611 84.0098 64.566 93.6757 64.4609 95.359Z" fill="#ECEDF2"/>
<path d="M80.8122 88.0389L79.1722 87.5479C79.1722 87.5479 76.5777 97.3003 77.5244 99.955C78.4973 98.5774 80.8107 88.0374 80.8107 88.0374L80.8122 88.0389Z" fill="#ECEDF2"/>
<path d="M72.9654 85.5557C72.9654 85.5557 69.015 96.7814 70.669 98.5095L70.7076 98.5234C73.0797 98.2114 77.0285 86.9857 77.0285 86.9857L72.9654 85.5557Z" fill="#ECEDF2"/>
<path d="M92.9516 70.3787C91.2004 75.353 88.6182 79.5706 85.7412 82.548L82.7344 81.4902C84.3853 79.6385 86.2709 77.0286 88.0716 73.4272C91.7085 66.1519 92.0992 57.0095 92.076 53.0391L94.6272 53.9363C95.0936 59.1005 94.777 65.1852 92.9501 70.3772L92.9516 70.3787Z" fill="#DBDBDD"/>
<path d="M95.688 84.7594C95.1135 86.3917 92.1314 89.8155 89.293 92.83L87.9648 92.3636C91.1307 89.8078 93.3437 82.8614 94.295 79.3496C95.3838 81.5209 96.0988 83.5888 95.688 84.7594Z" fill="#DBDBDD"/>
<path d="M119.969 72.7446C127.915 72.7446 134.356 66.3033 134.356 58.3576C134.356 50.412 127.915 43.9707 119.969 43.9707C112.023 43.9707 105.582 50.412 105.582 58.3576C105.582 66.3033 112.023 72.7446 119.969 72.7446Z" fill="#DBDBDD"/>
<path d="M126.448 62.3902V66.5753H113.496V62.3902C113.496 59.6737 115.698 57.4715 118.415 57.4715H118.748C117.243 56.982 116.154 55.5658 116.154 53.898C116.154 51.8239 117.836 50.1406 119.911 50.1406C121.987 50.1406 123.669 51.8224 123.669 53.898C123.669 55.5658 122.58 56.982 121.074 57.4715H121.53C124.246 57.4715 126.448 59.6737 126.448 62.3902Z" fill="white"/>
<path d="M1.9375 10.7229V12.9747C1.9375 18.898 6.73844 23.699 12.6618 23.699H26.3038C27.8799 25.3658 31.7106 27.7237 39.8188 25.1341C37.9858 24.0759 36.3678 21.8688 35.3445 20.2271C37.0979 18.3187 38.1686 15.7723 38.1686 12.9747V10.7229C38.1686 4.80094 33.3677 0 27.4443 0H12.6618C6.73844 0 1.9375 4.80094 1.9375 10.7229Z" fill="#F9623B"/>
<path d="M11.7597 13.367C12.8437 13.367 13.7225 12.4883 13.7225 11.4042C13.7225 10.3202 12.8437 9.44141 11.7597 9.44141C10.6757 9.44141 9.79688 10.3202 9.79688 11.4042C9.79688 12.4883 10.6757 13.367 11.7597 13.367Z" fill="white"/>
<path d="M22.0722 13.367C23.1562 13.367 24.035 12.4883 24.035 11.4042C24.035 10.3202 23.1562 9.44141 22.0722 9.44141C20.9882 9.44141 20.1094 10.3202 20.1094 11.4042C20.1094 12.4883 20.9882 13.367 22.0722 13.367Z" fill="white"/>
<path d="M32.3808 13.367C33.4648 13.367 34.3436 12.4883 34.3436 11.4042C34.3436 10.3202 33.4648 9.44141 32.3808 9.44141C31.2968 9.44141 30.418 10.3202 30.418 11.4042C30.418 12.4883 31.2968 13.367 32.3808 13.367Z" fill="white"/>
<path d="M69.0038 49.5424C68.5899 49.5424 68.1745 49.5347 67.7683 49.5208L67.7992 48.6266C68.1946 48.6405 68.6007 48.6467 69.0038 48.6467V49.5424ZM65.9584 49.4096C65.3515 49.3556 64.7446 49.283 64.1562 49.1949L64.289 48.31C64.8588 48.395 65.4472 48.466 66.0372 48.5185L65.9568 49.4096H65.9584ZM62.3694 48.8691C61.7733 48.7409 61.1802 48.5911 60.6058 48.4243L60.8544 47.5641C61.4088 47.7247 61.9818 47.8684 62.5578 47.9935L62.3694 48.8691ZM58.8761 47.856C58.3047 47.6444 57.7379 47.4097 57.1928 47.158L57.5681 46.3441C58.0932 46.585 58.6368 46.812 59.1881 47.0159L58.8777 47.856H58.8761ZM55.5682 46.3302C55.0385 46.0322 54.5165 45.7109 54.0146 45.3727L54.5149 44.6299C54.9968 44.9542 55.4987 45.2631 56.0068 45.5488L55.5682 46.3302ZM52.5444 44.2917C52.0718 43.9134 51.6085 43.5103 51.1668 43.0933L51.7815 42.4416C52.2062 42.8416 52.6509 43.2292 53.1034 43.5921L52.5444 44.2917ZM49.8912 41.7868C49.4882 41.3405 49.0944 40.8679 48.7222 40.3846L49.431 39.8379C49.7893 40.3027 50.1677 40.7568 50.5553 41.1861L49.8912 41.7868ZM47.6628 38.8989C47.3323 38.3955 47.0126 37.8719 46.7161 37.3392L47.4975 36.9021C47.7848 37.4148 48.0921 37.9214 48.4118 38.4063L47.6643 38.8989H47.6628ZM45.8806 35.7176C45.6212 35.1678 45.3803 34.6042 45.161 34.0405L45.9949 33.7162C46.2065 34.2598 46.4397 34.8049 46.6899 35.3362L45.8791 35.7176H45.8806ZM44.5602 32.3139C44.2251 31.219 44.1062 30.5426 44.1016 30.5132L44.9834 30.3604C44.9834 30.3604 45.0992 31.0167 45.4173 32.0514L44.5618 32.3139H44.5602Z" fill="#323F8B"/>
<path d="M125.302 44.5695C124.964 44.0753 124.612 43.5981 124.26 43.1549L124.961 42.5974C125.327 43.0576 125.691 43.5518 126.042 44.0629L125.304 44.5695H125.302ZM123.114 41.8283C122.706 41.3943 122.285 40.9866 121.86 40.6144L122.45 39.9411C122.896 40.3318 123.339 40.7612 123.767 41.2152L123.116 41.8283H123.114ZM120.49 39.5442C120.007 39.2091 119.508 38.9095 119.008 38.6516L119.418 37.8563C119.953 38.1327 120.486 38.4524 121.001 38.8091L120.492 39.5458L120.49 39.5442ZM109.067 38.4153L108.633 37.6324C108.659 37.6169 109.308 37.2617 110.395 36.9467L110.644 37.8069C109.661 38.091 109.073 38.4122 109.067 38.4153ZM117.422 37.9721C116.876 37.7837 116.317 37.637 115.757 37.5366L115.916 36.6548C116.52 36.7644 117.125 36.922 117.712 37.1243L117.42 37.9706L117.422 37.9721ZM112.328 37.4548L112.213 36.5668C112.733 36.4988 113.263 36.4648 113.785 36.4648C113.877 36.4648 113.972 36.4648 114.066 36.4679L114.044 37.3636C113.956 37.3621 113.87 37.3606 113.783 37.3606C113.3 37.3606 112.81 37.393 112.327 37.4563L112.328 37.4548Z" fill="#323F8B"/>
</svg>
