<svg width="24" height="25" viewBox="0 0 24 25" fill="none" xmlns="http://www.w3.org/2000/svg">
<path d="M17.25 12.7822L17.25 12.779C17.2456 12.2793 17.0561 11.7988 16.7183 11.4422C16.7182 11.442 16.718 11.4419 16.7179 11.4417L13.3479 7.85655L13.3472 7.8558C13.1544 7.65241 12.8903 7.53528 12.6118 7.53528C12.3332 7.53528 12.0692 7.65241 11.8764 7.8558L12.0579 8.02778L11.8766 7.8556C11.7803 7.957 11.7046 8.07683 11.6532 8.20781L11.8799 8.29684L11.6532 8.20782C11.6017 8.33879 11.5754 8.47879 11.5754 8.61987C11.5754 8.76096 11.6017 8.90096 11.6532 9.03193L11.8859 8.94058L11.6532 9.03193C11.7045 9.16282 11.7802 9.28256 11.8764 9.38391C11.8764 9.38399 11.8765 9.38407 11.8766 9.38415L14.0626 11.6973H6.78571C6.50606 11.6973 6.2411 11.8153 6.04817 12.0201C5.85572 12.2243 5.75 12.4984 5.75 12.7812C5.75 13.064 5.85572 13.3381 6.04817 13.5423C6.2411 13.7471 6.50606 13.8651 6.78571 13.8651H14.0638L11.8765 16.1867C11.8764 16.1869 11.8762 16.187 11.8761 16.1871C11.6831 16.3908 11.5766 16.6643 11.5756 16.9471C11.5747 17.23 11.6795 17.5046 11.8714 17.7096C12.0637 17.9151 12.3283 18.0342 12.6081 18.0353C12.8878 18.0363 13.1533 17.9192 13.3471 17.715L13.3479 17.7142L16.7179 14.129C16.718 14.1289 16.7181 14.1287 16.7183 14.1286C17.0583 13.7696 17.248 13.2852 17.25 12.7822Z" fill="#F9FAFB" stroke="#1B369A" stroke-width="0.5"/>
</svg>
