<svg width="13" viewBox="0 0 13 12" fill="none" preserveAspectRatio="xMidYMid meet" xmlns="http://www.w3.org/2000/svg">
<path d="M0.749981 6.00308L0.750009 6.00625C0.754364 6.50594 0.943869 6.98647 1.28169 7.3431C1.28184 7.34326 1.28199 7.34341 1.28213 7.34357L4.65213 10.9287L4.65284 10.9295C4.84561 11.1329 5.10965 11.25 5.38821 11.25C5.66678 11.25 5.93082 11.1329 6.12359 10.9295L5.94214 10.7575L6.1234 10.9297C6.21972 10.8283 6.29543 10.7085 6.34684 10.5775L6.12005 10.4884L6.34684 10.5775C6.39825 10.4465 6.42456 10.3065 6.42456 10.1654C6.42456 10.0243 6.39825 9.88432 6.34684 9.75335L6.11413 9.84469L6.34684 9.75335C6.29547 9.62246 6.21984 9.50272 6.12363 9.40137C6.12355 9.40129 6.12347 9.40121 6.1234 9.40113L3.93738 7.08801L11.2143 7.08801C11.4939 7.08801 11.7589 6.96996 11.9518 6.76519C12.1443 6.56093 12.25 6.28691 12.25 6.00407C12.25 5.72124 12.1443 5.44722 11.9518 5.24296C11.7589 5.03819 11.4939 4.92014 11.2143 4.92014L3.93617 4.92014L6.1235 2.59858C6.12364 2.59843 6.12378 2.59828 6.12392 2.59813C6.3169 2.39452 6.42342 2.12094 6.42436 1.83819C6.42531 1.55523 6.32046 1.28072 6.12863 1.07568C5.93634 0.870143 5.6717 0.751056 5.39193 0.750007C5.11215 0.748958 4.84666 0.866066 4.65293 1.07023L4.65213 1.07109L1.28212 4.65625C1.28199 4.65639 1.28185 4.65654 1.28171 4.65668C0.941676 5.01567 0.752 5.50009 0.749981 6.00308Z" fill="currentColor" stroke="transparent" stroke-width="0.5"/>
</svg>
