<svg width="41" viewBox="0 0 41 40" fill="none" preserveAspectRatio="xMidYMid meet" xmlns="http://www.w3.org/2000/svg">
<path d="M19.8339 2.98132C11.3776 2.98132 4.6089 10.1133 5.11632 18.6101C5.73976 29.0703 16.8408 35.5355 26.2363 31.0046C31.1689 28.6171 34.5789 23.5612 34.5789 17.7236C34.5788 9.59468 27.9643 2.98132 19.8339 2.98132ZM19.8339 30.0139C13.0584 30.0139 7.54624 24.5005 7.54624 17.7236C7.54624 10.913 12.9651 9.05984 19.775 9.05984C26.5533 9.05984 32.1216 10.8923 32.1216 17.7236C32.1216 24.5005 26.6094 30.0139 19.8339 30.0139Z" fill="currentColor"/>
<path d="M9.91164 29.6632H6.78586C13.7987 37.3268 25.872 37.3236 32.882 29.6632H29.7562C24.0553 34.4104 15.6802 34.467 9.91164 29.6632Z" fill="currentColor"/>
<path d="M19.775 9.84106C13.433 9.84106 8.32748 11.4015 8.32748 17.7236C8.32748 24.0697 13.4892 29.2326 19.8339 29.2326C26.1786 29.2326 31.3404 24.0697 31.3404 17.7236C31.3404 12.3458 27.6654 9.84106 19.775 9.84106ZM28.9286 19.5871C28.8908 19.772 28.728 19.8994 28.5463 19.8994C28.2982 19.8994 28.1137 19.672 28.1632 19.4304C28.2769 18.875 28.3345 18.3015 28.3345 17.7262C28.3345 15.2275 27.3558 13.7803 23.672 13.1409C23.4594 13.104 23.3171 12.9018 23.354 12.6893C23.3908 12.4768 23.5933 12.3342 23.8056 12.3712C25.7148 12.7026 27.1055 13.3111 27.939 14.1799C28.7305 14.9988 29.1158 16.1592 29.1158 17.7263C29.1158 18.3541 29.0529 18.9802 28.9286 19.5871Z" fill="currentColor"/>
<path d="M5.17959 35.2511C4.63451 35.2511 4.19107 35.6946 4.19107 36.2397C4.19107 36.7848 4.63451 37.2282 5.17959 37.2282C5.72474 37.2282 6.16818 36.7848 6.16818 36.2397C6.16818 35.6946 5.72466 35.2511 5.17959 35.2511Z" fill="currentColor"/>
<path d="M4.49319 15.3246C3.67312 15.4261 3.03616 16.1283 3.03616 16.9768V18.4729C3.03616 19.3213 3.67296 20.0236 4.49288 20.1252C4.2546 18.5903 4.23937 16.9536 4.49319 15.3246Z" fill="currentColor"/>
<path d="M35.2204 15.3246C35.4588 16.8602 35.4755 18.4822 35.2204 20.1253C36.0419 20.0237 36.6799 19.3215 36.6799 18.4729V16.9768C36.6799 16.1283 36.0419 15.4261 35.2204 15.3246Z" fill="currentColor"/>
<path d="M36.7084 2.77161C36.0161 2.77161 35.4529 3.33481 35.4529 4.02708C35.4529 4.71934 36.0161 5.28254 36.7084 5.28254C37.4006 5.28254 37.9638 4.71934 37.9638 4.02708C37.9638 3.33481 37.4006 2.77161 36.7084 2.77161Z" fill="currentColor"/>
<path d="M35.7411 36.2398C36.116 36.2398 36.42 35.9358 36.42 35.5609C36.42 35.1859 36.116 34.882 35.7411 34.882C35.3661 34.882 35.0622 35.1859 35.0622 35.5609C35.0622 35.9358 35.3661 36.2398 35.7411 36.2398Z" fill="currentColor"/>
<path d="M5.68132 5.38491C6.05627 5.38491 6.36022 5.08096 6.36022 4.70601C6.36022 4.33106 6.05627 4.0271 5.68132 4.0271C5.30637 4.0271 5.00241 4.33106 5.00241 4.70601C5.00241 5.08096 5.30637 5.38491 5.68132 5.38491Z" fill="currentColor"/>
</svg>
