<svg width="17" viewBox="0 0 17 17" fill="none" preserveAspectRatio="xMidYMid meet" xmlns="http://www.w3.org/2000/svg">
<g clip-path="url(#clip0_3757_99552)">
<path d="M15.5195 3.81885H14.1133V2.4126C14.1133 2.15372 13.9034 1.94385 13.6445 1.94385H12.2383V0.490723C12.2383 0.231848 12.0284 0.0219727 11.7695 0.0219727H2.39453C2.13566 0.0219727 1.92578 0.231848 1.92578 0.490723V11.7876C1.92578 12.0465 2.13566 12.2563 2.39453 12.2563H3.80078V13.6626C3.80078 13.9215 4.01066 14.1313 4.26953 14.1313H5.67578V15.5532C5.67578 15.8121 5.88566 16.022 6.14453 16.022H15.5195C15.7784 16.022 15.9883 15.8121 15.9883 15.5532V4.2876C15.9883 4.02872 15.7784 3.81885 15.5195 3.81885ZM2.86328 11.3188V0.959473H11.3008V1.94385H4.26953C4.01066 1.94385 3.80078 2.15372 3.80078 2.4126V11.3188H2.86328ZM4.73828 13.1938V2.88135H13.1758V3.81885H6.14453C5.88566 3.81885 5.67578 4.02872 5.67578 4.2876V13.1938H4.73828ZM15.0508 15.0845H6.61328V4.75635H15.0508V15.0845Z" fill="currentColor"/>
<path d="M8.01953 5.69385C7.76066 5.69385 7.55078 5.90372 7.55078 6.1626V11.7876C7.55078 12.0465 7.76066 12.2563 8.01953 12.2563H13.6445C13.9034 12.2563 14.1133 12.0465 14.1133 11.7876V6.1626C14.1133 5.90372 13.9034 5.69385 13.6445 5.69385H8.01953ZM8.48828 8.50635H13.1758V9.44385H8.48828V8.50635ZM13.1758 6.63135V7.56885H8.48828V6.63135H13.1758ZM8.48828 11.3188V10.3813H13.1758V11.3188H8.48828Z" fill="currentColor"/>
<path d="M8.01953 14.1313C8.27841 14.1313 8.48828 13.9215 8.48828 13.6626C8.48828 13.4037 8.27841 13.1938 8.01953 13.1938C7.76065 13.1938 7.55078 13.4037 7.55078 13.6626C7.55078 13.9215 7.76065 14.1313 8.01953 14.1313Z" fill="currentColor"/>
<path d="M13.6445 13.1938H9.89453C9.63566 13.1938 9.42578 13.4037 9.42578 13.6626C9.42578 13.9215 9.63566 14.1313 9.89453 14.1313H13.6445C13.9034 14.1313 14.1133 13.9215 14.1133 13.6626C14.1133 13.4037 13.9034 13.1938 13.6445 13.1938Z" fill="currentColor"/>
</g>
<defs>
<clipPath id="clip0_3757_99552">
<rect width="16" height="16" fill="currentColor" transform="translate(0.957031 0.0219727)"/>
</clipPath>
</defs>
</svg>
