<svg width="20" viewBox="0 0 20 21" fill="none" preserveAspectRatio="xMidYMid meet" xmlns="http://www.w3.org/2000/svg">
<g clip-path="url(#clip0_1854_52671)">
<path d="M14.1667 9.12142C10.9508 9.12142 8.33333 11.7381 8.33333 14.9548C8.33333 18.1714 10.9508 20.7881 14.1667 20.7881C17.3825 20.7881 20 18.1714 20 14.9548C20 11.7381 17.3825 9.12142 14.1667 9.12142ZM14.1667 19.1214C11.8692 19.1214 10 17.2523 10 14.9548C10 12.6573 11.8692 10.7881 14.1667 10.7881C16.4642 10.7881 18.3333 12.6573 18.3333 14.9548C18.3333 17.2523 16.4642 19.1214 14.1667 19.1214ZM15 14.6098L16.4225 16.0323L15.2442 17.2106L13.3333 15.2998V12.4548H15V14.6098ZM20 4.95475V10.2456C19.5258 9.65892 18.9608 9.15225 18.3333 8.73059V4.95475C18.3333 4.49559 17.96 4.12142 17.5 4.12142H2.5C2.04083 4.12142 1.66667 4.49559 1.66667 4.95475V7.45475H14.1667C12.3817 7.45475 10.745 8.08059 9.4575 9.12142H1.66667V19.1214H7.93167C8.35333 19.7514 8.86917 20.3123 9.4575 20.7881H0V4.95475C0 3.57642 1.12167 2.45475 2.5 2.45475H5V0.788086H6.66667V2.45475H13.3333V0.788086H15V2.45475H17.5C18.8783 2.45475 20 3.57642 20 4.95475Z" fill="currentColor"/>
</g>
<defs>
<clipPath id="clip0_1854_52671">
<rect width="20" height="20" fill="white" transform="translate(0 0.788086)"/>
</clipPath>
</defs>
</svg>
