<svg width="24" height="24" viewBox="0 0 24 24" fill="none" xmlns="http://www.w3.org/2000/svg">
<g clip-path="url(#clip0_2743_89032)">
<path d="M22.3555 21.7109H21.4661V12.8528C22.3536 12.5774 23 11.7486 23 10.7718C23 9.57059 22.0228 8.59339 20.8216 8.59339C19.6205 8.59339 18.6432 9.57063 18.6432 10.7718C18.6432 11.0195 18.6848 11.2577 18.7613 11.4798L14.9982 14.2312C14.658 14.0112 14.2528 13.8833 13.8183 13.8833C13.1784 13.8833 12.602 14.1606 12.2032 14.6014L9.88968 13.5275C9.90248 13.4321 9.9091 13.3348 9.9091 13.236C9.9091 12.0348 8.93186 11.0576 7.73071 11.0576C6.68889 11.0576 5.81551 11.7927 5.60212 12.7715L2.28906 14.0224V1.64453C2.28906 1.28858 2.00048 1 1.64453 1C1.28858 1 1 1.28858 1 1.64453V20.1501C1 21.7216 2.27849 23 3.84995 23H22.3555C22.7114 23 23 22.7114 23 22.3555C23 21.9995 22.7114 21.7109 22.3555 21.7109ZM14.4628 18.1427C15.3503 17.8673 15.9966 17.0385 15.9966 16.0616C15.9966 15.7639 15.9366 15.48 15.828 15.2213L19.5229 12.5197C19.7184 12.6653 19.939 12.779 20.177 12.8528V21.7109H14.4628V18.1427ZM20.8216 9.88241C21.312 9.88241 21.7109 10.2814 21.7109 10.7717C21.7109 11.2621 21.312 11.6611 20.8216 11.6611C20.3313 11.6611 19.9323 11.2621 19.9323 10.7717C19.9323 10.2814 20.3313 9.88241 20.8216 9.88241ZM13.8182 15.1723C14.3086 15.1723 14.7075 15.5713 14.7075 16.0616C14.7075 16.552 14.3086 16.951 13.8182 16.951C13.3279 16.951 12.9289 16.552 12.9289 16.0616C12.9289 15.5712 13.3279 15.1723 13.8182 15.1723ZM11.6593 15.7701C11.6465 15.8655 11.6399 15.9628 11.6399 16.0617C11.6399 17.0386 12.2863 17.8673 13.1737 18.1428V21.7109H8.37524V15.317C8.75281 15.1998 9.08676 14.9825 9.34582 14.6962L11.6593 15.7701ZM7.73071 12.3465C8.22107 12.3465 8.62004 12.7455 8.62004 13.2359C8.62004 13.7262 8.22107 14.1252 7.73071 14.1252C7.24035 14.1252 6.84139 13.7263 6.84139 13.2359C6.84139 12.7455 7.24031 12.3465 7.73071 12.3465ZM2.28906 20.1501V15.4002L5.73129 14.1006C5.98244 14.6791 6.47761 15.1282 7.08614 15.317V21.7109H3.84995C2.98928 21.7109 2.28906 21.0108 2.28906 20.1501Z" fill="#101828"/>
<path d="M7.74418 6.87683L4.23522 8.83599C3.92443 9.00963 3.53182 8.8983 3.35827 8.58746C3.18472 8.27667 3.29601 7.88406 3.6068 7.71051L7.41675 5.58326C7.60483 5.47828 7.83286 5.47416 8.02468 5.5723L13.7619 8.50943L20.0002 4C20.5002 3.49995 21.0002 4 21.0002 4C21.0002 4 21.5002 4.49995 21.0037 4.73974L14.1948 9.78582C14.0831 9.86612 13.9511 9.90703 13.8185 9.90703C13.7182 9.90703 13.6174 9.88366 13.5248 9.83622L7.74418 6.87683Z" fill="#F9623B"/>
</g>
<defs>
<clipPath id="clip0_2743_89032">
<rect width="22" height="22" fill="white" transform="translate(1 1)"/>
</clipPath>
</defs>
</svg>
