<svg width="25" height="24" viewBox="0 0 25 24" fill="none" xmlns="http://www.w3.org/2000/svg">
<g clip-path="url(#clip0_2743_89041)">
<path d="M5.7793 6.72968H9.44555V8.26901H5.7793V6.72968Z" fill="#101828"/>
<path d="M5.7793 10.23H9.44555V11.7694H5.7793V10.23Z" fill="#101828"/>
<path d="M5.7793 13.7303H9.44555V15.2697H5.7793V13.7303Z" fill="#101828"/>
<path d="M5.7793 17.2307H9.44555V18.77H5.7793V17.2307Z" fill="#101828"/>
<path d="M13.1932 20.8197V8.24193L21.2312 8.23255V16.7176H22.7696V7.46198C22.7696 7.04208 22.4188 6.69229 21.9995 6.69229L12.4231 6.70347C11.9986 6.70398 11.6547 7.04839 11.6547 7.47316V20.8197H3.56962V5.58916L11.6547 3.41414V5.16157H13.1932V2.41019C13.1932 1.91224 12.7055 1.53747 12.2242 1.6669L2.60065 4.25578C2.2647 4.34619 2.03116 4.65096 2.03116 4.99906V20.8197H0.400391V22.3591H24.4004V20.8197H13.1932Z" fill="#101828"/>
<path d="M21.2314 18.1031H22.7699V19.537H21.2314V18.1031Z" fill="#1B369A"/>
<path d="M15.3555 10.23H19.0217V11.7694H15.3555V10.23Z" fill="#101828"/>
<path d="M15.3555 13.7303H19.0217V15.2697H15.3555V13.7303Z" fill="#101828"/>
<path d="M15.3555 17.2307H19.0217V18.77H15.3555V17.2307Z" fill="#101828"/>
</g>
<defs>
<clipPath id="clip0_2743_89041">
<rect width="24" height="24" fill="white" transform="translate(0.400391)"/>
</clipPath>
</defs>
</svg>
