<svg width="24" height="24" viewBox="0 0 24 24" fill="none" xmlns="http://www.w3.org/2000/svg">
    <g clip-path="url(#csfimhcvta)">
        <g clip-path="url(#jnytnfa54b)" fill="#fff">
            <path d="M19.298 16.215c.449-.45.702-1.059.705-1.695V9.488a2.415 2.415 0 0 0-1.482-2.217 2.385 2.385 0 0 0-.918-.183H6.398a2.385 2.385 0 0 0-1.695.705 2.415 2.415 0 0 0-.705 1.695v5.032a2.415 2.415 0 0 0 1.482 2.218c.29.12.603.183.918.182h11.205a2.385 2.385 0 0 0 1.695-.705zm-13.5-1.132a.803.803 0 0 1-.232-.563V9.488a.803.803 0 0 1 .802-.803h11.235a.802.802 0 0 1 .802.803v5.032a.802.802 0 0 1-.802.803H6.398a.81.81 0 0 1-.562-.24h-.038z"/>
            <path d="M12 9.397a2.602 2.602 0 1 0 0 5.205 2.602 2.602 0 0 0 0-5.205zm0 3.6a.997.997 0 1 1 .001-1.994.997.997 0 0 1 0 1.995z"/>
            <path d="M12 0a12 12 0 0 0-8.917 20.003h-.285a.803.803 0 1 0 0 1.597h2.25a.84.84 0 0 0 .803-.802v-2.25a.802.802 0 1 0-1.598 0v.382a10.305 10.305 0 1 1 4.748 3.038.803.803 0 0 0-.458 1.5A12 12 0 1 0 12.001 0z"/>
        </g>
    </g>
    <defs>
        <clipPath id="csfimhcvta">
            <path fill="#fff" d="M0 0h24v24H0z"/>
        </clipPath>
        <clipPath id="jnytnfa54b">
            <path fill="#fff" d="M0 0h24v24H0z"/>
        </clipPath>
    </defs>
</svg>
