<svg width="16" height="16" viewBox="0 0 16 16" fill="none" xmlns="http://www.w3.org/2000/svg">
<g clip-path="url(#clip0_2904_38074)">
<rect width="16" height="16" transform="translate(16 16) rotate(-180)" fill="white"/>
<path d="M8 0C3.58171 0 0 3.58171 0 8C0 12.4182 3.58171 16 8 16C12.4183 16 16 12.4182 16 8C16 3.58171 12.4183 0 8 0ZM10.4378 8.54181C10.3988 8.5808 10.356 8.61376 10.3115 8.6424L7.30907 11.6448C7.16325 11.7907 6.97211 11.8636 6.78096 11.8636C6.58981 11.8636 6.39877 11.7907 6.25285 11.6448C5.96112 11.3531 5.96112 10.88 6.25285 10.5884L7.54643 9.29461L8.84 8.00085L6.26587 5.42672C5.97413 5.13483 5.97413 4.66192 6.26587 4.37029C6.5576 4.07856 7.03056 4.07872 7.32229 4.37013L10.3114 7.35909C10.3559 7.38773 10.3987 7.42064 10.4375 7.45968C10.5867 7.6088 10.6586 7.80523 10.6553 8.0008C10.6588 8.19627 10.587 8.39259 10.4378 8.54181Z" fill="#F9623B"/>
</g>
<defs>
<clipPath id="clip0_2904_38074">
<rect width="16" height="16" fill="white" transform="translate(16 16) rotate(-180)"/>
</clipPath>
</defs>
</svg>
