<svg width="32" height="32" viewBox="0 0 32 32" fill="none" xmlns="http://www.w3.org/2000/svg">
    <circle cx="16" cy="16" r="16" fill="#D0D5DD"/>
    <path d="m8.627 21.403 6.391 3.69c.536.306 1.407.306 1.942 0l6.391-3.69c.536-.307.969-1.067.969-1.681v-7.379c0-.614-.438-1.374-.969-1.681l-6.39-3.69c-.536-.307-1.407-.307-1.943 0l-6.39 3.69c-.536.307-.97 1.066-.97 1.681v7.378c0 .615.438 1.375.97 1.682zm2.213-2.78c.512 0 .838-.103 1.025-.523l3.311-7.438a.89.89 0 0 1 1.626 0l3.312 7.438c.186.42.512.522 1.024.522h.816c0 .89-.103 1.78-1.388 1.78h-.499c-.731 0-1.113-.522-1.355-1.072l-2.72-6.125-2.725 6.12c-.247.555-.625 1.072-1.36 1.072h-.499c-1.28 0-1.388-.89-1.388-1.78h.82v.005z" fill="url(#4rhxa7d4ua)"/>
    <defs>
        <linearGradient id="4rhxa7d4ua" x1="20.561" y1="14.799" x2="9.193" y2="17.864" gradientUnits="userSpaceOnUse">
            <stop stop-color="#1B369A"/>
            <stop offset="1" stop-color="#008BC6"/>
        </linearGradient>
    </defs>
</svg>
