<svg width="24" height="24" viewBox="0 0 24 24" fill="none" xmlns="http://www.w3.org/2000/svg">
    <g clip-path="url(#73lzaoyi9a)" fill="#000">
        <path d="M14.813 24H5.437A4.693 4.693 0 0 1 .75 19.312V4.688A4.693 4.693 0 0 1 5.438 0h6.017a.938.938 0 0 1 0 1.875H5.437a2.816 2.816 0 0 0-2.812 2.813v14.625a2.816 2.816 0 0 0 2.813 2.812h9.375a2.816 2.816 0 0 0 2.812-2.813v-5.25a.937.937 0 1 1 1.875 0v5.25A4.693 4.693 0 0 1 14.812 24z"/>
        <path d="M9.188 7.5h-3.75a.937.937 0 1 1 0-1.875h3.75a.937.937 0 1 1 0 1.875zM9.188 11.25h-3.75a.937.937 0 1 1 0-1.875h3.75a.937.937 0 1 1 0 1.875zM11.063 20.25a.934.934 0 0 1-.663-.275L8.525 18.1a.938.938 0 0 1 1.325-1.325l1.213 1.212L14.15 14.9a.937.937 0 0 1 1.325 1.325l-3.75 3.75a.934.934 0 0 1-.662.275zM18.563 11.25a.937.937 0 0 1-.417-.098 7.66 7.66 0 0 1-3.122-2.851 7.747 7.747 0 0 1-1.149-4.064V2.813c0-.231.086-.455.24-.627C14.197 2.096 16.112 0 18.563 0c2.452 0 4.367 2.096 4.447 2.185.155.172.241.396.241.627v1.425a7.747 7.747 0 0 1-1.15 4.064 7.66 7.66 0 0 1-3.121 2.851.937.937 0 0 1-.416.098zM15.75 3.204v1.033a5.887 5.887 0 0 0 2.813 5.007 5.887 5.887 0 0 0 2.812-5.006V3.204c-.476-.439-1.593-1.329-2.813-1.329-1.214 0-2.336.892-2.812 1.33z"/>
    </g>
    <defs>
        <clipPath id="73lzaoyi9a">
            <path fill="#fff" d="M0 0h24v24H0z"/>
        </clipPath>
    </defs>
</svg>
