<svg width="14" viewBox="0 0 14 17" fill="none" preserveAspectRatio="xMidYMid meet" xmlns="http://www.w3.org/2000/svg">
<path d="M8.71875 16.9915H2.75C1.37146 16.9915 0.25 15.87 0.25 14.4915V6.02271C0.25 4.64417 1.37146 3.52271 2.75 3.52271H8.71875C10.0973 3.52271 11.2188 4.64417 11.2188 6.02271V14.4915C11.2188 15.87 10.0973 16.9915 8.71875 16.9915ZM2.75 4.77271C2.06079 4.77271 1.5 5.3335 1.5 6.02271V14.4915C1.5 15.1807 2.06079 15.7415 2.75 15.7415H8.71875C9.40796 15.7415 9.96875 15.1807 9.96875 14.4915V6.02271C9.96875 5.3335 9.40796 4.77271 8.71875 4.77271H2.75ZM13.7188 12.929V3.49146C13.7188 2.11292 12.5973 0.991455 11.2188 0.991455H4.28125C3.93604 0.991455 3.65625 1.27124 3.65625 1.61646C3.65625 1.96167 3.93604 2.24146 4.28125 2.24146H11.2188C11.908 2.24146 12.4688 2.80225 12.4688 3.49146V12.929C12.4688 13.2742 12.7485 13.554 13.0938 13.554C13.439 13.554 13.7188 13.2742 13.7188 12.929Z" fill="currentColor"/>
</svg>
