<svg width="11" viewBox="0 0 11 12" fill="none" preserveAspectRatio="xMidYMid meet" xmlns="http://www.w3.org/2000/svg">
<path d="M6.91647 12H2.04176C0.915902 12 0 11.1589 0 10.125V3.77344C0 2.73953 0.915902 1.89844 2.04176 1.89844H6.91647C8.04233 1.89844 8.95824 2.73953 8.95824 3.77344V10.125C8.95824 11.1589 8.04233 12 6.91647 12ZM2.04176 2.83594C1.47888 2.83594 1.02088 3.25653 1.02088 3.77344V10.125C1.02088 10.6419 1.47888 11.0625 2.04176 11.0625H6.91647C7.47935 11.0625 7.93736 10.6419 7.93736 10.125V3.77344C7.93736 3.25653 7.47935 2.83594 6.91647 2.83594H2.04176ZM11 8.95312V1.875C11 0.841095 10.0841 0 8.95824 0H3.29234C3.0104 0 2.7819 0.209839 2.7819 0.46875C2.7819 0.727661 3.0104 0.9375 3.29234 0.9375H8.95824C9.52112 0.9375 9.97912 1.35809 9.97912 1.875V8.95312C9.97912 9.21204 10.2076 9.42188 10.4896 9.42188C10.7715 9.42188 11 9.21204 11 8.95312Z" fill="currentColor"/>
</svg>
