<svg width="24" height="24" viewBox="0 0 24 24" fill="none" xmlns="http://www.w3.org/2000/svg">
    <path d="M16.448 10.597a.779.779 0 0 0-.779-.779H7.645a.779.779 0 1 0 0 1.558h8.024c.43 0 .779-.348.779-.779zM7.645 12.935a.779.779 0 1 0 0 1.558h4.873a.779.779 0 1 0 0-1.558H7.645z" fill="#344054"/>
    <path d="M9.476 20.413H6.87a1.56 1.56 0 0 1-1.558-1.558V5.145c0-.86.7-1.559 1.558-1.559h9.578c.859 0 1.558.7 1.558 1.558v4.791a.779.779 0 1 0 1.558 0v-4.79a3.12 3.12 0 0 0-3.116-3.117H6.87a3.12 3.12 0 0 0-3.116 3.116v13.71a3.12 3.12 0 0 0 3.116 3.117h2.606a.779.779 0 1 0 0-1.558z" fill="#344054"/>
    <path d="M15.669 6.702H7.645a.779.779 0 1 0 0 1.558h8.024a.779.779 0 0 0 0-1.558z" fill="#344054"/>
    <g clip-path="url(#3qhm71x4ea)" fill="#344054">
        <path d="M13.273 21.97a.584.584 0 0 1-.577-.659l.208-1.592a.662.662 0 0 1 .188-.38l5.49-5.491a.64.64 0 0 1 .903 0l1.328 1.328a.64.64 0 0 1 0 .903l-5.49 5.49a.662.662 0 0 1-.38.188l-1.593.208a.585.585 0 0 1-.077.006zm.43-2.095-.164 1.247 1.247-.163 5.332-5.331-1.084-1.084-5.332 5.331z"/>
        <path d="M19.294 17.43a.405.405 0 0 1-.287-.118l-1.659-1.658a.406.406 0 0 1 .575-.574l1.658 1.658a.405.405 0 0 1-.287.692z"/>
    </g>
    <defs>
        <clipPath id="3qhm71x4ea">
            <path fill="#fff" transform="translate(12.69 13.661)" d="M0 0h8.309v8.309H0z"/>
        </clipPath>
    </defs>
</svg>
