<svg width="24" height="24" viewBox="0 0 24 24" fill="none" xmlns="http://www.w3.org/2000/svg">
    <g clip-path="url(#2xl0pr8xla)">
        <path d="M16.167 10.333a5.84 5.84 0 0 0-5.834 5.834A5.84 5.84 0 0 0 16.167 22 5.84 5.84 0 0 0 22 16.167a5.84 5.84 0 0 0-5.833-5.834zm0 10A4.171 4.171 0 0 1 12 16.167 4.171 4.171 0 0 1 16.167 12a4.171 4.171 0 0 1 4.166 4.167 4.171 4.171 0 0 1-4.166 4.166zM17 15.822l1.422 1.422-1.178 1.178-1.91-1.91v-2.845H17v2.155zm5-9.655v5.29a7.55 7.55 0 0 0-1.667-1.514V6.167a.834.834 0 0 0-.833-.834h-15a.835.835 0 0 0-.833.834v2.5h12.5a7.464 7.464 0 0 0-4.71 1.666h-7.79v10h6.265c.421.63.937 1.191 1.525 1.667H2V6.167c0-1.379 1.122-2.5 2.5-2.5H7V2h1.667v1.667h6.666V2H17v1.667h2.5c1.378 0 2.5 1.121 2.5 2.5z" fill="#344054"/>
    </g>
    <defs>
        <clipPath id="2xl0pr8xla">
            <path fill="#fff" transform="translate(2 2)" d="M0 0h20v20H0z"/>
        </clipPath>
    </defs>
</svg>
