<svg width="21" viewBox="0 0 21 20" fill="none" preserveAspectRatio="xMidYMid meet" xmlns="http://www.w3.org/2000/svg">
<path fill-rule="evenodd" clip-rule="evenodd" d="M10.6631 17.5C6.52371 17.5 3.16309 14.1394 3.16309 10C3.16309 5.86062 6.52371 2.5 10.6631 2.5C11.0081 2.5 11.2881 2.22 11.2881 1.875C11.2881 1.53 11.0081 1.25 10.6631 1.25C5.83371 1.25 1.91309 5.17062 1.91309 10C1.91309 14.8294 5.83371 18.75 10.6631 18.75C11.0081 18.75 11.2881 18.47 11.2881 18.125C11.2881 17.78 11.0081 17.5 10.6631 17.5ZM16.3281 14.9825C15.8087 15.5556 15.2062 16.0463 14.5437 16.4381C14.2468 16.6138 14.1481 16.9975 14.3237 17.2944C14.4993 17.5912 14.8831 17.69 15.18 17.5144C15.9506 17.0588 16.6512 16.4881 17.255 15.8212C17.4862 15.5656 17.4668 15.17 17.2112 14.9381C16.955 14.7069 16.56 14.7262 16.3281 14.9825ZM18.2325 10.8494C18.2137 10.9925 18.1912 11.1363 18.1637 11.28C18.0456 11.9094 17.8525 12.5062 17.5962 13.0625C17.4525 13.3756 17.5893 13.7475 17.9031 13.8919C18.2162 14.0356 18.5875 13.8988 18.7318 13.585C19.03 12.9375 19.2543 12.2438 19.3925 11.5119C19.4237 11.3444 19.4506 11.1775 19.4718 11.0112C19.5168 10.6694 19.2756 10.355 18.9331 10.3106C18.5912 10.2656 18.2775 10.5075 18.2325 10.8494ZM10.0381 11.28L7.64121 8.88313C7.39746 8.63938 7.00121 8.63938 6.75746 8.88313C6.51371 9.12688 6.51371 9.52312 6.75746 9.76688L10.2212 13.2306C10.465 13.475 10.8612 13.475 11.105 13.2306L14.5687 9.76688C14.8125 9.52312 14.8125 9.12688 14.5687 8.88313C14.325 8.63938 13.9287 8.63938 13.685 8.88313L11.2881 11.28V6.87563C11.2881 6.53125 11.0081 6.25063 10.6631 6.25063C10.3181 6.25063 10.0381 6.53125 10.0381 6.87563V11.28ZM17.445 6.36812C17.7968 7.04813 18.0475 7.7825 18.1825 8.54875C18.2425 8.88875 18.5668 9.11562 18.9062 9.05625C19.2462 8.99625 19.4737 8.67188 19.4137 8.33188C19.2568 7.44 18.9643 6.585 18.5556 5.79437C18.3968 5.4875 18.02 5.3675 17.7131 5.52625C17.4068 5.68437 17.2868 6.06187 17.445 6.36812ZM14.2487 3.1275C14.9368 3.49375 15.5568 3.96 16.0931 4.50375C16.335 4.74937 16.7312 4.7525 16.9768 4.51062C17.2225 4.26813 17.225 3.8725 16.9831 3.62625C16.3593 2.99312 15.6375 2.45062 14.8356 2.02375C14.5312 1.86187 14.1525 1.9775 13.9906 2.28188C13.8287 2.58625 13.9443 2.965 14.2487 3.1275Z" fill="#101828"/>
</svg>
