<svg width="25" height="25" viewBox="0 0 25 25" fill="none" xmlns="http://www.w3.org/2000/svg">
    <path fill-rule="evenodd" clip-rule="evenodd" d="M11.34 5.777v7.1l-2.497-2.498a.52.52 0 0 0-.735.736l2.81 2.81a1.326 1.326 0 0 0 1.453.29c.161-.067.308-.165.432-.29l2.811-2.81a.52.52 0 0 0-.736-.736l-2.496 2.496V5.777a.52.52 0 1 0-1.041 0zM6.059 19.05h11.606a1.381 1.381 0 0 0 1.38-1.38V14.03a.52.52 0 0 0-1.041 0v3.639a.339.339 0 0 1-.34.339H6.059a.34.34 0 0 1-.34-.34v-3.638a.52.52 0 0 0-1.04 0v3.639a1.382 1.382 0 0 0 1.38 1.38z" fill="#F9FAFB"/>
</svg>
