<svg width="22" viewBox="0 0 22 25" fill="none" preserveAspectRatio="xMidYMid meet" xmlns="http://www.w3.org/2000/svg">
<path d="M2 0.5V1.49659V23.4955V24.4995H4.00057V23.4955V1.49659V0.5H2Z" fill="currentColor"/>
<path d="M2 2.5V4.50054H2.99662H12.0029V13.4994H10.9989H2.99662H2V15.5H2.99662H10.9989H14.0034V2.5H12.0029H2.99662H2Z" fill="currentColor"/>
<path d="M12.004 4.5V6.50057H13.0006H19.9989V8.87766L17.9983 9.88161V13.115L19.9989 14.1189V16.496H14.0046V13.4989H11V15.4994V16.496V18.4966H21.9994V12.8788L19.9989 11.8822V11.1144L21.9994 10.1178V4.5H19.9989H13.0006H12.004Z" fill="currentColor"/>
<path d="M0 22.5V24.5006H0.996594H4.99773H6.00171V22.5H4.99773H0.996594H0Z" fill="currentColor"/>
</svg>
