<svg width="33" height="32" viewBox="0 0 33 32" fill="none" xmlns="http://www.w3.org/2000/svg">
<path fill-rule="evenodd" clip-rule="evenodd" d="M31.86 16.3637C31.86 15.2291 31.7582 14.1382 31.5691 13.0909H16.5V19.28H25.1109C24.74 21.28 23.6127 22.9746 21.9182 24.1091V28.1237H27.0891C30.1145 25.3382 31.86 21.2364 31.86 16.3637Z" fill="#4285F4"/>
<path fill-rule="evenodd" clip-rule="evenodd" d="M16.5001 31.9999C20.8201 31.9999 24.4419 30.5672 27.0892 28.1236L21.9183 24.109C20.4855 25.069 18.6528 25.6363 16.5001 25.6363C12.3328 25.6363 8.80554 22.8217 7.54736 19.0399H2.2019V23.1854C4.83463 28.4145 10.2455 31.9999 16.5001 31.9999Z" fill="#34A853"/>
<path fill-rule="evenodd" clip-rule="evenodd" d="M7.54727 19.0399C7.22727 18.0799 7.04545 17.0545 7.04545 15.9999C7.04545 14.9454 7.22727 13.9199 7.54727 12.9599V8.81445H2.20182C1.11818 10.9745 0.5 13.4181 0.5 15.9999C0.5 18.5817 1.11818 21.0254 2.20182 23.1854L7.54727 19.0399Z" fill="#FBBC05"/>
<path fill-rule="evenodd" clip-rule="evenodd" d="M16.5001 6.36364C18.8492 6.36364 20.9583 7.17091 22.6164 8.75636L27.2055 4.16727C24.4346 1.58545 20.8128 0 16.5001 0C10.2455 0 4.83463 3.58545 2.2019 8.81455L7.54736 12.96C8.80554 9.17818 12.3328 6.36364 16.5001 6.36364Z" fill="#EA4335"/>
</svg>
