<svg width="14" height="14" viewBox="0 0 14 14" fill="none" xmlns="http://www.w3.org/2000/svg">
<g clip-path="url(#clip0_2951_28705)">
<path d="M7 8.8526C6.93432 8.85265 6.86928 8.83975 6.8086 8.81465C6.74791 8.78954 6.69277 8.75271 6.64633 8.70627C6.59989 8.65983 6.56306 8.60469 6.53795 8.544C6.51284 8.48332 6.49995 8.41827 6.5 8.3526V0.875C6.5 0.742392 6.55268 0.615215 6.64645 0.521447C6.74021 0.427678 6.86739 0.375 7 0.375C7.13261 0.375 7.25979 0.427678 7.35355 0.521447C7.44732 0.615215 7.5 0.742392 7.5 0.875V8.3526C7.5 8.48521 7.44732 8.61238 7.35355 8.70615C7.25979 8.79992 7.13261 8.8526 7 8.8526Z" fill="#667085"/>
<path d="M7.00012 9.0774C6.83208 9.07766 6.66564 9.04473 6.51036 8.98047C6.35509 8.91622 6.21404 8.82192 6.09532 8.703L3.39492 6.0026C3.30119 5.90887 3.24854 5.78175 3.24854 5.6492C3.24854 5.51665 3.30119 5.38952 3.39492 5.2958C3.48865 5.20207 3.61577 5.14941 3.74832 5.14941C3.88087 5.14941 4.00799 5.20207 4.10172 5.2958L6.80212 7.9962C6.82812 8.0222 6.85899 8.04283 6.89296 8.0569C6.92693 8.07097 6.96335 8.07822 7.00012 8.07822C7.03689 8.07822 7.0733 8.07097 7.10728 8.0569C7.14125 8.04283 7.17212 8.0222 7.19812 7.9962L9.89852 5.2958C9.99279 5.20469 10.1191 5.15426 10.2502 5.15536C10.3813 5.15646 10.5067 5.20901 10.5994 5.30169C10.6922 5.39437 10.7448 5.51976 10.746 5.65086C10.7471 5.78196 10.6968 5.90827 10.6057 6.0026L7.90492 8.703C7.78617 8.82189 7.64512 8.91616 7.48985 8.98041C7.33458 9.04466 7.16815 9.07762 7.00012 9.0774Z" fill="#667085"/>
<path d="M12.5745 13.6255H1.4257C1.07426 13.6251 0.737331 13.4853 0.488825 13.2368C0.240318 12.9883 0.100521 12.6513 0.100098 12.2999V8.80469C0.100098 8.67208 0.152776 8.5449 0.246544 8.45113C0.340312 8.35737 0.467489 8.30469 0.600098 8.30469C0.732706 8.30469 0.859883 8.35737 0.953651 8.45113C1.04742 8.5449 1.1001 8.67208 1.1001 8.80469V12.2999C1.1002 12.3862 1.13454 12.469 1.19558 12.53C1.25662 12.591 1.33938 12.6254 1.4257 12.6255H12.5745C12.6608 12.6254 12.7436 12.591 12.8046 12.53C12.8657 12.469 12.9 12.3862 12.9001 12.2999V8.80469C12.9001 8.67208 12.9528 8.5449 13.0465 8.45113C13.1403 8.35737 13.2675 8.30469 13.4001 8.30469C13.5327 8.30469 13.6599 8.35737 13.7537 8.45113C13.8474 8.5449 13.9001 8.67208 13.9001 8.80469V12.2999C13.8997 12.6513 13.7599 12.9883 13.5114 13.2368C13.2629 13.4853 12.9259 13.6251 12.5745 13.6255Z" fill="#667085"/>
</g>
<defs>
<clipPath id="clip0_2951_28705">
<rect width="14" height="14" fill="white"/>
</clipPath>
</defs>
</svg>
