<svg width="16" viewBox="0 0 16 16" fill="none" preserveAspectRatio="xMidYMid meet" xmlns="http://www.w3.org/2000/svg">
<path fill-rule="evenodd" clip-rule="evenodd" d="M5.42427 7.29146C5.66834 7.04738 6.06408 7.04738 6.30815 7.29146L7.99954 8.98279L9.69096 7.29146C9.93504 7.04738 10.3307 7.04738 10.5748 7.29146C10.8189 7.53554 10.8189 7.93121 10.5748 8.17529L8.44146 10.3086C8.19738 10.5527 7.80171 10.5527 7.55763 10.3086L5.42427 8.17529C5.18019 7.93121 5.18019 7.53554 5.42427 7.29146Z" fill="currentColor"/>
<path fill-rule="evenodd" clip-rule="evenodd" d="M8 4.875C8.34517 4.875 8.625 5.15483 8.625 5.5V9.80833C8.625 10.1535 8.34517 10.4333 8 10.4333C7.65483 10.4333 7.375 10.1535 7.375 9.80833V5.5C7.375 5.15483 7.65483 4.875 8 4.875Z" fill="currentColor"/>
<path fill-rule="evenodd" clip-rule="evenodd" d="M8 0.708496C8.34517 0.708496 8.625 0.988321 8.625 1.3335V2.96683C8.625 3.312 8.34517 3.59183 8 3.59183C7.65483 3.59183 7.375 3.312 7.375 2.96683V1.3335C7.375 0.988321 7.65483 0.708496 8 0.708496Z" fill="currentColor"/>
<path fill-rule="evenodd" clip-rule="evenodd" d="M1.33301 7.375C1.67818 7.375 1.95801 7.65483 1.95801 8C1.95801 9.7005 2.53394 11.2072 3.55698 12.2842C4.57532 13.3562 6.07337 14.0417 7.99967 14.0417C9.76551 14.0417 11.1698 13.4662 12.1786 12.5465C12.4337 12.3139 12.8289 12.3322 13.0615 12.5872C13.2941 12.8423 13.2758 13.2376 13.0208 13.4702C11.7628 14.6171 10.0505 15.2917 7.99967 15.2917C5.75932 15.2917 3.92402 14.4855 2.6507 13.145C1.38207 11.8095 0.708008 9.98283 0.708008 8C0.708008 7.65483 0.987833 7.375 1.33301 7.375Z" fill="currentColor"/>
<path fill-rule="evenodd" clip-rule="evenodd" d="M14.6663 7.375C15.0115 7.375 15.2913 7.65483 15.2913 8C15.2913 8.94267 15.1386 9.84558 14.8483 10.6803C14.7349 11.0063 14.3786 11.1788 14.0526 11.0653C13.7266 10.9519 13.5543 10.5957 13.6676 10.2697C13.9106 9.57108 14.0413 8.80733 14.0413 8C14.0413 7.65483 14.3211 7.375 14.6663 7.375Z" fill="currentColor"/>
</svg>
