<svg width="21" viewBox="0 0 21 20" fill="none" preserveAspectRatio="xMidYMid meet" xmlns="http://www.w3.org/2000/svg">
<g clip-path="url(#clip0_9065_114127)">
<path d="M17.5056 1.5505C17.2768 1.32171 16.9058 1.32171 16.677 1.5505C16.4481 1.77933 16.4482 2.15034 16.677 2.37913C18.3445 4.04651 19.2628 6.26343 19.2628 8.62159C19.2628 8.94519 19.5251 9.20753 19.8487 9.20753C20.1723 9.20753 20.4346 8.94519 20.4346 8.62159C20.4346 5.95042 19.3944 3.43917 17.5056 1.5505Z" fill="#F59E0B"/>
<path d="M4.19211 1.55051C3.96328 1.32172 3.5923 1.32168 3.36348 1.55051C1.47473 3.43934 0.43457 5.95055 0.43457 8.62157C0.43457 8.94516 0.696914 9.2075 1.02051 9.2075C1.3441 9.2075 1.60645 8.94516 1.60645 8.62157C1.60645 6.26356 2.52473 4.04665 4.19211 2.37918C4.42094 2.15036 4.42094 1.77934 4.19211 1.55051Z" fill="#F59E0B"/>
<path d="M14.9016 3.32589C14.6728 3.55472 14.6728 3.9257 14.9016 4.15453C16.0949 5.34781 16.7521 6.93437 16.7521 8.62203C16.7521 8.94562 17.0145 9.20796 17.3381 9.20796C17.6617 9.20796 17.924 8.94562 17.924 8.62203C17.924 6.62136 17.1449 4.74046 15.7302 3.32585C15.5014 3.0971 15.1304 3.0971 14.9016 3.32589Z" fill="#F59E0B"/>
<path d="M5.96722 3.32588C5.73839 3.09709 5.36737 3.09709 5.13858 3.32592C3.72409 4.74061 2.94507 6.62135 2.94507 8.62174C2.94507 8.94534 3.20741 9.20768 3.53101 9.20768C3.8546 9.20768 4.11694 8.94534 4.11694 8.62174C4.11694 6.93436 4.77409 5.34788 5.9673 4.15452C6.19608 3.92569 6.19605 3.55471 5.96722 3.32588Z" fill="#F59E0B"/>
<path d="M15.4138 12.8766V9.87695C15.4138 8.78277 15.0654 7.74453 14.4063 6.87441C13.8555 6.14719 13.1043 5.5791 12.2603 5.24484C12.1428 4.34207 11.3689 3.64258 10.4346 3.64258C9.50029 3.64258 8.72627 4.34203 8.60881 5.24484C7.76482 5.57914 7.01361 6.14723 6.46279 6.87441C5.80373 7.74453 5.45537 8.78277 5.45537 9.87695V12.8766L4.26205 15.2634C4.17123 15.445 4.18096 15.6607 4.28771 15.8334C4.39447 16.0062 4.58306 16.1113 4.78615 16.1113H7.39451C7.66924 17.5394 8.92756 18.6218 10.4345 18.6218C11.9415 18.6218 13.1998 17.5394 13.4745 16.1113H16.083C16.2861 16.1113 16.4747 16.0062 16.5815 15.8334C16.6882 15.6607 16.6979 15.445 16.6071 15.2634L15.4138 12.8766ZM10.4346 17.4499C9.57763 17.4499 8.84971 16.8869 8.60127 16.1113H12.2679C12.0194 16.8869 11.2915 17.4499 10.4346 17.4499ZM12.945 14.9395H7.92416H5.73424L6.56545 13.277C6.60615 13.1956 6.62728 13.1059 6.62728 13.015V9.87695C6.62728 8.20535 7.74545 6.70496 9.3465 6.22832C9.59494 6.15434 9.76525 5.92594 9.76525 5.66676V5.48371C9.76525 5.11469 10.0655 4.81445 10.4346 4.81445C10.8036 4.81445 11.1038 5.11469 11.1038 5.48371V5.66676C11.1038 5.92598 11.2742 6.15437 11.5226 6.22832C13.1237 6.70496 14.2419 8.20531 14.2419 9.87695V13.015C14.2419 13.1059 14.2631 13.1956 14.3037 13.277L15.1349 14.9395H12.945Z" fill="#101828"/>
</g>
<defs>
<clipPath id="clip0_9065_114127">
<rect width="20" height="20" fill="white" transform="translate(0.43457)"/>
</clipPath>
</defs>
</svg>
