<svg width="24" height="24" viewBox="0 0 24 24" fill="none" xmlns="http://www.w3.org/2000/svg">
<path d="M21.8314 13.52L20.0845 7.25438C19.5725 5.41881 18.4596 3.80653 16.9229 2.67383C15.3861 1.54113 13.5137 0.953002 11.6031 1.00294C9.6926 1.05287 7.85363 1.738 6.37854 2.94942C4.90345 4.16084 3.87689 5.82903 3.46203 7.68883L2.10954 13.7519C1.96015 14.4218 1.9636 15.1167 2.11965 15.7851C2.2757 16.4535 2.58035 17.0785 3.01112 17.6139C3.4419 18.1492 3.98778 18.5813 4.60849 18.8782C5.22919 19.1751 5.90885 19.3292 6.59731 19.3292H7.62156C7.83258 20.3651 8.39639 21.2965 9.21746 21.9655C10.0385 22.6345 11.0664 23 12.1268 23C13.1872 23 14.2151 22.6345 15.0361 21.9655C15.8572 21.2965 16.421 20.3651 16.632 19.3292H17.4025C18.1112 19.3292 18.8103 19.1659 19.4453 18.852C20.0802 18.5381 20.6337 18.0822 21.0626 17.5197C21.4915 16.9573 21.7841 16.3036 21.9177 15.6098C22.0512 14.9159 22.022 14.2007 21.8323 13.52H21.8314ZM12.1268 21.1623C11.5583 21.1599 11.0045 20.9826 10.541 20.6544C10.0776 20.3263 9.72714 19.8634 9.53766 19.3292H14.7159C14.5264 19.8634 14.176 20.3263 13.7125 20.6544C13.2491 20.9826 12.6952 21.1599 12.1268 21.1623ZM19.5981 16.4099C19.3419 16.7487 19.01 17.0233 18.6287 17.2119C18.2474 17.4004 17.8272 17.4977 17.4016 17.496H6.59731C6.18428 17.496 5.77655 17.4034 5.40419 17.2253C5.03184 17.0471 4.70438 16.7878 4.44598 16.4666C4.18757 16.1454 4.00483 15.7705 3.91123 15.3695C3.81764 14.9684 3.81557 14.5516 3.9052 14.1497L5.25677 8.0857C5.58257 6.62489 6.38888 5.31457 7.5475 4.36304C8.70613 3.4115 10.1506 2.87337 11.6512 2.83418C13.1519 2.79499 14.6226 3.25699 15.8296 4.14674C17.0366 5.0365 17.9107 6.30294 18.3127 7.74474L20.0597 14.0104C20.1751 14.4186 20.1935 14.848 20.1134 15.2645C20.0332 15.681 19.8568 16.0732 19.5981 16.4099Z" fill="#101828"/>
</svg>
