<svg width="25" height="25" viewBox="0 0 25 25" fill="none" xmlns="http://www.w3.org/2000/svg">
    <path fill-rule="evenodd" clip-rule="evenodd" d="M17.263 8.56h.437a2.346 2.346 0 0 1 2.344 2.343v3.75a2.346 2.346 0 0 1-2.344 2.344h-.437v2.125c0 .775-.631 1.406-1.407 1.406H8.231c-.775 0-1.406-.63-1.406-1.406v-2.125h-.437a2.346 2.346 0 0 1-2.344-2.344v-3.75a2.346 2.346 0 0 1 2.344-2.344h.437V6.872A2.346 2.346 0 0 1 9.17 4.528h5.75a2.346 2.346 0 0 1 2.344 2.344v1.687zM9.169 5.464c-.775 0-1.406.631-1.406 1.407v1.687h8.562V6.872c0-.776-.63-1.407-1.406-1.407h-5.75zm6.687 14.125a.47.47 0 0 0 .47-.468v-4.625H7.762v4.625c0 .258.21.468.468.468h7.625zm1.844-3.53c.776 0 1.406-.632 1.406-1.407v-3.75c0-.775-.63-1.406-1.406-1.406H6.388c-.776 0-1.407.63-1.407 1.406v3.75c0 .775.631 1.406 1.407 1.406h.437v-1.562h-.281a.469.469 0 0 1 0-.938h11a.469.469 0 0 1 0 .938h-.281v1.562h.437zm-6.906-.5h2.5a.469.469 0 0 1 0 .937h-2.5a.469.469 0 0 1 0-.938zm2.5 2h-2.5a.469.469 0 0 0 0 .937h2.5a.469.469 0 1 0 0-.938zm-6.75-7h1.5a.469.469 0 0 1 0 .937h-1.5a.469.469 0 1 1 0-.938z" fill="#F9FAFB"/>
</svg>
