<svg width="9" viewBox="0 0 9 7" fill="none" preserveAspectRatio="xMidYMid meet" xmlns="http://www.w3.org/2000/svg">
<path d="M8.47108 1.05229C8.45296 1.00858 8.42666 0.969491 8.39397 0.936782C8.39184 0.934651 8.38971 0.934288 8.38792 0.93252C8.35594 0.902306 8.31933 0.877081 8.27812 0.860017C8.24435 0.846157 8.20882 0.841895 8.17329 0.83869C8.16263 0.83798 8.15374 0.833008 8.14307 0.833008H5.30008C5.10357 0.833008 4.9447 0.991858 4.9447 1.18839C4.9447 1.38492 5.10355 1.54377 5.30008 1.54377H7.28876L4.4756 4.3729L3.40521 3.00257C3.34338 2.92333 3.25134 2.87429 3.15184 2.86682C3.04843 2.85935 2.95318 2.89454 2.88069 2.96313L0.151417 5.54706C0.00890452 5.68211 0.00287497 5.90705 0.137557 6.04957C0.207929 6.12313 0.301743 6.16008 0.395919 6.16008C0.483703 6.16008 0.57147 6.12774 0.640059 6.06306L3.08538 3.7478L4.16324 5.1277C4.22614 5.20837 4.32032 5.25778 4.42231 5.26381C4.5243 5.26949 4.62345 5.23183 4.69559 5.15969L7.78769 2.04981V4.03138C7.78769 4.2279 7.94654 4.38676 8.14307 4.38676C8.33959 4.38676 8.49845 4.22791 8.49845 4.03138V1.1884V1.18804C8.49809 1.14149 8.48884 1.09565 8.47108 1.05229Z" fill="currentColor"/>
</svg>
