<svg width="24" height="24" viewBox="0 0 24 24" fill="none" xmlns="http://www.w3.org/2000/svg">
    <path d="M19.14 21.62c-.88.26-1.92.38-3.14.38h-6c-1.22 0-2.26-.12-3.14-.38.22-2.6 2.89-4.65 6.14-4.65 3.25 0 5.92 2.05 6.14 4.65z" stroke="#000" stroke-width="1.5" stroke-linecap="round" stroke-linejoin="round"/>
    <path d="M16 2h-6C5 2 3 4 3 9v6c0 3.78 1.14 5.85 3.86 6.62.22-2.6 2.89-4.65 6.14-4.65 3.25 0 5.92 2.05 6.14 4.65C21.86 20.85 23 18.78 23 15V9c0-5-2-7-7-7zm-3 12.17c-1.98 0-3.58-1.61-3.58-3.59C9.42 8.6 11.02 7 13 7s3.58 1.6 3.58 3.58-1.6 3.59-3.58 3.59z" stroke="#000" stroke-width="1.5" stroke-linecap="round" stroke-linejoin="round"/>
    <path d="M16.58 10.58c0 1.98-1.6 3.59-3.58 3.59s-3.58-1.61-3.58-3.59C9.42 8.6 11.02 7 13 7s3.58 1.6 3.58 3.58z" stroke="#000" stroke-width="1.5" stroke-linecap="round" stroke-linejoin="round"/>
    <path fill-rule="evenodd" clip-rule="evenodd" d="M0 7.79A.79.79 0 0 1 .79 7h4.42a.79.79 0 0 1 0 1.579H.79a.79.79 0 0 1-.79-.79zM0 12a.79.79 0 0 1 .79-.79h4.42a.79.79 0 0 1 0 1.58H.79A.79.79 0 0 1 0 12zm0 4.21a.79.79 0 0 1 .79-.789h4.42a.79.79 0 1 1 0 1.579H.79a.79.79 0 0 1-.79-.79z" fill="#000"/>
</svg>
