<svg width="24" height="24" viewBox="0 0 24 24" fill="none" xmlns="http://www.w3.org/2000/svg">
    <g clip-path="url(#boqgc1ge3a)" fill="#ffffff" stroke="#ffffff" stroke-width=".3">
        <path d="M4.292 21.304h15.416a2.443 2.443 0 0 0 2.442-2.442V5.112a2.444 2.444 0 0 0-2.442-2.442H4.292A2.444 2.444 0 0 0 1.85 5.112v13.75a2.443 2.443 0 0 0 2.442 2.442zM3.4 5.112c0-.491.4-.892.892-.892h15.416c.492 0 .892.4.892.892v13.75c0 .491-.4.892-.892.892H4.292a.893.893 0 0 1-.892-.892V5.112z"/>
        <path d="M2.625 9.22h18.75a.775.775 0 0 0 0-1.55H2.625a.775.775 0 0 0 0 1.55zM2.625 13.387h18.75a.775.775 0 0 0 0-1.55H2.625a.775.775 0 0 0 0 1.55zM2.625 17.554h18.75a.775.775 0 0 0 0-1.55H2.625a.775.775 0 0 0 0 1.55z"/>
        <path d="M6.433 20.529a.775.775 0 0 0 1.55 0V8.445a.775.775 0 0 0-1.55 0V20.53zM11.225 20.529a.775.775 0 0 0 1.55 0V8.445a.775.775 0 0 0-1.55 0V20.53zM16.017 20.529a.775.775 0 0 0 1.55 0V8.445a.775.775 0 0 0-1.55 0V20.53z"/>
    </g>
    <defs>
        <clipPath id="boqgc1ge3a">
            <path fill="#fff" transform="translate(2 2)" d="M0 0h20v20H0z"/>
        </clipPath>
    </defs>
</svg>
