<svg width="24" height="24" viewBox="0 0 24 24" fill="none" xmlns="http://www.w3.org/2000/svg">
<path d="M18.3345 6C18.1792 6 18.0222 5.94272 17.8962 5.82535C16.2168 4.26667 14.0688 3.40845 11.8491 3.40845C9.75705 3.40845 7.71117 4.18498 6.08759 5.59624C5.8028 5.84319 5.38315 5.79906 5.1507 5.49859C4.91826 5.19812 4.95907 4.75399 5.24297 4.50704C7.10343 2.89014 9.45008 2 11.8491 2C14.3918 2 16.8511 2.98216 18.7737 4.7662C19.0496 5.02254 19.0771 5.46761 18.8349 5.76056C18.7036 5.91831 18.519 6 18.3345 6Z" fill="#F2F2F2"/>
<path d="M7.43759 6H5.56252C5.25201 6 5 5.66401 5 5.25001V2.75006C5 2.44707 5.13725 2.17307 5.34726 2.05708C5.55727 1.94108 5.79953 2.00508 5.96003 2.22007L7.8351 4.72002C7.99561 4.93402 8.04436 5.25701 7.95736 5.53701C7.87035 5.817 7.66485 6 7.43759 6V6Z" fill="#F2F2F2"/>
<path d="M12.1509 22C9.60741 22 7.1482 21.0179 5.22662 19.2339C4.94983 18.9775 4.92321 18.5325 5.16541 18.2395C5.4076 17.9475 5.82811 17.9184 6.10491 18.1747C7.78341 19.7334 9.93033 20.5916 12.1509 20.5916C14.2428 20.5916 16.2886 19.8151 17.9121 18.4038C18.196 18.156 18.6147 18.2001 18.8489 18.5015C19.0823 18.802 19.0406 19.2461 18.7567 19.493C16.8963 21.1099 14.5498 22 12.1509 22V22Z" fill="#F2F2F2"/>
<path d="M18.4375 22C18.2912 22 18.1472 21.924 18.04 21.78L16.1649 19.28C16.0044 19.066 15.9556 18.743 16.0426 18.463C16.1296 18.183 16.3352 18 16.5624 18H18.4375C18.748 18 19 18.336 19 18.75V21.25C19 21.553 18.8627 21.827 18.6527 21.943C18.583 21.981 18.5102 22 18.4375 22Z" fill="#F2F2F2"/>
<path d="M5.5 12C6.88071 12 8 10.8807 8 9.5C8 8.11929 6.88071 7 5.5 7C4.11929 7 3 8.11929 3 9.5C3 10.8807 4.11929 12 5.5 12Z" fill="#F2F2F2"/>
<path d="M7.525 13H3.475C2.1097 13 1 14.233 1 15.75V16.25C1 16.664 1.3024 17 1.675 17H9.325C9.6976 17 10 16.664 10 16.25V15.75C10 14.233 8.8903 13 7.525 13Z" fill="#F2F2F2"/>
<path d="M18.5 12C19.8807 12 21 10.8807 21 9.5C21 8.11929 19.8807 7 18.5 7C17.1193 7 16 8.11929 16 9.5C16 10.8807 17.1193 12 18.5 12Z" fill="#F2F2F2"/>
<path d="M20.525 13H16.475C15.1097 13 14 14.233 14 15.75V16.25C14 16.664 14.3024 17 14.675 17H22.325C22.6976 17 23 16.664 23 16.25V15.75C23 14.233 21.8903 13 20.525 13Z" fill="#F2F2F2"/>
</svg>
