<svg width="16" height="16" viewBox="0 0 16 16" fill="none" xmlns="http://www.w3.org/2000/svg">
    <g clip-path="url(#cdje6uvvia)">
        <mask id="zslh8skwgb" style="mask-type:luminance" maskUnits="userSpaceOnUse" x="0" y="0" width="16" height="16">
            <path d="M0 0h16v16H0V0z" fill="#fff"/>
        </mask>
        <g mask="url(#zslh8skwgb)">
            <path d="M3.834 12.165a3.485 3.485 0 0 1-.944-1.741c-.053-.253-.275-.448-.533-.429-.259.02-.455.245-.408.5a4.423 4.423 0 0 0 3.556 3.556c.255.046.48-.15.5-.408.019-.258-.176-.48-.43-.534a3.484 3.484 0 0 1-1.74-.944z" fill="#98A2B3"/>
            <path d="M9.698 11.667a5.37 5.37 0 0 1-5.365-5.365A5.37 5.37 0 0 1 9.698.938a5.37 5.37 0 0 1 5.364 5.364 5.37 5.37 0 0 1-5.364 5.365zm-3.396 3.396A5.37 5.37 0 0 1 .938 9.697a5.366 5.366 0 0 1 2.57-4.578 6.31 6.31 0 0 0 7.372 7.372 5.366 5.366 0 0 1-4.578 2.57zM16 6.303A6.31 6.31 0 0 0 9.698 0 6.312 6.312 0 0 0 3.88 3.88 6.312 6.312 0 0 0 0 9.698 6.31 6.31 0 0 0 6.302 16a6.312 6.312 0 0 0 5.818-3.88A6.312 6.312 0 0 0 16 6.302z" fill="#98A2B3"/>
            <path d="M8.484 7.146a.492.492 0 0 1-.492-.492v-.04c0-.312.304-.535.602-.441a.464.464 0 0 0 .424-.078l.158-.124a.846.846 0 0 1 1.043 0l.159.124c.12.094.278.123.424.078a.464.464 0 0 1 .602.442v.039c0 .271-.22.492-.492.492H8.484zm2.428.937c.79 0 1.43-.64 1.43-1.43v-.748a.879.879 0 0 0-1.142-.84.879.879 0 0 1-.804-.146l-.063-.049a1.03 1.03 0 0 0-1.27 0L9 4.92a.879.879 0 0 1-.804.146.879.879 0 0 0-1.141.839v.749c0 .789.64 1.429 1.43 1.429h2.427z" fill="#F9623B"/>
            <path d="M7.118 3.302c.17.196.464.215.68.074a3.485 3.485 0 0 1 3.799 0c.217.141.511.122.68-.074.17-.196.148-.494-.065-.642a4.423 4.423 0 0 0-5.029 0c-.213.148-.234.446-.065.642zM12.277 9.302c-.169-.196-.463-.215-.68-.074a3.485 3.485 0 0 1-3.798 0c-.217-.14-.512-.122-.68.074-.17.197-.149.495.064.642a4.423 4.423 0 0 0 5.03 0c.212-.147.233-.445.064-.642z" fill="#98A2B3"/>
        </g>
    </g>
    <defs>
        <clipPath id="cdje6uvvia">
            <path fill="#fff" d="M0 0h16v16H0z"/>
        </clipPath>
    </defs>
</svg>
