<svg width="25" height="24" viewBox="0 0 25 24" fill="none" xmlns="http://www.w3.org/2000/svg">
<path d="M19.2783 8.8125H9.33909V4.95797C9.33909 3.258 10.769 1.875 12.5266 1.875C14.2842 1.875 15.7141 3.258 15.7141 4.95797V6.75H17.5891V4.95797C17.5891 2.22412 15.318 0 12.5266 0C9.73513 0 7.46409 2.22412 7.46409 4.95797V8.8125H5.77832C4.22751 8.8125 2.96582 10.0742 2.96582 11.625V21.1875C2.96582 22.7383 4.22751 24 5.77832 24H19.2783C20.8291 24 22.0908 22.7383 22.0908 21.1875V11.625C22.0908 10.0742 20.8291 8.8125 19.2783 8.8125ZM20.2158 21.1875C20.2158 21.7044 19.7953 22.125 19.2783 22.125H5.77832C5.26138 22.125 4.84082 21.7044 4.84082 21.1875V11.625C4.84082 11.1081 5.26138 10.6875 5.77832 10.6875H19.2783C19.7953 10.6875 20.2158 11.1081 20.2158 11.625V21.1875Z" fill="#F9623B"/>
<path d="M12.5283 13.4062C11.5704 13.4062 10.7939 14.1827 10.7939 15.1406C10.7939 15.7523 11.1108 16.2895 11.5891 16.5983V18.6562C11.5891 19.174 12.0088 19.5938 12.5266 19.5938C13.0443 19.5938 13.4641 19.174 13.4641 18.6562V16.6005C13.9443 16.2921 14.2627 15.7537 14.2627 15.1406C14.2627 14.1827 13.4862 13.4062 12.5283 13.4062Z" fill="#F9623B"/>
</svg>
