<svg width="32" viewBox="0 0 32 32" fill="none" preserveAspectRatio="xMidYMid meet" xmlns="http://www.w3.org/2000/svg">
<path d="M30 12V7C30 6.20435 29.6839 5.44129 29.1213 4.87868C28.5587 4.31607 27.7956 4 27 4H23V3C23 2.73478 22.8946 2.48043 22.7071 2.29289C22.5196 2.10536 22.2652 2 22 2C21.7348 2 21.4804 2.10536 21.2929 2.29289C21.1054 2.48043 21 2.73478 21 3V4H11V3C11 2.73478 10.8946 2.48043 10.7071 2.29289C10.5196 2.10536 10.2652 2 10 2C9.73478 2 9.48043 2.10536 9.29289 2.29289C9.10536 2.48043 9 2.73478 9 3V4H5C4.20435 4 3.44129 4.31607 2.87868 4.87868C2.31607 5.44129 2 6.20435 2 7V12H30Z" fill="currentColor"/>
<path d="M2 12V27C2 27.7956 2.31607 28.5587 2.87868 29.1213C3.44129 29.6839 4.20435 30 5 30H27C27.7956 30 28.5587 29.6839 29.1213 29.1213C29.6839 28.5587 30 27.7956 30 27V12H2Z" fill="currentColor"/>
<path d="M21.2815 16.7031V9.30267H16.1777L17.4537 10.5786L16.1777 11.8546H21.2815" stroke="white" stroke-width="1.27594" stroke-miterlimit="10"/>
<path d="M7.5 24.3594H23.1941V16.7037H19.3662V19.2556H15.5384V21.8075H11.7106V24.3594" stroke="white" stroke-width="1.27594" stroke-miterlimit="10"/>
</svg>
