<svg width="16" height="17" viewBox="0 0 16 17" fill="none" xmlns="http://www.w3.org/2000/svg">
    <g clip-path="url(#wdoqk3utca)">
        <path d="M11.875 2.241h-.625v-.625a.625.625 0 1 0-1.25 0v.625H5v-.625a.625.625 0 1 0-1.25 0v.625h-.625A3.129 3.129 0 0 0 0 5.366v7.5a3.129 3.129 0 0 0 3.125 3.125h3.022a.625.625 0 1 0 0-1.25H3.125a1.877 1.877 0 0 1-1.875-1.875V7.241h13.125c.345 0 .625-.28.625-.625v-1.25a3.129 3.129 0 0 0-3.125-3.125zm1.875 3.75H1.25v-.625c0-1.034.841-1.875 1.875-1.875h.625v.625a.625.625 0 1 0 1.25 0v-.625h5v.625a.625.625 0 1 0 1.25 0v-.625h.625c1.034 0 1.875.841 1.875 1.875v.625z" fill="#98A2B3"/>
        <path d="M3.125 9.741a.625.625 0 1 0 0-1.25.625.625 0 0 0 0 1.25zM5.625 9.741a.625.625 0 1 0 0-1.25.625.625 0 0 0 0 1.25zM3.125 12.241a.625.625 0 1 0 0-1.25.625.625 0 0 0 0 1.25zM5.625 12.241a.625.625 0 1 0 0-1.25.625.625 0 0 0 0 1.25z" fill="#98A2B3"/>
        <path d="M11.625 8.241a4.38 4.38 0 0 0-4.375 4.375 4.38 4.38 0 0 0 4.375 4.375A4.38 4.38 0 0 0 16 12.616a4.38 4.38 0 0 0-4.375-4.375zm0 7.5A3.129 3.129 0 0 1 8.5 12.616a3.129 3.129 0 0 1 3.125-3.125 3.129 3.129 0 0 1 3.125 3.125 3.129 3.129 0 0 1-3.125 3.125z" fill="#F9623B"/>
        <path d="M12.875 11.991h-.625v-.625a.625.625 0 1 0-1.25 0v1.25c0 .345.28.625.625.625h1.25a.625.625 0 1 0 0-1.25z" fill="#F9623B"/>
    </g>
    <defs>
        <clipPath id="wdoqk3utca">
            <path fill="#fff" transform="translate(0 .991)" d="M0 0h16v16H0z"/>
        </clipPath>
    </defs>
</svg>
