<svg width="16" height="17" viewBox="0 0 16 17" fill="none" xmlns="http://www.w3.org/2000/svg">
    <g clip-path="url(#tvaoyn4t0a)">
        <mask id="k702o78reb" style="mask-type:luminance" maskUnits="userSpaceOnUse" x="0" y="0" width="16" height="17">
            <path d="M0 .991h16v16H0v-16z" fill="#fff"/>
        </mask>
        <g mask="url(#k702o78reb)">
            <path d="M3.834 13.156a3.485 3.485 0 0 1-.944-1.741c-.053-.253-.275-.448-.533-.429-.259.02-.455.245-.408.5a4.423 4.423 0 0 0 3.556 3.556c.255.046.48-.15.5-.408.019-.258-.176-.48-.43-.534a3.484 3.484 0 0 1-1.74-.944z" fill="#98A2B3"/>
            <path d="M9.698 12.658a5.37 5.37 0 0 1-5.365-5.365A5.37 5.37 0 0 1 9.698 1.93a5.37 5.37 0 0 1 5.364 5.364 5.37 5.37 0 0 1-5.364 5.365zm-3.396 3.396a5.37 5.37 0 0 1-5.364-5.365 5.366 5.366 0 0 1 2.57-4.577 6.31 6.31 0 0 0 7.372 7.372 5.366 5.366 0 0 1-4.578 2.57zM16 7.294A6.31 6.31 0 0 0 9.698.99a6.312 6.312 0 0 0-5.818 3.88A6.312 6.312 0 0 0 0 10.69a6.31 6.31 0 0 0 6.302 6.302 6.312 6.312 0 0 0 5.818-3.88A6.312 6.312 0 0 0 16 7.293z" fill="#98A2B3"/>
            <path d="M8.484 8.137a.492.492 0 0 1-.492-.492v-.039c0-.313.304-.536.602-.442a.464.464 0 0 0 .424-.078l.158-.123a.846.846 0 0 1 1.043 0l.159.123c.12.094.278.123.424.078a.464.464 0 0 1 .602.442v.039c0 .271-.22.492-.492.492H8.484zm2.428.937c.79 0 1.43-.64 1.43-1.43v-.748a.879.879 0 0 0-1.142-.84.879.879 0 0 1-.804-.146l-.063-.049a1.03 1.03 0 0 0-1.27 0L9 5.911a.879.879 0 0 1-.804.146.879.879 0 0 0-1.141.839v.749c0 .79.64 1.43 1.43 1.43h2.427z" fill="#F9623B"/>
            <path d="M7.118 4.293c.17.196.464.215.68.074a3.485 3.485 0 0 1 3.799 0c.217.141.511.122.68-.074.17-.196.148-.494-.065-.642a4.423 4.423 0 0 0-5.029 0c-.213.148-.234.446-.065.642zM12.277 10.294c-.169-.197-.463-.216-.68-.075a3.485 3.485 0 0 1-3.798 0c-.217-.14-.512-.122-.68.075-.17.196-.149.494.064.641a4.423 4.423 0 0 0 5.03 0c.212-.147.233-.445.064-.641z" fill="#98A2B3"/>
        </g>
    </g>
    <defs>
        <clipPath id="tvaoyn4t0a">
            <path fill="#fff" transform="translate(0 .991)" d="M0 0h16v16H0z"/>
        </clipPath>
    </defs>
</svg>
