<svg width="25" height="24" viewBox="0 0 25 24" fill="none" xmlns="http://www.w3.org/2000/svg">
    <g clip-path="url(#rc852593ha)" stroke-width=".2">
        <path d="M13.933 14.912a2.843 2.843 0 0 0 2.84-2.84 2.844 2.844 0 0 0-2.84-2.841 2.844 2.844 0 0 0-2.841 2.84 2.844 2.844 0 0 0 2.84 2.841zm0-4.55c.944 0 1.71.768 1.71 1.71 0 .944-.769 1.71-1.71 1.71-.945 0-1.71-.77-1.71-1.71 0-.942.768-1.71 1.71-1.71z" fill="#F9623B" stroke="#F9623B"/>
        <path d="M15.786 15.77h-3.713a3.76 3.76 0 0 0-3.759 3.75v3.479A.99.99 0 0 0 9.316 24h9.217a.99.99 0 0 0 1.001-1.001v-3.476a3.751 3.751 0 0 0-3.748-3.752zm2.617 7.102h-1.04v-3.336a.467.467 0 0 0-.466-.466.467.467 0 0 0-.466.466v3.336h-5.026v-3.336a.467.467 0 0 0-.466-.466.467.467 0 0 0-.466.466v3.336H9.45v-3.35a2.627 2.627 0 0 1 2.624-2.62h3.713a2.62 2.62 0 0 1 2.617 2.617v3.353z" fill="#000" stroke="#000"/>
        <path d="M17.485 5.682a2.844 2.844 0 0 0 2.841-2.841A2.844 2.844 0 0 0 17.486 0a2.844 2.844 0 0 0-2.841 2.84 2.844 2.844 0 0 0 2.84 2.842zm0-4.551c.945 0 1.71.768 1.71 1.71 0 .941-.768 1.71-1.71 1.71-.944 0-1.71-.769-1.71-1.71 0-.942.766-1.71 1.71-1.71z" fill="#F9623B" stroke="#F9623B"/>
        <path d="M21.985 7.637a3.727 3.727 0 0 0-2.65-1.1h-3.773a3.745 3.745 0 0 0-3.01 1.53.567.567 0 0 0 .452.901c.173 0 .346-.08.456-.23a2.611 2.611 0 0 1 2.099-1.067h3.778c.699 0 1.354.272 1.85.768.495.496.768 1.154.768 1.85v3.353h-1.041v-3.337a.467.467 0 0 0-.466-.465.467.467 0 0 0-.465.465v3.337h-2.918a.565.565 0 1 0 0 1.13h5.017a.99.99 0 0 0 1-1v-3.483h.004c0-1.002-.389-1.943-1.1-2.652z" fill="#000" stroke="#000"/>
        <path d="M7.196 9.474a2.844 2.844 0 0 0 2.841-2.841 2.844 2.844 0 0 0-2.84-2.841 2.844 2.844 0 0 0-2.842 2.84 2.844 2.844 0 0 0 2.841 2.842zm0-4.554c.945 0 1.71.768 1.71 1.71 0 .944-.768 1.71-1.71 1.71-.944 0-1.71-.77-1.71-1.71 0-.942.769-1.71 1.71-1.71z" fill="#F9623B" stroke="#F9623B"/>
        <path d="M7.556 17.434H4.682v-3.34a.467.467 0 0 0-.466-.466.467.467 0 0 0-.465.466v3.34H2.71V14.08a2.625 2.625 0 0 1 2.627-2.618l3.736.003c.336 0 .649.06.961.186a.569.569 0 0 0 .739-.313.565.565 0 0 0-.313-.735 3.661 3.661 0 0 0-1.384-.269l-3.735-.003a3.76 3.76 0 0 0-3.759 3.749v3.479a.99.99 0 0 0 1.001 1.001h4.973a.565.565 0 1 0 0-1.127z" fill="#000" stroke="#000"/>
    </g>
    <defs>
        <clipPath id="rc852593ha">
            <path fill="#fff" transform="translate(.334)" d="M0 0h24v24H0z"/>
        </clipPath>
    </defs>
</svg>
