<svg width="16" viewBox="0 0 16 16" fill="none" preserveAspectRatio="xMidYMid meet" xmlns="http://www.w3.org/2000/svg">
<path d="M15.6801 11.6578L10.0747 1.94868C9.15909 0.344764 6.84379 0.344764 5.9315 1.94868L0.322735 11.6578C-0.592847 13.2617 0.546691 15.2543 2.39432 15.2543H13.5888C15.4364 15.2543 16.5957 13.242 15.6801 11.6578ZM7.99979 13.1003C7.51236 13.1003 7.10727 12.6952 7.10727 12.2078C7.10727 11.7204 7.51236 11.3153 7.99979 11.3153C8.48723 11.3153 8.89232 11.7204 8.87256 12.2309C8.89562 12.6952 8.46747 13.1003 7.99979 13.1003ZM8.81328 7.3302C8.77376 8.02182 8.73094 8.71016 8.69142 9.40178C8.67166 9.62574 8.67166 9.82993 8.67166 10.0506C8.6519 10.4162 8.36537 10.6994 7.99979 10.6994C7.63422 10.6994 7.35098 10.4359 7.32793 10.0704C7.26865 8.99339 7.20607 7.93619 7.14679 6.85923C7.12703 6.57599 7.10727 6.28946 7.08421 6.00622C7.08421 5.53855 7.34769 5.15322 7.77584 5.03136C8.20399 4.92926 8.62885 5.13346 8.81328 5.53855C8.87586 5.68017 8.89562 5.82179 8.89562 5.98646C8.87586 6.43767 8.83304 6.88558 8.81328 7.3302Z" fill="currentColor"/>
</svg>
