<svg width="231" height="179" viewBox="0 0 231 179" fill="none" xmlns="http://www.w3.org/2000/svg">
<path d="M131.53 113.028C131.53 141.414 108.512 164.425 80.1167 164.425C51.7218 164.425 28.7031 141.414 28.7031 113.028C28.7031 105.668 30.2502 98.6701 33.0384 92.3405C24.6977 88.5059 18.9075 80.0781 18.9075 70.2983C18.9075 56.9055 29.769 46.0476 43.1662 46.0476C54.1904 46.0476 63.498 53.3984 66.4477 63.466C70.8 62.2685 75.3844 61.6306 80.1167 61.6306C108.512 61.6306 131.53 84.6417 131.53 113.028Z" fill="#EBECF0"/>
<path d="M210.449 66.3769C205.587 64.6312 201.304 60.8036 197.325 55.8776V40.1769C197.325 34.793 193.023 30.4282 187.717 30.4282H111.544C106.238 30.4282 101.936 34.793 101.936 40.1769V79.8682C101.936 85.2521 106.238 89.6169 111.544 89.6169H187.716C193.022 89.6169 197.324 85.2521 197.324 79.8682V68.8181L210.448 66.3769H210.449Z" fill="white"/>
<path d="M187.109 90.439H110.42C104.836 90.439 100.292 85.8669 100.292 80.2475V40.6197C100.292 35.0003 104.836 30.4282 110.42 30.4282H187.108C192.692 30.4282 197.236 35.0003 197.236 40.6197V56.1302C201.606 61.4666 205.831 64.808 210.145 66.3446C210.34 66.4133 210.464 66.6059 210.447 66.8133C210.431 67.0207 210.279 67.1903 210.075 67.2281L197.234 69.5966V80.2464C197.234 85.8658 192.691 90.4378 187.107 90.4378L187.109 90.439ZM110.42 31.3449C105.338 31.3449 101.203 35.5056 101.203 40.6197V80.2475C101.203 85.3616 105.338 89.5223 110.42 89.5223H187.108C192.19 89.5223 196.325 85.3616 196.325 80.2475V69.215C196.325 68.9939 196.482 68.8036 196.698 68.7647L208.36 66.6127C204.366 64.816 200.448 61.5205 196.428 56.5852C196.361 56.5027 196.325 56.4007 196.325 56.2941V40.6185C196.325 35.5045 192.19 31.3438 187.108 31.3438H110.42V31.3449Z" fill="#DBDADC"/>
<path d="M108.145 75.6419C108.089 75.6419 108.032 75.6315 107.978 75.6096C107.745 75.5164 107.63 75.2492 107.722 75.012C107.803 74.8059 109.731 69.9134 113.421 65.4964C115.604 62.8826 117.949 60.993 120.392 59.8784C123.473 58.4725 126.705 58.3021 130.001 59.3741C143.449 63.7485 152.214 64.1239 160.005 53.5984C162.971 49.5913 165.56 47.4692 168.156 46.92C170.48 46.4283 172.425 47.2896 174.306 48.1221C175.085 48.4675 175.892 48.8245 176.699 49.0663C180.058 50.0749 188.221 51.5074 191.485 43.0522C191.576 42.815 191.841 42.6987 192.074 42.7908C192.308 42.8841 192.423 43.1512 192.332 43.3873C190.897 47.1053 188.407 49.4462 184.933 50.3467C181.585 51.2137 178.175 50.4699 176.441 49.9494C175.579 49.6904 174.748 49.3219 173.942 48.9661C170.311 47.3587 166.883 45.841 160.732 54.1511C156.876 59.3614 152.675 62.1514 147.509 62.9321C142.941 63.623 137.622 62.8204 129.722 60.2515C124.131 58.4322 118.884 60.392 114.129 66.0756C110.53 70.3763 108.587 75.3022 108.568 75.3505C108.497 75.5313 108.326 75.6419 108.145 75.6419Z" fill="#263C93"/>
<path d="M166.879 50.98C168.695 50.98 170.167 49.8758 170.167 48.5138C170.167 47.1518 168.695 46.0476 166.879 46.0476C165.063 46.0476 163.591 47.1518 163.591 48.5138C163.591 49.8758 165.063 50.98 166.879 50.98Z" fill="#F05858"/>
<path d="M136.463 65.7772C137.825 65.7772 138.929 64.489 138.929 62.8999C138.929 61.3109 137.825 60.0227 136.463 60.0227C135.101 60.0227 133.997 61.3109 133.997 62.8999C133.997 64.489 135.101 65.7772 136.463 65.7772Z" fill="#F1623D"/>
<path d="M107.691 78.9302C109.053 78.9302 110.157 77.826 110.157 76.464C110.157 75.102 109.053 73.9978 107.691 73.9978C106.329 73.9978 105.224 75.102 105.224 76.464C105.224 77.826 106.329 78.9302 107.691 78.9302Z" fill="#263C93"/>
<path d="M190.308 46.0477C191.897 46.0477 193.185 44.7595 193.185 43.1704C193.185 41.5814 191.897 40.2932 190.308 40.2932C188.719 40.2932 187.431 41.5814 187.431 43.1704C187.431 44.7595 188.719 46.0477 190.308 46.0477Z" fill="#263C93"/>
<path d="M125.226 81.3965H108.24C107.483 81.3965 106.868 82.1323 106.868 83.0399V83.0413C106.868 83.9489 107.483 84.6847 108.24 84.6847H125.226C125.984 84.6847 126.598 83.9489 126.598 83.0413V83.0399C126.598 82.1323 125.984 81.3965 125.226 81.3965Z" fill="#DBDADC"/>
<path d="M155.642 81.3965H138.657C137.899 81.3965 137.285 82.1323 137.285 83.0399V83.0413C137.285 83.9489 137.899 84.6847 138.657 84.6847H155.642C156.4 84.6847 157.014 83.9489 157.014 83.0413V83.0399C157.014 82.1323 156.4 81.3965 155.642 81.3965Z" fill="#C9E1F4"/>
<path d="M186.059 81.3965H169.073C168.315 81.3965 167.701 82.1323 167.701 83.0399V83.0413C167.701 83.9489 168.315 84.6847 169.073 84.6847H186.059C186.816 84.6847 187.431 83.9489 187.431 83.0413V83.0399C187.431 82.1323 186.816 81.3965 186.059 81.3965Z" fill="#DBDADC"/>
<path d="M185.787 117.495V102.842C185.787 100.078 183.443 97.8376 180.553 97.8376H115.391C112.5 97.8376 110.157 100.078 110.157 102.842V117.495C110.157 120.259 112.5 122.5 115.391 122.5H180.553C183.443 122.5 185.787 120.259 185.787 117.495Z" fill="white"/>
<path d="M180.924 123.322H115.842C112.707 123.322 110.157 120.728 110.157 117.54V101.975C110.157 98.787 112.707 96.1936 115.842 96.1936H180.924C184.059 96.1936 186.609 98.787 186.609 101.975V117.54C186.609 120.728 184.059 123.322 180.924 123.322ZM115.842 97.1244C113.212 97.1244 111.072 99.3001 111.072 101.975V117.54C111.072 120.215 113.212 122.391 115.842 122.391H180.924C183.554 122.391 185.693 120.215 185.693 117.54V101.975C185.693 99.3001 183.554 97.1244 180.924 97.1244H115.842Z" fill="#DBDADC"/>
<path d="M180.561 100.304H115.382C114.312 100.304 113.445 101.211 113.445 102.33V117.185C113.445 118.304 114.312 119.211 115.382 119.211H180.561C181.631 119.211 182.498 118.304 182.498 117.185V102.33C182.498 101.211 181.631 100.304 180.561 100.304Z" fill="#DBDADC"/>
<path d="M106.663 107.703H99.6749C98.6536 107.703 97.8257 108.494 97.8257 109.471V114.155C97.8257 115.132 98.6536 115.923 99.6749 115.923H106.663C107.685 115.923 108.513 115.132 108.513 114.155V109.471C108.513 108.494 107.685 107.703 106.663 107.703Z" fill="white"/>
<path d="M133.175 115.923H178.388V104.56C178.388 104.56 172.797 103.593 168.626 106.636C164.454 109.679 160.844 109.385 156.305 107.682C151.765 105.98 148.565 109.33 144.415 110.168C140.265 111.005 136.114 109.585 135.51 109.585C134.905 109.585 133.175 111.528 133.175 111.528V115.922V115.923Z" fill="#F1623D"/>
<path d="M166.468 26.318C173.959 26.318 180.032 20.6132 180.032 13.576C180.032 6.53877 173.959 0.833984 166.468 0.833984C158.977 0.833984 152.904 6.53877 152.904 13.576C152.904 20.6132 158.977 26.318 166.468 26.318Z" fill="#F1623D"/>
<path d="M103.58 42.7595C109.028 42.7595 113.445 38.3429 113.445 32.8947C113.445 27.4465 109.028 23.0299 103.58 23.0299C98.1319 23.0299 93.7153 27.4465 93.7153 32.8947C93.7153 38.3429 98.1319 42.7595 103.58 42.7595Z" fill="#DBDADC"/>
<path d="M117.555 24.2917L115.44 22.2079L103.753 35.0608L99.042 30.5477L97.0035 33.0053L103.753 39.4712L117.555 24.2917Z" fill="#F1623D"/>
<path d="M203.049 31.2503L201.315 21.8076L199.152 24.4564C196.932 22.0729 192.341 17.6978 187.555 16.4531C186.226 18.5963 186.273 19.3479 184.965 21.6174C184.965 21.6174 192.146 23.1172 197.007 27.0847L194.827 29.7528L203.05 31.2503H203.049Z" fill="#F1623D"/>
<path d="M135.332 37.0049H119.508C118.884 37.0049 118.377 37.557 118.377 38.238C118.377 38.919 118.884 39.4711 119.508 39.4711H135.332C135.957 39.4711 136.463 38.919 136.463 38.238C136.463 37.557 135.957 37.0049 135.332 37.0049Z" fill="#EBECF0"/>
<path d="M146.841 37.0049H140.059C139.435 37.0049 138.929 37.557 138.929 38.238C138.929 38.919 139.435 39.4711 140.059 39.4711H146.841C147.466 39.4711 147.972 38.919 147.972 38.238C147.972 37.557 147.466 37.0049 146.841 37.0049Z" fill="#EBECF0"/>
<path d="M45.2135 166.069C41.694 166.069 38.5085 167.45 36.2032 169.681C33.8967 171.913 32.4715 174.995 32.4715 178.4C32.4715 174.995 31.0452 171.913 28.7398 169.681C26.4333 167.448 23.249 166.069 19.7295 166.069C26.7661 166.069 32.4715 160.548 32.4715 153.738C32.4715 157.143 33.8978 160.226 36.2032 162.458C38.5097 164.69 41.6952 166.069 45.2135 166.069Z" fill="#EBECF0"/>
<path d="M63.2991 119.264C63.2991 119.264 50.2082 139.65 48.6173 138.027C48.337 137.742 47.7051 137.396 46.8385 136.955C45.3099 136.174 43.0504 135.091 40.713 133.499C36.8426 130.865 32.7575 126.835 31.4069 120.477C28.7792 108.103 57.7755 78.1082 57.7755 78.1082L63.2991 119.264Z" fill="white"/>
<path d="M55.9003 113.818L52.7231 129.293C52.7231 129.293 47.7128 135.771 46.491 135.651C46.419 135.644 46.331 135.63 46.2305 135.607C44.6602 134.835 42.339 133.764 39.9378 132.19C40.6224 130.62 41.9436 127.567 42.2133 126.775C42.5801 125.694 43.0693 121.016 43.0693 121.016C43.0693 121.016 40.6247 118.497 39.5252 111.779C38.9412 108.211 42.3207 104.102 45.619 101.033C45.7985 96.6776 48.5139 90.439 48.5139 90.439L55.9003 113.818Z" fill="#C9E1F4"/>
<path d="M84.2127 64.2737C83.1892 68.2101 80.9106 69.5669 78.1687 69.7813C76.9322 69.8799 75.9807 70.9542 75.9807 72.2407V81.0074C71.6987 82.6138 62.4771 78.7261 62.4771 78.7261C62.4771 78.7261 63.9812 69.3093 63.9812 62.3225C63.9812 49.98 63.9812 40.2932 73.9107 40.2932C83.8403 40.2932 85.718 58.4938 84.2127 64.2759V64.2737Z" fill="#FFD4CC"/>
<path d="M93.7114 149.222C93.7114 149.222 93.2262 149.408 92.2875 149.687C87.0294 151.245 67.5513 155.677 39.5386 146.233C38.8396 139.67 42.9474 133.222 43.9461 127.095C46.0735 114.044 46.8313 97.4205 49.885 88.3449C52.7374 79.8666 57.9649 78.4944 57.9649 78.4944C57.9649 78.4944 67.2063 76.094 83.4724 83.2613C87.5022 85.0373 89.9497 94.7475 91.4335 106.195C93.9116 125.291 93.7114 149.222 93.7114 149.222Z" fill="white"/>
<path d="M93.7113 148.34C93.7113 148.34 93.2135 148.527 92.2503 148.806C91.2941 143.067 88.2687 125.442 86.7149 122.608C84.8535 119.214 78.0288 112.425 76.2916 107.698C74.5544 102.97 76.7871 100.304 76.7871 100.304C76.7871 100.304 86.0987 102.876 91.3742 105.221C93.9167 124.358 93.7113 148.34 93.7113 148.34Z" fill="#AAC8DC"/>
<path d="M127.42 84.1227C127.42 84.1227 129.155 82.3903 130.561 78.6758C131.966 74.9613 129.772 71.7681 129.728 70.4471C129.685 69.1261 133.099 69.7687 133.986 73.2404C134.627 75.7472 135.187 75.3358 135.187 75.3358C135.187 75.3358 136.035 75.805 137.344 72.4522C138.568 69.3145 136.405 64.9551 138.249 64.9551C140.094 64.9551 143.354 72.5852 141.817 77.4785C140.28 82.3706 132.445 89.617 132.445 89.617L127.42 84.1239V84.1227Z" fill="#F27876"/>
<path d="M133.997 90.9676C133.997 90.9676 119.838 126.459 105.618 127.407C92.4804 128.285 76.6164 105.356 74.2799 101.863C74.0861 101.574 73.9858 101.419 73.9858 101.419L82.9328 83.0405C91.8877 87.0396 98.5666 98.231 104.726 105.17C111.745 99.0806 126.449 83.0405 126.449 83.0405C130.428 85.5961 133.082 88.0391 133.834 90.3186C133.905 90.5361 133.96 90.7524 133.997 90.9676Z" fill="white"/>
<path d="M105.622 105.236C105.493 105.236 105.365 105.183 105.273 105.078C103.625 103.185 101.96 101.014 100.197 98.7155C95.3734 92.4256 89.9061 85.2959 83.3011 82.2892C83.0685 82.1831 82.9643 81.9066 83.0697 81.6722C83.175 81.4378 83.4493 81.3328 83.6819 81.4389C90.4975 84.5413 96.0401 91.7678 100.93 98.144C102.574 100.288 104.132 102.321 105.663 104.107C112.82 97.674 127.19 81.713 127.337 81.5497C127.49 81.3806 127.742 81.3468 127.932 81.4716C132.346 84.3617 134.86 86.9066 135.618 89.2521C135.697 89.497 135.565 89.7606 135.322 89.8399C135.079 89.9192 134.817 89.7862 134.738 89.5413C134.076 87.4933 131.728 85.1152 127.757 82.4723C125.713 84.7349 112.47 99.3348 105.927 105.12C105.839 105.198 105.731 105.235 105.622 105.235V105.236Z" fill="#C9E1F4"/>
<path d="M57.5444 77.6464L60.6912 71.5315C60.6912 71.5315 75.8421 73.5238 77.2441 74.9565C78.645 76.3891 80.5623 81.3963 80.5623 81.3963C80.5623 81.3963 62.6839 78.3978 57.5444 77.6476V77.6464Z" fill="#F1623D"/>
<path d="M78.0952 69.5634C76.948 69.6365 76.0653 70.4317 76.0653 71.3839V71.5317C75.143 71.1849 72.958 70.1739 72.3418 68.2434C73.5965 69.283 78.0963 69.5643 78.0963 69.5643L78.0952 69.5634Z" fill="#F4BDB5"/>
<path d="M76.5921 53.1864C76.5921 53.1864 84.0853 54.5174 86.3994 49.7063C88.7135 44.8964 84.8571 41.3138 84.8571 41.3138C84.8571 41.3138 77.7888 39.4712 75.3727 39.4712C72.9566 39.4712 65.269 39.8513 64.7877 43.8508C60.6133 43.8508 60.588 51.9569 61.5374 54.0035C59.9519 57.8927 61.5374 64.2375 61.5374 64.2375C61.5374 64.2375 62.6045 65.5294 64.25 64.6466C65.8955 63.7649 65.0074 55.7959 66.348 55.078C67.6887 54.3591 68.7041 54.6177 69.2874 56.613C69.8708 58.6083 69.8708 60.0418 69.8708 60.0418C69.8708 60.0418 70.807 61.4742 71.3579 60.0418C71.9088 58.6094 72.2401 54.669 72.2401 54.669C72.2401 54.669 76.1241 56.1782 76.5933 53.1853L76.5921 53.1864Z" fill="#091558"/>
<path d="M133.997 90.2848C133.997 90.2848 119.963 127.253 105.869 128.229C92.8474 129.132 77.1237 105.091 74.8079 101.497C76.0866 101.92 78.0184 102.973 80.2777 105.566C84.384 110.278 100.208 125.032 107.577 123.296C113.995 121.784 129.847 96.1998 133.835 89.6169C133.906 89.8407 133.96 90.0634 133.997 90.2848Z" fill="#C9E1F4"/>
<path d="M197.089 87.9728L195.841 87.5231L196.048 86.8786L197.295 87.3283L197.089 87.9728ZM194.595 87.0722L193.348 86.6225L193.555 85.978L194.802 86.4277L194.595 87.0722ZM192.102 86.1716L190.855 85.7219L191.062 85.0773L192.309 85.527L192.102 86.1716ZM189.609 85.2709L188.361 84.8212L188.568 84.1767L189.815 84.6264L189.609 85.2709ZM187.115 84.3703L185.868 83.9206L186.075 83.2761L187.322 83.7258L187.115 84.3703ZM184.622 83.4697L183.375 83.02L183.582 82.3755L184.829 82.8252L184.622 83.4697ZM182.129 82.5691L180.881 82.1194L181.088 81.4748L182.335 81.9245L182.129 82.5691ZM179.635 81.6684L178.388 81.2187L178.595 80.5742L179.842 81.0239L179.635 81.6684Z" fill="#323F8B"/>
<path d="M198.432 87.1534L198.228 87.751L198.826 87.9545L199.029 87.3569L198.432 87.1534Z" fill="#323F8B"/>
<path d="M197.781 128.618L197.373 129.099L197.854 129.507L198.263 129.026L197.781 128.618Z" fill="#323F8B"/>
<path d="M198.622 128.254L198.117 127.837L199.028 126.794L199.532 127.211L198.622 128.254ZM200.441 126.168L199.937 125.752L200.847 124.708L201.352 125.125L200.441 126.168ZM202.261 124.083L201.756 123.666L202.666 122.622L203.171 123.039L202.261 124.083ZM204.08 121.997L203.575 121.58L204.486 120.537L204.99 120.953L204.08 121.997ZM205.899 119.911L205.395 119.494L206.305 118.451L206.81 118.868L205.899 119.911ZM207.719 117.825L207.214 117.408L208.124 116.365L208.629 116.782L207.719 117.825ZM209.538 115.74L209.034 115.323L209.944 114.279L210.448 114.696L209.538 115.74Z" fill="#323F8B"/>
<path d="M211.216 112.797L210.808 113.278L211.289 113.686L211.697 113.205L211.216 112.797Z" fill="#323F8B"/>
<path d="M201.406 136.475C201.406 137.121 201.377 137.759 201.321 138.39C200.97 142.356 199.534 146.012 197.311 149.057C196.871 149.66 196.401 150.239 195.902 150.791C191.991 155.125 186.33 157.848 180.032 157.848C173.384 157.848 167.444 154.813 163.524 150.052C163.193 149.65 162.877 149.235 162.575 148.811C162.342 148.483 162.12 148.147 161.905 147.805C160.543 145.63 159.561 143.193 159.053 140.587C158.793 139.256 158.658 137.882 158.658 136.474C158.658 124.671 168.227 115.101 180.032 115.101C191.837 115.101 201.406 124.671 201.406 136.474V136.475Z" fill="#F1623D"/>
<path d="M197.295 149.025C196.859 149.63 196.391 150.211 195.895 150.765C192.008 155.115 186.381 157.848 180.121 157.848C173.512 157.848 167.608 154.802 163.712 150.023C163.383 149.619 163.068 149.203 162.769 148.777C166.719 138.38 174.424 135.09 182.735 135.729C187.548 136.099 194.463 138.467 197.295 149.025Z" fill="white"/>
<path d="M182.735 135.729C182.079 135.679 181.429 135.653 180.782 135.653C173.233 135.653 166.407 139.2 162.769 148.777C163.068 149.205 163.384 149.621 163.712 150.023C167.608 154.802 173.512 157.848 180.121 157.848C186.381 157.848 192.008 155.115 195.895 150.765C196.391 150.211 196.859 149.63 197.295 149.025C194.463 138.468 187.547 136.099 182.735 135.729ZM195.427 150.339C193.512 152.482 191.227 154.17 188.637 155.359C185.955 156.588 183.09 157.212 180.121 157.212C173.936 157.212 168.134 154.444 164.198 149.618C163.952 149.317 163.712 149.004 163.481 148.686C165.153 144.435 167.566 141.229 170.658 139.154C173.491 137.253 176.897 136.29 180.783 136.29C181.404 136.29 182.045 136.315 182.687 136.364C185.645 136.591 188.236 137.503 190.389 139.073C193.281 141.182 195.371 144.485 196.606 148.895C196.235 149.393 195.84 149.877 195.427 150.339Z" fill="#DBDADC"/>
<path d="M184.964 140.263C183.009 143.477 179.434 142.368 177.264 139.679C177.264 139.679 177.335 137.456 177.178 136.067C177.174 136.032 177.171 135.998 177.166 135.964C177.1 135.431 176.996 135.042 176.838 134.984C176.507 134.865 176.187 134.807 175.935 134.779C175.905 134.775 175.875 134.772 175.847 134.769C175.594 134.747 175.43 134.754 175.43 134.754C173.827 134.667 172.665 132.084 172.665 129.177C172.665 126.271 171.805 120.515 179.116 120.871C186.427 121.228 184.523 131.314 184.523 131.314L184.963 140.263H184.964Z" fill="#FFD4CC"/>
<path d="M171.87 124.586C171.87 124.586 172.749 126.592 175.397 126.592C178.045 126.592 179.771 126.588 179.982 127.205C180.193 127.822 179.412 129.053 180.466 129.361C181.52 129.669 180.779 126.782 181.325 126.782C181.872 126.782 183.552 127.514 183.201 128.899C182.849 130.286 183.249 130.979 183.249 130.979C183.249 130.979 183.515 132.364 184.394 132.364C185.273 132.364 185.272 132.058 185.272 132.058C185.272 132.058 187.085 123.818 183.904 122.008C183.006 118.851 177.301 120.313 175.973 120.776C171.87 120.276 171.647 124.209 171.87 124.589V124.586Z" fill="#263C93"/>
<path d="M231 98.6597C231 104.26 228.565 109.292 224.696 112.755C224.51 112.921 224.321 113.084 224.129 113.242C220.859 115.944 216.666 117.567 212.093 117.567C208.846 117.567 205.792 116.749 203.123 115.308C202.832 115.15 202.544 114.985 202.261 114.813C196.818 111.493 193.185 105.501 193.185 98.6597C193.185 88.2169 201.65 79.7522 212.093 79.7522C222.535 79.7522 231 88.2169 231 98.6597Z" fill="#DBDADC"/>
<path d="M217.804 88.796C217.804 88.796 216.685 93.1118 219.803 93.9087C222.92 94.7056 223.448 95.2033 223.305 97.2949C223.161 99.3864 222.154 99.6857 224.887 101.777C227.622 103.869 225.079 106.857 222.585 105.861C220.091 104.864 216.157 103.969 215.533 98.4404C214.909 92.9122 216.397 90.8207 216.54 90.7209C216.684 90.6212 217.803 88.7949 217.803 88.7949L217.804 88.796Z" fill="#263C93"/>
<path d="M209.181 89.6169C209.181 89.6169 210.57 92.695 208.368 93.0011C206.167 93.306 204.576 93.8937 205.017 95.9384C205.457 97.9831 205.824 98.2414 204.503 98.7348C203.182 99.2283 200.71 99.4866 201.591 101.719C202.472 103.951 204.503 104.727 205.653 104.303C206.803 103.881 212.895 100.356 212.895 100.356C212.895 100.356 214.559 95.374 214.559 95.2564C214.559 95.1389 212.944 90.5328 212.944 90.5328L209.181 89.6169Z" fill="#263C93"/>
<path d="M225.246 112.714C225.055 112.882 224.861 113.045 224.664 113.206C221.309 115.93 217.007 117.567 212.315 117.567C208.984 117.567 205.85 116.742 203.112 115.289C202.813 115.13 202.518 114.963 202.228 114.79C202.308 113.585 202.439 112.55 202.411 111.474C202.305 107.421 204.419 99.0009 212.667 98.6897C220.914 98.3786 221.972 100.457 223.241 106.07C223.628 107.786 224.382 110.182 225.245 112.713L225.246 112.714Z" fill="white"/>
<path d="M223.242 106.07C222.055 100.817 221.053 98.6597 214.169 98.6597C213.697 98.6597 213.197 98.67 212.667 98.6894C204.419 99.0017 202.305 107.421 202.411 111.474C202.439 112.55 202.308 113.584 202.228 114.789C202.518 114.962 202.813 115.13 203.112 115.289C205.85 116.741 208.984 117.567 212.315 117.567C217.007 117.567 221.309 115.93 224.664 113.205C224.862 113.045 225.055 112.881 225.246 112.714C224.383 110.183 223.629 107.787 223.242 106.071V106.07ZM224.252 112.715C222.606 114.051 220.762 115.093 218.769 115.811C216.705 116.555 214.534 116.931 212.315 116.931C209.21 116.931 206.134 116.169 203.42 114.729C203.247 114.638 203.074 114.542 202.902 114.443C202.917 114.243 202.933 114.046 202.948 113.853C203.015 113.035 203.079 112.262 203.058 111.456C203.006 109.519 203.482 106.54 204.968 103.994C205.762 102.632 206.759 101.55 207.932 100.775C209.287 99.8802 210.888 99.3918 212.693 99.3231C213.214 99.3037 213.711 99.2934 214.17 99.2934C217.383 99.2934 219.243 99.759 220.392 100.85C221.471 101.875 222.004 103.522 222.61 106.206C222.943 107.682 223.561 109.746 224.496 112.511C224.415 112.58 224.333 112.647 224.252 112.712V112.715Z" fill="#DBDADC"/>
<path d="M206.558 112.635L206.338 115.806L207.16 115.923L206.558 112.635Z" fill="#DBDADC"/>
<path d="M217.008 90.8917C216.728 96.1378 216.112 95.8415 216.616 99.8991C216.616 99.8991 213.313 101.384 211.745 101.086C210.177 100.789 210.514 98.4144 210.514 98.4144L210.675 96.9569L210.73 96.4548C210.759 96.1999 210.549 95.9744 210.271 95.9471H210.27C210.247 95.945 210.224 95.9439 210.201 95.9439C209.551 95.9548 208.504 95.8328 207.769 95.0496C206.146 93.3165 207.938 85.944 211.128 84.9539C214.32 83.9648 217.288 85.6467 217.007 90.8928L217.008 90.8917Z" fill="#FFD4CC"/>
<path d="M212.093 95.3713C212.093 96.8559 211.268 97.5485 210.748 97.8375L210.789 96.9723C210.81 96.5331 210.655 96.1446 210.449 96.0977C210.678 96.1127 211.616 96.1296 212.093 95.3732V95.3713Z" fill="#F4BDB5"/>
<path d="M210.449 86.9167C210.449 86.9167 210.449 89.2537 212.317 90.4479C214.186 91.641 216.269 95.3714 216.269 95.3714C216.269 95.3714 218.993 90.8463 217.284 87.6632C215.575 84.4801 210.875 83.287 210.449 86.9178V86.9167Z" fill="#263C93"/>
<path d="M207.164 90.2658C207.164 90.2658 208.978 91.1328 210.741 88.9879C212.503 86.843 212.037 84.9261 212.037 84.9261C212.037 84.9261 210.637 84.0591 208.823 85.6103C207.008 87.1614 207.164 90.2658 207.164 90.2658Z" fill="#263C93"/>
<path d="M215.775 98.6597C215.775 98.6597 213.651 100.873 213.321 105.172C212.94 109.849 212.915 110.169 212.915 110.169C212.915 110.169 215.53 106.408 216.275 104.816C217.02 103.224 217.847 98.9984 217.847 98.9984L215.775 98.6597Z" fill="#F1623D"/>
<path d="M210.519 98.6597C210.519 98.6597 211.702 107.381 212.915 110.169C211.664 109.39 210.549 108.612 209.751 106.567C208.572 103.54 207.982 99.5163 207.982 99.5163L210.518 98.6597H210.519Z" fill="#F1623D"/>
<path d="M191.541 150.45L191.717 153.738L192.363 153.454L191.541 150.45Z" fill="#DBDADC"/>
<path d="M13.1529 18.0984C13.1529 18.0984 15.5375 41.314 21.9326 46.8696C21.9326 46.8696 29.4715 39.7091 35.3487 39.7286C24.4827 31.8798 26.533 20.6185 26.533 20.6185C26.533 20.6185 17.1746 21.591 13.1529 18.0973V18.0984Z" fill="white"/>
<path d="M21.0137 46.8686C20.9304 46.8686 20.8471 46.8417 20.7803 46.7869C17.9563 44.4878 15.538 39.0152 13.5912 30.5222C12.1499 24.2321 11.5166 18.5313 11.5107 18.4754C11.4955 18.3356 11.5706 18.2014 11.7007 18.1366C11.8309 18.0717 11.9904 18.0885 12.1018 18.1791C16.1244 21.4544 25.6731 20.5687 25.7692 20.5598C25.8818 20.5497 25.9932 20.5889 26.0706 20.6683C26.148 20.7477 26.1809 20.8572 26.1598 20.9635C26.1551 20.9903 25.6484 23.7087 26.5116 27.3095C27.3055 30.6239 29.4564 35.3899 35.1971 39.2757C35.3249 39.3618 35.3789 39.5184 35.3319 39.6604C35.2839 39.8024 35.1455 39.8986 34.9895 39.8986C34.9813 39.8986 34.9731 39.8986 34.9649 39.8986C29.06 39.8986 21.3385 46.7087 21.2611 46.7769C21.1919 46.8384 21.104 46.8697 21.016 46.8697L21.0137 46.8686ZM12.3235 19.1944C12.8324 23.1843 15.3961 41.0582 21.0125 46.0634C22.3295 44.9351 28.5323 39.8505 33.9739 39.2668C31.7222 37.6185 29.8751 35.7119 28.4748 33.5906C27.2223 31.693 26.3228 29.6197 25.8021 27.4302C25.1101 24.5206 25.2708 22.2103 25.3857 21.2788C23.4894 21.4152 16.3074 21.7395 12.3223 19.1944H12.3235Z" fill="#DBDADC"/>
<path d="M16.2996 25.5012C17.6876 25.6278 21.5218 25.9417 23.9691 25.7835C24.2504 25.7654 24.518 25.8428 24.5948 25.9643C24.7981 26.2843 24.474 26.23 24.474 26.23C24.474 26.23 20.4286 26.5399 16.0432 25.9959C15.867 25.9738 15.7224 25.9161 15.6603 25.8397C15.6569 25.8357 15.6547 25.8322 15.6513 25.8282C15.5067 25.6449 15.8715 25.462 16.2996 25.5012Z" fill="#F1623D"/>
<path d="M16.3344 27.9774C17.8242 28.3511 22.1071 29.3178 24.8015 28.8239C25.1088 28.7669 25.4026 29.0101 25.468 29.3793C25.468 29.3853 25.4704 29.3928 25.4717 29.3988C25.542 29.8131 25.3001 30.2094 24.9558 30.2559C23.5709 30.442 19.8731 30.7512 16.0814 29.4619C15.8963 29.3988 15.7457 29.2322 15.6803 29.0131C15.6679 28.974 15.6581 28.935 15.6482 28.899C15.5087 28.3767 15.8926 27.8663 16.3344 27.9774Z" fill="#DBDADC"/>
<path d="M18.6825 32.0763C19.9481 32.1918 23.4395 32.4692 25.6396 32.2472C25.8931 32.2215 26.1415 32.3022 26.2213 32.4367C26.2724 32.523 26.4482 32.6104 26.0638 32.685C24.8748 32.9159 21.5174 33.0286 18.4882 32.6329C18.3267 32.6116 18.1928 32.5499 18.1304 32.4658C18.1273 32.4613 18.1243 32.4574 18.1212 32.4535C17.976 32.2517 18.2929 32.041 18.6825 32.0763Z" fill="#DBDADC"/>
<path d="M27.8514 34.9535C27.7567 34.6484 27.4954 34.4796 27.2404 34.5575C26.6242 34.7445 25.9018 34.8496 25.1513 34.899C24.7766 34.9236 24.5465 35.4235 24.7214 35.839C24.8192 36.0715 25.0212 36.2065 25.2304 36.1792C26.3275 36.0403 27.2185 35.8001 27.7161 35.5391C28.0991 35.3378 27.9107 35.1496 27.8503 34.9535H27.8514Z" fill="#DBDADC"/>
<path d="M33.7045 79.7447L18.0853 85.5068L27.9575 71.5317C30.547 73.5973 32.5643 76.4426 33.7045 79.7447Z" fill="#263C93"/>
<path d="M34.5266 89.7878C33.009 98.1145 25.924 104.414 17.4131 104.414C7.79612 104.414 -0.00012207 96.3701 -0.00012207 86.4471C-0.00012207 79.67 3.63564 73.7704 9.00503 70.7097L17.5737 85.9477L34.5266 89.7878Z" fill="white"/>
<path d="M17.5737 85.9477L9.00503 70.7097C3.63564 73.7704 -0.00012207 79.67 -0.00012207 86.4471C-0.00012207 96.3701 7.79612 104.414 17.4131 104.414C25.924 104.414 33.009 98.1145 34.5266 89.7878L17.5737 85.9477ZM17.4131 103.481C13.0038 103.481 8.85802 101.71 5.7402 98.4914C2.62238 95.2744 0.904577 90.9967 0.904577 86.4471C0.904577 80.551 3.86181 75.0936 8.67934 71.9898L16.7911 86.4156C16.9189 86.642 17.1315 86.803 17.3792 86.859L33.4523 90.4996C31.6655 98.0737 25.0555 103.48 17.4131 103.48V103.481Z" fill="#DBDADC"/>
<path d="M27.9501 72.3988L17.6645 85.5068L9.04259 71.1644C11.5505 69.8267 14.4351 69.0656 17.5029 69.0656C21.4173 69.0656 25.0325 70.3044 27.9501 72.3988Z" fill="#F05858"/>
<path d="M35.3487 86.4646C35.3487 87.5415 35.2457 88.5953 35.0488 89.6172L18.0853 85.9933L34.268 80.5745C34.9673 82.409 35.3487 84.3933 35.3487 86.4646Z" fill="#F1623D"/>
</svg>
