<svg width="216" height="183" viewBox="0 0 216 183" fill="none" xmlns="http://www.w3.org/2000/svg">
<path d="M29.3652 125.529C29.3652 156.938 54.8274 182.4 86.2364 182.4C117.647 182.4 143.108 156.938 143.108 125.529C143.108 117.385 141.396 109.641 138.312 102.637C147.538 98.3943 153.943 89.0689 153.943 78.2473C153.943 63.428 141.929 51.4136 127.109 51.4136C114.915 51.4136 104.619 59.5474 101.356 70.6873C96.5421 69.3623 91.4711 68.6564 86.2364 68.6564C54.8274 68.6564 29.3652 94.1186 29.3652 125.529Z" fill="#ECEDF2"/>
<path d="M24.4794 110.459C31.7931 110.459 37.722 104.53 37.722 97.2165C37.722 89.9028 31.7931 83.9739 24.4794 83.9739C17.1657 83.9739 11.2368 89.9028 11.2368 97.2165C11.2368 104.53 17.1657 110.459 24.4794 110.459Z" fill="#F9623B"/>
<path d="M204.394 98.9043C204.394 105.047 199.413 110.028 193.27 110.028C199.413 110.028 204.394 115.008 204.394 121.151C204.394 115.008 209.374 110.028 215.517 110.028C209.374 110.028 204.394 105.047 204.394 98.9043Z" fill="#ECEDF2"/>
<path d="M64.3086 9.882C62.8716 8.03478 60.2102 7.70133 58.363 9.13833C56.7838 10.3665 56.312 12.4893 57.1047 14.2333L49.4704 20.1713C49.0401 20.506 48.9621 21.1264 49.2968 21.5567C49.4641 21.7719 49.7032 21.899 49.9536 21.9305C50.204 21.9619 50.467 21.8977 50.6822 21.7304L58.3165 15.7923C59.8126 16.9903 61.9857 17.0557 63.5649 15.8276C65.4121 14.3918 65.7443 11.7292 64.3086 9.88326V9.882ZM62.8313 14.8826C61.5063 15.9144 59.5949 15.6753 58.5643 14.3491C57.5338 13.024 57.7729 11.1126 59.0979 10.0821C60.4229 9.05025 62.3343 9.28933 63.3649 10.6156C64.3967 11.9419 64.1563 13.852 62.8313 14.8826Z" fill="#323F8B"/>
<path d="M50.6747 24.6006H47.5049V29.6075H50.6747V24.6006Z" fill="#F9623B"/>
<path d="M56.1632 20.9426H52.9935V29.6087H56.1632V20.9426Z" fill="#DBDBDD"/>
<path d="M61.651 20.9426H58.4813V29.6087H61.651V20.9426Z" fill="#F9623B"/>
<path d="M67.1396 16.4165H63.9698V29.6075H67.1396V16.4165Z" fill="#DBDBDD"/>
<path d="M72.6272 11.4095H69.4575V29.6074H72.6272V11.4095Z" fill="#F9623B"/>
<path d="M172.847 127.908V143.488C172.847 146.622 170.305 149.165 167.169 149.165H156.507V128.793C156.507 128.305 156.902 127.909 157.391 127.909H172.847V127.908Z" fill="#ECEDF2"/>
<path d="M172.847 143.14V143.486C172.847 146.621 170.305 149.164 167.169 149.164H166.582C166.582 149.164 168.659 146.499 167.827 143.383C170.977 144.872 172.847 143.14 172.847 143.14Z" fill="#DBDBDD"/>
<path d="M158.576 131.181C159.05 131.181 159.433 130.797 159.433 130.324C159.433 129.851 159.05 129.467 158.576 129.467C158.103 129.467 157.719 129.851 157.719 130.324C157.719 130.797 158.103 131.181 158.576 131.181Z" fill="#F35757"/>
<path d="M169.066 131.958H163.752C163.393 131.958 163.103 132.249 163.103 132.608C163.103 132.966 163.393 133.257 163.752 133.257H169.066C169.424 133.257 169.715 132.966 169.715 132.608C169.715 132.249 169.424 131.958 169.066 131.958Z" fill="white"/>
<path d="M169.066 135.152H159.758C159.399 135.152 159.109 135.443 159.109 135.801C159.109 136.16 159.399 136.451 159.758 136.451H169.066C169.424 136.451 169.715 136.16 169.715 135.801C169.715 135.443 169.424 135.152 169.066 135.152Z" fill="white"/>
<path d="M169.066 138.536H159.758C159.399 138.536 159.109 138.827 159.109 139.185C159.109 139.544 159.399 139.835 159.758 139.835H169.066C169.424 139.835 169.715 139.544 169.715 139.185C169.715 138.827 169.424 138.536 169.066 138.536Z" fill="white"/>
<path d="M163.762 141.919H159.758C159.399 141.919 159.109 142.21 159.109 142.569C159.109 142.927 159.399 143.218 159.758 143.218H163.762C164.121 143.218 164.411 142.927 164.411 142.569C164.411 142.21 164.121 141.919 163.762 141.919Z" fill="white"/>
<path d="M87.2386 34.3204C86.9139 34.3204 86.6522 34.5833 86.6522 34.9067C86.6522 35.2301 86.9152 35.4931 87.2386 35.4931H91.7346V34.3191H87.2386V34.3204Z" fill="#323F8B"/>
<path d="M107.197 34.3206H91.7346V35.4946H107.197C107.521 35.4946 107.783 35.2316 107.783 34.9082C107.783 34.5848 107.52 34.3218 107.197 34.3218V34.3206Z" fill="white"/>
<path d="M107.197 35.7461H91.7345C91.596 35.7461 91.4828 35.6328 91.4828 35.4944V34.3204C91.4828 34.182 91.596 34.0687 91.7345 34.0687H107.197C107.659 34.0687 108.035 34.445 108.035 34.9068C108.035 35.3686 107.659 35.7448 107.197 35.7448V35.7461ZM91.9861 35.2427H107.197C107.382 35.2427 107.531 35.0917 107.531 34.908C107.531 34.7243 107.382 34.5733 107.197 34.5733H91.9861V35.244V35.2427Z" fill="#DBDBDD"/>
<path d="M87.2386 31.8656C86.9139 31.8656 86.6522 32.1286 86.6522 32.452C86.6522 32.7754 86.9152 33.0384 87.2386 33.0384H94.7734V31.8644H87.2386V31.8656Z" fill="#F9623B"/>
<path d="M107.197 31.8656H94.7721V33.0396H107.197C107.521 33.0396 107.783 32.7766 107.783 32.4532C107.783 32.1298 107.52 31.8669 107.197 31.8669V31.8656Z" fill="white"/>
<path d="M107.197 33.2912H94.7732C94.6348 33.2912 94.5215 33.178 94.5215 33.0396V31.8656C94.5215 31.7271 94.6348 31.6139 94.7732 31.6139H107.197C107.658 31.6139 108.035 31.9901 108.035 32.4519C108.035 32.9137 107.658 33.29 107.197 33.29V33.2912ZM95.0249 32.7879H107.197C107.382 32.7879 107.531 32.6382 107.531 32.4532C107.531 32.2682 107.382 32.1185 107.197 32.1185H95.0249V32.7892V32.7879Z" fill="#DBDBDD"/>
<path d="M87.2386 29.4117C86.9139 29.4117 86.6522 29.6746 86.6522 29.998C86.6522 30.3214 86.9152 30.5844 87.2386 30.5844H101.935V29.4104H87.2386V29.4117Z" fill="#323F8B"/>
<path d="M107.197 29.4119H101.934V30.5859H107.197C107.521 30.5859 107.783 30.3229 107.783 29.9995C107.783 29.6761 107.52 29.4131 107.197 29.4131V29.4119Z" fill="white"/>
<path d="M107.197 30.8374H101.935C101.796 30.8374 101.683 30.7241 101.683 30.5857V29.4117C101.683 29.2733 101.796 29.16 101.935 29.16H107.197C107.659 29.16 108.035 29.5363 108.035 29.9981C108.035 30.4599 107.659 30.8361 107.197 30.8361V30.8374ZM102.186 30.3341H107.197C107.382 30.3341 107.532 30.1843 107.532 29.9993C107.532 29.8144 107.382 29.6646 107.197 29.6646H102.186V30.3353V30.3341Z" fill="#DBDBDD"/>
<path d="M87.2386 26.958C86.9139 26.958 86.6522 27.221 86.6522 27.5444C86.6522 27.8678 86.9152 28.1308 87.2386 28.1308H103.725V26.9568H87.2386V26.958Z" fill="#323F8B"/>
<path d="M107.197 26.9579H103.725V28.1319H107.197C107.522 28.1319 107.783 27.8689 107.783 27.5455C107.783 27.2221 107.52 26.9591 107.197 26.9591V26.9579Z" fill="white"/>
<path d="M107.197 28.3836H103.725C103.587 28.3836 103.474 28.2704 103.474 28.132V26.958C103.474 26.8195 103.587 26.7063 103.725 26.7063H107.197C107.659 26.7063 108.035 27.0825 108.035 27.5443C108.035 28.0061 107.659 28.3824 107.197 28.3824V28.3836ZM103.977 27.8803H107.197C107.382 27.8803 107.532 27.7293 107.532 27.5456C107.532 27.3619 107.382 27.2109 107.197 27.2109H103.977V27.8816V27.8803Z" fill="#DBDBDD"/>
<path d="M153.439 71.0093C151.603 65.1266 154.885 58.8703 160.767 57.0344C161.666 56.7538 162.574 56.5927 163.473 56.5424L164.091 67.6861L175.117 69.4087C174.479 73.4731 171.608 77.0291 167.414 78.3378C161.531 80.1724 155.275 76.892 153.44 71.0093H153.439Z" fill="white"/>
<path d="M164.077 79.1633C162.246 79.1633 160.43 78.7204 158.763 77.8459C156.049 76.4227 154.052 74.0281 153.139 71.1025C151.256 65.0638 154.636 58.6187 160.674 56.7337C161.58 56.4506 162.516 56.2807 163.456 56.2279C163.541 56.2228 163.621 56.2518 163.684 56.3071C163.746 56.3625 163.784 56.4405 163.789 56.5236L164.391 67.4131L175.166 69.0967C175.249 69.1093 175.322 69.1546 175.371 69.2226C175.421 69.2905 175.441 69.3748 175.428 69.4566C174.745 73.8079 171.711 77.3262 167.508 78.6373C166.381 78.9884 165.226 79.1633 164.078 79.1633H164.077ZM163.177 56.8784C162.394 56.9451 161.617 57.0986 160.862 57.3339C155.154 59.1144 151.959 65.2073 153.741 70.9137C154.603 73.6783 156.492 75.942 159.056 77.2872C161.621 78.6323 164.556 78.8978 167.321 78.0359C171.193 76.8279 174.016 73.638 174.754 69.6693L164.043 67.9957C163.896 67.973 163.785 67.851 163.777 67.7025L163.177 56.8784Z" fill="#0C0A0A"/>
<path d="M165.907 66.1898L165.289 55.0461C170.274 54.7654 175.003 57.8823 176.557 62.8665C177.084 64.5552 177.189 66.2753 176.932 67.9124L165.905 66.1898H165.907Z" fill="white"/>
<path d="M176.933 68.2272C176.917 68.2272 176.901 68.2272 176.884 68.2234L165.858 66.5007C165.71 66.4781 165.6 66.356 165.592 66.2075L164.974 55.0638C164.964 54.8902 165.097 54.7417 165.271 54.7329C170.523 54.4397 175.289 57.7441 176.858 62.7736C177.388 64.4723 177.517 66.2176 177.243 67.9617C177.219 68.1164 177.084 68.2272 176.932 68.2272H176.933ZM166.206 65.9181L176.667 67.5514C176.864 66.0075 176.727 64.4635 176.258 62.9598C174.805 58.3065 170.463 55.2098 165.621 55.347L166.206 65.9181Z" fill="#0C0A0A"/>
<path d="M65.3964 51.0952C62.1751 51.0952 59.5628 53.7075 59.5628 56.9288V108.524H134.871V51.0952H65.3964Z" fill="white"/>
<path d="M134.872 109.027H59.5627C59.2846 109.027 59.0594 108.802 59.0594 108.524V56.9286C59.0594 53.4342 61.9019 50.5917 65.3963 50.5917H134.871C135.149 50.5917 135.374 50.8169 135.374 51.095V108.524C135.374 108.802 135.149 109.027 134.871 109.027H134.872ZM60.0673 108.02H134.369V51.5983H65.3963C62.4569 51.5983 60.066 53.9891 60.066 56.9286V108.02H60.0673Z" fill="#DBDBDD"/>
<path d="M185.581 56.9287C185.581 53.7074 182.969 51.0951 179.748 51.0951H134.871V108.524H185.581V56.9287Z" fill="white"/>
<path d="M185.581 109.027H134.871C134.593 109.027 134.368 108.802 134.368 108.524V51.0949C134.368 50.8168 134.593 50.5916 134.871 50.5916H179.748C183.242 50.5916 186.085 53.4341 186.085 56.9285V108.524C186.085 108.802 185.859 109.027 185.581 109.027ZM135.374 108.02H185.078V56.9285C185.078 53.989 182.687 51.5982 179.748 51.5982H135.374V108.02Z" fill="#DBDBDD"/>
<path d="M59.5626 108.524V111.073C59.5626 114.294 62.1749 116.907 65.3962 116.907H134.872V108.524H59.5626Z" fill="white"/>
<path d="M134.872 117.41H65.3961C61.9018 117.41 59.0592 114.567 59.0592 111.073V108.524C59.0592 108.246 59.2844 108.02 59.5625 108.02H134.871C135.149 108.02 135.374 108.246 135.374 108.524V116.907C135.374 117.185 135.149 117.41 134.871 117.41H134.872ZM60.0671 109.027V111.073C60.0671 114.012 62.4579 116.403 65.3974 116.403H134.369V109.027H60.0659H60.0671Z" fill="#DBDBDD"/>
<path d="M134.872 108.524V116.907H179.749C182.97 116.907 185.583 114.294 185.583 111.073V108.524H134.872Z" fill="white"/>
<path d="M179.748 117.41H134.871C134.593 117.41 134.368 117.185 134.368 116.907V108.524C134.368 108.246 134.593 108.02 134.871 108.02H185.581C185.859 108.02 186.085 108.246 186.085 108.524V111.073C186.085 114.567 183.242 117.41 179.748 117.41ZM135.374 116.403H179.748C182.687 116.403 185.078 114.012 185.078 111.073V109.027H135.374V116.403Z" fill="#DBDBDD"/>
<path d="M63.5656 106.132C63.3051 106.132 63.0836 105.93 63.0648 105.666C63.0446 105.389 63.2523 105.148 63.5291 105.126L76.7163 104.145L94.0975 82.4991C94.246 82.3141 94.504 82.2575 94.7166 82.3644L108.456 89.2877L119.336 82.4613L129.703 62.1218C129.829 61.8739 130.132 61.7758 130.38 61.9016C130.628 62.0274 130.726 62.3307 130.6 62.5786L120.17 83.0427C120.128 83.1232 120.066 83.1924 119.989 83.2402L108.751 90.2919C108.601 90.385 108.413 90.3938 108.256 90.3145L94.6273 83.4466L77.3643 104.945C77.2775 105.053 77.1479 105.121 77.0095 105.131L63.6046 106.129C63.592 106.129 63.5794 106.13 63.5668 106.13L63.5656 106.132Z" fill="#DBDBDD"/>
<path d="M63.5654 105.758C63.4371 105.758 63.3074 105.709 63.2093 105.611C63.013 105.415 63.013 105.096 63.2093 104.899L72.317 95.7908C72.4467 95.6612 72.6367 95.6122 72.8128 95.6625L90.0695 100.638L107.271 85.7394C107.423 85.6072 107.641 85.5783 107.822 85.6676L118.202 90.7513L129.509 71.6172C129.65 71.3781 129.96 71.2988 130.199 71.4398C130.438 71.5807 130.517 71.8902 130.376 72.1293L118.832 91.6648C118.699 91.8913 118.413 91.9769 118.178 91.8611L107.68 86.7196L90.5237 101.579C90.3954 101.691 90.218 101.729 90.0544 101.682L72.8216 96.7132L63.924 105.611C63.8259 105.709 63.6963 105.758 63.5679 105.758H63.5654Z" fill="#29346D"/>
<path d="M118.4 92.9517C119.252 92.9517 119.942 92.2611 119.942 91.409C119.942 90.557 119.252 89.8663 118.4 89.8663C117.548 89.8663 116.857 90.557 116.857 91.409C116.857 92.2611 117.548 92.9517 118.4 92.9517Z" fill="#F9623B"/>
<path d="M107.343 87.443C108.195 87.443 108.886 86.7523 108.886 85.9003C108.886 85.0482 108.195 84.3575 107.343 84.3575C106.491 84.3575 105.801 85.0482 105.801 85.9003C105.801 86.7523 106.491 87.443 107.343 87.443Z" fill="#F9623B"/>
<path d="M90.1563 102.742C91.0083 102.742 91.699 102.051 91.699 101.199C91.699 100.347 91.0083 99.6564 90.1563 99.6564C89.3043 99.6564 88.6136 100.347 88.6136 101.199C88.6136 102.051 89.3043 102.742 90.1563 102.742Z" fill="#F9623B"/>
<path d="M72.9678 97.2491C73.8198 97.2491 74.5105 96.5584 74.5105 95.7064C74.5105 94.8544 73.8198 94.1637 72.9678 94.1637C72.1158 94.1637 71.4251 94.8544 71.4251 95.7064C71.4251 96.5584 72.1158 97.2491 72.9678 97.2491Z" fill="#F9623B"/>
<path d="M119.464 84.3575C120.316 84.3575 121.006 83.6668 121.006 82.8148C121.006 81.9628 120.316 81.2721 119.464 81.2721C118.612 81.2721 117.921 81.9628 117.921 82.8148C117.921 83.6668 118.612 84.3575 119.464 84.3575Z" fill="#091558"/>
<path d="M108.372 91.409C109.224 91.409 109.914 90.7183 109.914 89.8663C109.914 89.0143 109.224 88.3236 108.372 88.3236C107.52 88.3236 106.829 89.0143 106.829 89.8663C106.829 90.7183 107.52 91.409 108.372 91.409Z" fill="#091558"/>
<path d="M94.49 84.3575C95.342 84.3575 96.0327 83.6668 96.0327 82.8148C96.0327 81.9628 95.342 81.2721 94.49 81.2721C93.638 81.2721 92.9473 81.9628 92.9473 82.8148C92.9473 83.6668 93.638 84.3575 94.49 84.3575Z" fill="#091558"/>
<path d="M77.3752 105.953C78.2272 105.953 78.9179 105.262 78.9179 104.41C78.9179 103.558 78.2272 102.867 77.3752 102.867C76.5232 102.867 75.8325 103.558 75.8325 104.41C75.8325 105.262 76.5232 105.953 77.3752 105.953Z" fill="#091558"/>
<path d="M127.444 55.4904H66.063C64.6835 55.4904 63.5652 56.6084 63.5652 57.9875C63.5652 59.3666 64.6835 60.4846 66.063 60.4846H127.444C128.824 60.4846 129.942 59.3666 129.942 57.9875C129.942 56.6084 128.824 55.4904 127.444 55.4904Z" fill="#091558"/>
<path d="M112.905 65.7732H68.0295C67.4604 65.7732 66.999 66.2346 66.999 66.8038C66.999 67.3729 67.4604 67.8343 68.0295 67.8343H112.905C113.474 67.8343 113.936 67.3729 113.936 66.8038C113.936 66.2346 113.474 65.7732 112.905 65.7732Z" fill="#DBDBDD"/>
<path d="M86.7144 70.843H68.0295C67.4604 70.843 66.999 71.3044 66.999 71.8736C66.999 72.4428 67.4604 72.9042 68.0295 72.9042H86.7144C87.2836 72.9042 87.7449 72.4428 87.7449 71.8736C87.7449 71.3044 87.2836 70.843 86.7144 70.843Z" fill="#F9623B"/>
<path d="M150.612 71.2472L145.718 66.8896C143.554 69.3195 141.99 72.2954 141.26 75.5859L147.656 77.0103C148.139 74.8297 149.176 72.8566 150.61 71.2472H150.612Z" fill="white"/>
<path d="M147.657 77.5153C147.62 77.5153 147.584 77.5115 147.547 77.5027L141.151 76.0783C140.881 76.0179 140.71 75.7499 140.769 75.4781C141.5 72.1775 143.082 69.0921 145.343 66.5553C145.528 66.3477 145.846 66.3301 146.054 66.5138L150.947 70.8714C151.047 70.9607 151.107 71.0853 151.115 71.2187C151.122 71.352 151.077 71.4829 150.988 71.5823C149.585 73.1565 148.603 75.0716 148.149 77.1202C148.12 77.2511 148.041 77.3643 147.927 77.436C147.846 77.4876 147.752 77.5153 147.657 77.5153ZM141.867 75.2075L147.284 76.413C147.774 74.5444 148.672 72.7916 149.908 71.2954L145.764 67.606C143.902 69.8119 142.564 72.4204 141.867 75.2075Z" fill="#DBDBDD"/>
<path d="M160.226 66.9339C163.373 66.9339 166.256 68.0639 168.493 69.9388L172.7 64.9156C169.325 62.0869 164.975 60.3818 160.226 60.3818C157.409 60.3818 154.731 60.9821 152.314 62.0617L154.983 68.0463C156.585 67.3316 158.359 66.9327 160.226 66.9327V66.9339Z" fill="#F9623B"/>
<path d="M173.04 78.5352C173.082 78.9543 173.103 79.3796 173.103 79.8087C173.103 86.9194 167.339 92.6838 160.228 92.6838C155.042 92.6838 150.573 89.6173 148.533 85.1993L142.581 87.9425C145.659 94.6091 152.404 99.2359 160.228 99.2359C170.958 99.2359 179.655 90.5384 179.655 79.8087C179.655 79.1606 179.624 78.5189 179.561 77.8872L173.041 78.5352H173.04Z" fill="white"/>
<path d="M160.226 99.7397C156.345 99.7397 152.583 98.6235 149.348 96.5108C146.196 94.4534 143.697 91.5631 142.122 88.1543C142.067 88.0335 142.061 87.8951 142.107 87.7692C142.154 87.6434 142.247 87.5427 142.369 87.4861L148.321 84.743C148.573 84.6272 148.872 84.7367 148.989 84.9896C151.006 89.3585 155.418 92.1822 160.227 92.1822C167.05 92.1822 172.599 86.6317 172.599 79.8103C172.599 79.4051 172.579 78.9937 172.539 78.586C172.511 78.3091 172.714 78.0638 172.99 78.0361L179.51 77.3881C179.643 77.3755 179.775 77.4145 179.878 77.5C179.982 77.5856 180.047 77.7077 180.06 77.8398C180.124 78.4929 180.157 79.156 180.157 79.8103C180.157 90.7993 171.216 99.7409 160.226 99.7409V99.7397ZM143.254 88.187C146.431 94.6107 153.037 98.733 160.226 98.733C170.66 98.733 179.15 90.2443 179.15 79.8091C179.15 79.3536 179.134 78.8943 179.101 78.4388L173.581 78.9874C173.597 79.2617 173.606 79.5373 173.606 79.8091C173.606 87.1866 167.604 93.1876 160.227 93.1876C155.194 93.1876 150.565 90.3287 148.295 85.8629L143.255 88.1857L143.254 88.187Z" fill="#DBDBDD"/>
<path d="M173.039 78.5357L179.559 77.8877C179.048 72.6896 176.49 68.0929 172.7 64.9156L168.493 69.9389C171.005 72.0441 172.701 75.0905 173.039 78.5357Z" fill="#091558"/>
<path d="M154.982 68.0476L152.314 62.063C149.783 63.193 147.537 64.8489 145.717 66.8912L150.611 71.2488C151.818 69.8948 153.305 68.7975 154.982 68.0488V68.0476Z" fill="#091558"/>
<path d="M147.351 79.8106C147.351 78.8492 147.457 77.913 147.657 77.0121L141.261 75.5876C140.96 76.9466 140.8 78.3597 140.8 79.8106C140.8 82.7148 141.438 85.4705 142.579 87.9444L148.531 85.2012C147.774 83.5616 147.351 81.7358 147.351 79.8106Z" fill="#091558"/>
<path d="M181.01 100.85H173.206C173.06 100.85 172.922 100.788 172.826 100.678L168.637 95.8637C168.454 95.6536 168.477 95.3365 168.686 95.154C168.896 94.9716 169.213 94.993 169.396 95.2031L173.434 99.8438H181.009C181.287 99.8438 181.512 100.069 181.512 100.347C181.512 100.625 181.287 100.85 181.009 100.85H181.01Z" fill="#29346D"/>
<path d="M180.69 97.9401H174.255C173.897 97.9401 173.607 98.2302 173.607 98.5881C173.607 98.946 173.897 99.2361 174.255 99.2361H180.69C181.048 99.2361 181.338 98.946 181.338 98.5881C181.338 98.2302 181.048 97.9401 180.69 97.9401Z" fill="#323F8B"/>
<path d="M183.831 26.4018V12.9403C183.831 9.6007 181.124 6.89404 177.785 6.89404H129.195C125.855 6.89404 123.148 9.6007 123.148 12.9403V26.4006C123.148 27.0599 123.254 27.6941 123.449 28.2881H183.529C183.724 27.6941 183.83 27.0599 183.83 26.4006L183.831 26.4018Z" fill="white"/>
<path d="M183.529 28.5412H123.449C123.341 28.5412 123.244 28.472 123.21 28.3675C123.002 27.7346 122.897 27.0727 122.897 26.4008V12.9405C122.897 9.46751 125.722 6.64258 129.195 6.64258H177.785C181.258 6.64258 184.083 9.46751 184.083 12.9405V26.4008C184.083 27.0715 183.977 27.7333 183.769 28.3675C183.735 28.4707 183.639 28.5412 183.53 28.5412H183.529ZM123.634 28.0379H183.344C183.5 27.5081 183.578 26.9582 183.578 26.402V12.9405C183.578 9.7456 180.978 7.14591 177.784 7.14591H129.193C125.999 7.14591 123.399 9.7456 123.399 12.9405V26.4008C123.399 26.9582 123.478 27.5068 123.633 28.0366L123.634 28.0379Z" fill="#DBDBDD"/>
<path d="M123.449 28.2893C124.242 30.704 126.514 32.4468 129.193 32.4468H177.783C180.464 32.4468 182.735 30.7028 183.528 28.2893H123.448H123.449Z" fill="white"/>
<path d="M177.785 32.9502H129.195C126.357 32.9502 123.857 31.1394 122.972 28.4454C122.922 28.2919 122.948 28.1245 123.043 27.9936C123.137 27.8628 123.289 27.786 123.45 27.786H183.53C183.691 27.786 183.844 27.864 183.938 27.9936C184.032 28.1232 184.059 28.2931 184.008 28.4454C183.124 31.1394 180.622 32.9502 177.786 32.9502H177.785ZM124.191 28.7927C125.101 30.7028 127.033 31.9435 129.193 31.9435H177.783C179.945 31.9435 181.875 30.7028 182.785 28.7927H124.19H124.191Z" fill="#DBDBDD"/>
<path d="M134.823 20.7983H128.661V27.0447H134.823V20.7983Z" fill="#323F8B"/>
<path d="M145.151 23.6975H138.989V27.0434H145.151V23.6975Z" fill="#F9623B"/>
<path d="M155.48 18.0099H149.318V27.0447H155.48V18.0099Z" fill="#323F8B"/>
<path d="M165.808 14.3281H159.646V27.0435H165.808V14.3281Z" fill="#F9623B"/>
<path d="M176.136 9.61694H169.974V27.0435H176.136V9.61694Z" fill="#323F8B"/>
<path d="M173.45 4.44533C173.07 4.20247 172.565 4.31321 172.322 4.69196L165.515 15.321L156.819 14.035C156.579 13.9998 156.338 14.0715 156.158 14.2313L147.62 21.8077L139.319 18.9236C139.061 18.8343 138.778 18.8783 138.56 19.0419L128.988 26.2458C128.628 26.5163 128.555 27.0285 128.827 27.3883C129.098 27.7482 129.61 27.8212 129.97 27.5494L139.193 20.6072L147.536 23.5052C147.814 23.6021 148.126 23.5404 148.345 23.3441L156.956 15.7036L165.798 17.0122C166.115 17.0588 166.432 16.9141 166.605 16.6448L173.696 5.57153C173.939 5.19152 173.829 4.68693 173.45 4.44407V4.44533Z" fill="#F9623B"/>
<path d="M175.483 7.69939L169.726 4.30695L175.998 0.246338L175.483 7.69939Z" fill="#F9623B"/>
<path d="M150.605 62.839H149.599V63.8456H150.605V62.839Z" fill="#323F8B"/>
<path d="M150.605 60.881H149.599V58.9218H150.605V60.881ZM150.605 56.9626H149.599V55.0034H150.605V56.9626ZM150.605 53.0441H149.599V51.0849H150.605V53.0441ZM150.605 49.1257H149.599V47.1665H150.605V49.1257ZM150.605 45.2073H149.599V43.2481H150.605V45.2073ZM150.605 41.2889H149.599V39.3297H150.605V41.2889ZM150.605 37.3705H149.599V35.4113H150.605V37.3705Z" fill="#323F8B"/>
<path d="M150.605 32.4469H149.598V33.4536H150.605V32.4469Z" fill="#323F8B"/>
<path d="M120.68 111.508H78.5423C77.898 111.508 77.3758 112.03 77.3758 112.674V112.675C77.3758 113.32 77.898 113.842 78.5423 113.842H120.68C121.324 113.842 121.846 113.32 121.846 112.675V112.674C121.846 112.03 121.324 111.508 120.68 111.508Z" fill="#DBDBDD"/>
<path d="M175.331 111.508H143.746C143.102 111.508 142.58 112.03 142.58 112.674V112.675C142.58 113.32 143.102 113.842 143.746 113.842H175.331C175.975 113.842 176.498 113.32 176.498 112.675V112.674C176.498 112.03 175.975 111.508 175.331 111.508Z" fill="#F9623B"/>
<path d="M9.1455 146.02C14.1964 146.02 18.291 141.926 18.291 136.875C18.291 131.824 14.1964 127.729 9.1455 127.729C4.09458 127.729 0 131.824 0 136.875C0 141.926 4.09458 146.02 9.1455 146.02Z" fill="#ECEDF2"/>
<path d="M61.8475 84.6406L61.8708 84.6807C61.8527 84.6665 61.8449 84.6548 61.8475 84.6406Z" fill="white"/>
<path d="M61.8702 84.9946C61.8023 84.9946 61.7356 84.9732 61.6789 84.9291C61.5657 84.8423 61.5141 84.7114 61.5393 84.5806C61.5644 84.4522 61.6664 84.3528 61.796 84.3314C61.9243 84.31 62.0539 84.3704 62.1194 84.4824L62.142 84.5214C62.2175 84.651 62.1911 84.8171 62.0791 84.9165C62.02 84.9694 61.9457 84.9946 61.8715 84.9946H61.8702ZM61.8929 84.6498L62.1559 84.7014C62.1798 84.5831 62.1231 84.4774 62.0615 84.4296L61.8929 84.6498Z" fill="#0C0A0A"/>
<path d="M134.987 132.802C133.764 142.243 130.932 150.118 125.177 152.378C108.12 159.07 99.916 152.809 91.4966 134.674L79.6243 114.639L61.8719 84.6813C62.6986 85.3432 86.5212 86.5436 101.159 109.846L115.678 132.732C115.678 132.732 118.354 90.5677 120.428 87.1778C132.302 87.1778 133.598 89.6957 133.598 89.6957C133.598 89.6957 137.388 114.269 134.987 132.803V132.802Z" fill="white"/>
<path d="M116.08 134.307L100.732 110.115C95.903 102.426 89.5359 96.3309 81.8048 91.9947C73.7402 87.4697 66.4281 86.1095 63.3049 85.5281C62.0843 85.3016 61.7572 85.235 61.5546 85.0726L62.1837 84.2874C62.1523 84.2623 62.1296 84.2522 62.1296 84.2522C62.2592 84.3101 62.8569 84.4208 63.4886 84.5391C66.6596 85.1293 74.0862 86.5109 82.2968 91.1176C90.1751 95.5368 96.6643 101.748 101.583 109.578L115.274 131.159C115.495 127.83 116.059 119.591 116.771 111.183C118.637 89.1345 119.66 87.4634 119.996 86.9148L120.143 86.6745H120.425C132.264 86.6745 133.896 89.1798 134.043 89.4654L134.081 89.5384L134.093 89.619C134.131 89.8656 137.866 114.476 135.485 132.868L134.487 132.738C136.763 115.159 133.402 91.8072 133.118 89.8958C132.806 89.5598 130.644 87.7189 120.737 87.6811C119.1 91.6033 116.904 121.35 116.18 132.763L116.082 134.308L116.08 134.307Z" fill="#CAE2F5"/>
<path d="M134.987 132.802C133.763 142.243 130.932 150.118 125.177 152.378C108.12 159.07 99.9158 152.809 91.4964 134.674L79.6241 114.639L83.2493 108.869C83.2493 108.869 92.907 116.255 98.8727 128.943C104.838 141.632 105.5 149.68 118.475 150.912C131.447 152.141 134.985 132.801 134.985 132.801H134.987V132.802Z" fill="#CAE2F5"/>
<path d="M56.9528 44.5896C56.9528 44.5896 65.0954 44.9646 65.0954 50.9555C65.0954 56.9463 54.523 57.5428 53.3905 53.6571C52.2568 49.7714 56.9528 44.5896 56.9528 44.5896Z" fill="#091558"/>
<path d="M97.5754 158.3L83.4885 161.814C83.4885 161.814 83.486 161.814 83.4847 161.815L40.2802 172.589C40.2802 172.589 30.0412 151.878 24.4781 131.716C20.7736 118.288 19.1428 105.105 23.9874 98.4418C31.9438 87.5045 49.028 81.0568 65.2768 85.3968L88.0411 109.845C98.9571 133.286 97.5742 158.302 97.5742 158.302L97.5754 158.3Z" fill="white"/>
<path d="M40.01 173.177L39.83 172.813C39.7268 172.605 29.5067 151.828 23.994 131.851C19.4452 115.364 19.3068 104.025 23.5825 98.1466C27.6067 92.615 33.9222 88.1995 41.3652 85.7143C49.2284 83.0882 57.5422 82.8114 65.408 84.9115L65.1488 85.8842C49.9142 81.8148 32.7759 87.2218 24.3967 98.7392C22.2147 101.739 21.2509 106.376 21.5315 112.52C21.7718 117.781 22.927 124.195 24.9654 131.584C30.0516 150.02 39.1707 169.147 40.5561 172.004L83.2258 161.363L83.2736 161.314H83.4259L97.0888 157.906C97.1416 156.435 97.2662 150.697 96.4005 142.899C95.4743 134.562 93.193 122.099 87.5872 110.059L88.4995 109.634C94.167 121.806 96.4697 134.393 97.4034 142.809C98.4151 151.93 98.0829 158.267 98.0791 158.33L98.059 158.701L40.01 173.178V173.177Z" fill="#CAE2F5"/>
<path d="M83.4844 161.815L40.2798 172.589C40.2798 172.589 30.0408 151.878 24.4778 131.716L36.9692 126.576C36.9692 126.576 42.8141 128.564 41.6778 139.074C40.5403 149.585 46.7438 160.143 47.9279 161.327C49.112 162.511 73.4933 163.531 83.4844 161.815Z" fill="#CAE2F5"/>
<path d="M56.5215 147.051C56.5215 147.051 66.5604 144.347 67.9634 136.041C68.5938 132.306 73.3603 135.178 70.7695 140.431C68.1786 145.685 72.1712 144.749 73.792 143.814C75.4127 142.879 77.0938 139.105 77.3908 136.401C77.6361 134.16 80.3151 136.982 79.2116 141.658C78.108 146.334 78.9737 154.321 62.9251 154.321C58.3196 150.795 56.5202 147.053 56.5202 147.053L56.5215 147.051Z" fill="#FFD4CC"/>
<path d="M64.0775 156.91C56.968 161.015 45.6343 169.307 34.9662 174.321C33.007 175.243 31.0704 176.052 29.1867 176.706C17.4164 180.789 7.70588 178.753 7.43786 159.321C7.41898 158.021 7.44289 156.643 7.5121 155.184C8.88871 125.994 16.2914 109.679 21.4757 101.687C24.4189 97.1484 26.6462 95.2949 26.6462 95.2949L39.0331 127.547C38.4379 138.058 30.3972 149.569 30.3972 149.569L55.6581 146.114C55.6581 146.114 64.0763 147.408 64.0763 156.909L64.0775 156.91Z" fill="white"/>
<path d="M20.5246 178.332C19.8539 178.332 19.1794 178.304 18.5062 178.242L18.5968 177.239C26.4223 177.945 34.6593 173.911 34.7424 173.87C41.7789 170.562 48.9765 165.908 55.326 161.802C58.346 159.849 61.2024 158.002 63.5706 156.622C63.5039 153.01 62.1713 150.24 59.6068 148.382C57.8263 147.093 56.0143 146.694 55.6469 146.624L30.4653 150.068L30.3294 149.071L55.662 145.605L55.7337 145.617C55.8243 145.63 57.9824 145.976 60.1605 147.541C62.1763 148.988 64.5797 151.789 64.5797 156.91V157.201L64.3281 157.345C61.9335 158.728 58.989 160.632 55.8721 162.648C49.4962 166.771 42.2684 171.445 35.179 174.777C34.8707 174.93 27.9235 178.332 20.5233 178.332H20.5246Z" fill="#CAE2F5"/>
<path d="M57.7067 88.5894C57.7067 88.5894 60.3656 88.9493 60.5455 88.0521C60.7254 87.1549 58.9613 83.8959 58.0641 83.6568C57.1669 83.4177 56.0004 83.4177 56.0004 83.4177C56.0004 83.4177 57.1644 88.5391 57.7067 88.5894Z" fill="#F9623B"/>
<path d="M55.6581 74.6537C54.961 77.5302 55.6204 81.738 57.1405 86.7915C57.4701 87.8875 57.8413 89.025 58.2478 90.1965C51.1231 91.9242 41.2516 86.2818 41.2516 86.2818C41.2516 86.2818 42.9189 77.6749 39.0332 67.5278C35.1475 57.3807 36.2271 44.8591 46.8058 42.6998C57.3846 40.5405 60.8387 48.5283 64.0776 63.6421C67.3153 78.7545 55.6581 74.6524 55.6581 74.6524V74.6537Z" fill="#FFD4CC"/>
<path d="M36.9693 70.9831C36.9693 70.9831 41.2464 77.1363 42.2178 69.3637C43.1892 61.591 42.857 60.7228 45.6996 59.0819C48.5421 57.4411 66.0203 55.4391 58.5722 44.4275C51.1242 33.4171 35.7412 42.16 34.3646 50.1755C32.988 58.191 36.9693 70.9819 36.9693 70.9819V70.9831Z" fill="#091558"/>
<path d="M33.2589 70.2269C36.2096 70.2269 38.6017 67.3756 38.6017 63.8585C38.6017 60.3413 36.2096 57.4901 33.2589 57.4901C30.3081 57.4901 27.916 60.3413 27.916 63.8585C27.916 67.3756 30.3081 70.2269 33.2589 70.2269Z" fill="#091558"/>
<path d="M57.1416 86.7925C54.7835 85.9192 52.6921 75.6186 53.1753 74.6547C53.6787 73.648 55.6593 74.6547 55.6593 74.6547C54.9622 77.5312 55.6215 81.739 57.1416 86.7925Z" fill="#F4BDB5"/>
<path d="M121.614 85.7722C121.614 85.7722 121.074 74.7619 123.557 74.1139C126.04 73.4658 126.471 77.3528 126.471 77.3528C126.471 77.3528 131.221 71.3078 136.402 70.6598C141.584 70.0117 152.702 71.3078 147.197 75.6251C141.692 79.9424 133.056 82.7497 132.085 86.6355C131.88 89.7624 132.115 89.5296 131.221 90.4142C131.221 90.4142 122.687 91.324 121.565 88.6865C120.899 87.1212 121.614 85.7722 121.614 85.7722Z" fill="#FFD4CC"/>
<path d="M29.1864 176.706C17.416 180.789 7.70552 178.753 7.4375 159.321C7.44631 158.536 7.47148 157.725 7.51174 156.887C8.88835 127.698 15.4102 111.084 20.5945 103.093C16.4874 115.604 9.30108 143.942 12.8923 161.611C15.3649 173.773 22.7186 176.692 29.1851 176.706H29.1864Z" fill="#CAE2F5"/>
<path d="M17.0529 114.609L16.084 114.339C16.1016 114.277 17.828 108.15 20.5322 102.864C23.2451 97.5602 26.8842 93.229 30.2653 91.2773L30.7686 92.1494C27.5486 94.0079 24.0567 98.1855 21.4281 103.323C18.7705 108.516 17.0693 114.55 17.0529 114.61V114.609Z" fill="#CAE2F5"/>
<path d="M63.4105 100.376C63.1979 100.376 62.999 100.24 62.9311 100.026C61.8338 96.5972 58.1155 91.7048 58.0777 91.6557C57.9091 91.4343 57.9519 91.1184 58.1721 90.9498C58.3936 90.7812 58.7094 90.824 58.878 91.0442C59.0353 91.2506 62.7398 96.1253 63.8899 99.7191C63.9742 99.9833 63.8283 100.268 63.564 100.352C63.5124 100.368 63.4609 100.376 63.4105 100.376Z" fill="#29346D"/>
<path d="M69.9435 115.716C69.7397 115.716 69.5484 115.592 69.4717 115.389C68.2096 112.024 65.6665 105.662 65.6401 105.599C65.5369 105.341 65.6627 105.048 65.9207 104.945C66.1786 104.842 66.4718 104.968 66.575 105.226C66.6002 105.29 69.1483 111.662 70.4141 115.037C70.5123 115.297 70.3802 115.587 70.1197 115.685C70.0618 115.706 70.0014 115.718 69.9435 115.718V115.716Z" fill="#29346D"/>
<path d="M39.2622 87.0216L41.0616 85.2222L54.8616 90.5197C54.8616 90.5197 54.4892 93.4264 51.9549 93.4264C49.4207 93.4264 39.8662 88.4724 39.2622 87.0216Z" fill="#F9623B"/>
<path d="M36.3036 139C36.1753 139 36.0457 138.95 35.9475 138.852C35.7512 138.656 35.7512 138.338 35.9475 138.14C36.5792 137.508 37.4852 133.934 37.908 131.828C37.9621 131.555 38.2276 131.379 38.5007 131.434C38.7737 131.489 38.9499 131.754 38.8945 132.027C38.702 132.986 37.6903 137.822 36.6597 138.852C36.5616 138.95 36.4332 139 36.3036 139Z" fill="#29346D"/>
<path d="M195.143 145.517L196.722 147.002L189.443 155.732L181.621 152.053L170.179 160.835L171.488 162.873L182.048 154.669L189.891 158.302L198.118 148.316L199.527 149.641L201.134 143.217L195.143 145.517Z" fill="#F9623B"/>
</svg>
