<svg width="37" height="36" viewBox="0 0 37 36" fill="none" xmlns="http://www.w3.org/2000/svg">
<g clip-path="url(#clip0_2186_55813)">
<path d="M33.6875 18C33.6875 18.7767 34.317 19.4062 35.0938 19.4062C35.8705 19.4062 36.5 18.7767 36.5 18C36.5 13.1921 34.6277 8.67178 31.2279 5.27206C27.8282 1.87234 23.3079 0 18.5 0C13.6921 0 9.17178 1.87234 5.77206 5.27206C2.37234 8.67178 0.5 13.1921 0.5 18C0.5 21.8644 1.73926 25.6039 4.01562 28.6867V34.5938C4.01562 35.3705 4.64514 36 5.42188 36H31.5781C32.3549 36 32.9844 35.3705 32.9844 34.5938V28.6883C33.9597 27.37 34.7469 25.9308 35.3313 24.3927C35.4231 24.1512 35.5104 23.9054 35.5909 23.6626C35.8348 22.9252 35.4349 22.1298 34.6974 21.8856C33.9602 21.6414 33.1646 22.0416 32.9207 22.7791C32.8531 22.9834 32.7795 23.1902 32.7023 23.3937C32.178 24.7731 31.4603 26.0587 30.5635 27.228C28.5528 26.6328 24.6128 25.3268 20.9409 23.299C22.9429 22.3731 24.3359 20.3467 24.3359 18C24.3359 15.3279 22.5301 13.071 20.0752 12.3819C23.2664 9.69983 26.7098 7.3765 28.2542 6.36877C31.5737 9.1571 33.6875 13.336 33.6875 18ZM30.1719 33.1875H6.82812V30.375H30.1719V33.1875ZM21.5234 18C21.5234 19.6672 20.1672 21.0234 18.5 21.0234C17.8177 21.0234 17.1877 20.796 16.6812 20.4134C16.5708 20.3189 16.4618 20.2239 16.3544 20.1278C15.8122 19.5809 15.4766 18.8289 15.4766 18C15.4766 16.3328 16.8328 14.9766 18.5 14.9766C20.1672 14.9766 21.5234 16.3328 21.5234 18ZM14.3068 13.9471C13.2908 14.998 12.6641 16.4268 12.6641 18C12.6641 19.5705 13.2889 20.9971 14.3013 22.0471C14.3398 22.0919 14.7311 22.4536 14.8649 22.5607C17.3385 24.6709 20.4212 26.3293 23.2444 27.5625H6.70096C4.51193 24.8637 3.3125 21.4926 3.3125 18C3.3125 9.62567 10.1257 2.8125 18.5 2.8125C21.1211 2.8125 23.5891 3.47992 25.7433 4.65381C22.9948 6.49265 17.7837 10.2036 14.3068 13.9471ZM14.3068 13.9471C14.2958 13.959 14.3172 13.9351 14.3068 13.9471V13.9471ZM16.1437 7.19247C16.4044 7.92389 16.0223 8.72836 15.2909 8.98901C14.7638 9.17661 14.2494 9.41309 13.7624 9.69159C13.5424 9.81738 13.3024 9.87698 13.0659 9.87698C12.5778 9.87698 12.1035 9.62265 11.8437 9.16837C11.4583 8.49408 11.6926 7.63522 12.3666 7.2496C12.9978 6.88898 13.6641 6.58273 14.3472 6.33939C15.0786 6.07874 15.8831 6.46078 16.1437 7.19247ZM10.4855 12.7818C9.47281 14.3333 8.9375 16.1378 8.9375 18C8.9375 18.7767 8.30798 19.4062 7.53125 19.4062C6.75452 19.4062 6.125 18.7767 6.125 18C6.125 15.5904 6.81824 13.2545 8.13 11.2445C8.55435 10.5941 9.42584 10.4112 10.0762 10.8355C10.7266 11.2599 10.9098 12.1314 10.4855 12.7818Z" fill="#1D2939"/>
</g>
<defs>
<clipPath id="clip0_2186_55813">
<rect width="36" height="36" fill="white" transform="translate(0.5)"/>
</clipPath>
</defs>
</svg>
