<svg width="16" height="16" viewBox="0 0 16 16" fill="none" xmlns="http://www.w3.org/2000/svg">
<path d="M10.9167 6.83333C8.66558 6.83333 6.83333 8.665 6.83333 10.9167C6.83333 13.1683 8.66558 15 10.9167 15C13.1677 15 15 13.1683 15 10.9167C15 8.665 13.1677 6.83333 10.9167 6.83333ZM10.9167 13.8333C9.30842 13.8333 8 12.5249 8 10.9167C8 9.30842 9.30842 8 10.9167 8C12.5249 8 13.8333 9.30842 13.8333 10.9167C13.8333 12.5249 12.5249 13.8333 10.9167 13.8333ZM11.5 10.6752L12.4958 11.6709L11.6709 12.4958L10.3333 11.1582V9.16667H11.5V10.6752ZM15 3.91667V7.62025C14.6681 7.20958 14.2726 6.85492 13.8333 6.55975V3.91667C13.8333 3.59525 13.572 3.33333 13.25 3.33333H2.75C2.42858 3.33333 2.16667 3.59525 2.16667 3.91667V5.66667H10.9167C9.66717 5.66667 8.5215 6.10475 7.62025 6.83333H2.16667V13.8333H6.55217C6.84733 14.2743 7.20842 14.6669 7.62025 15H1V3.91667C1 2.95183 1.78517 2.16667 2.75 2.16667H4.5V1H5.66667V2.16667H10.3333V1H11.5V2.16667H13.25C14.2148 2.16667 15 2.95183 15 3.91667Z" fill="#667085"/>
</svg>
