<svg width="24" height="24" viewBox="0 0 24 24" fill="none" xmlns="http://www.w3.org/2000/svg">
<path d="M12 24C18.6274 24 24 18.6274 24 12C24 5.37258 18.6274 0 12 0C5.37258 0 0 5.37258 0 12C0 18.6274 5.37258 24 12 24Z" fill="#627EEA"/>
<path d="M12.3738 3V9.6525L17.9965 12.165L12.3738 3Z" fill="white" fill-opacity="0.602"/>
<path d="M12.3735 3L6.75 12.165L12.3735 9.6525V3Z" fill="white"/>
<path d="M12.3738 16.4759V20.9961L18.0003 13.2119L12.3738 16.4759Z" fill="white" fill-opacity="0.602"/>
<path d="M12.3735 20.9961V16.4751L6.75 13.2119L12.3735 20.9961Z" fill="white"/>
<path d="M12 15.7757L17.6228 12.511L12 10V15.7757Z" fill="white" fill-opacity="0.2"/>
<path d="M6.75 12.165L12.3735 15.4297V9.65399L6.75 12.165Z" fill="white" fill-opacity="0.602"/>
</svg>
