<svg width="12" height="12" viewBox="0 0 12 12" fill="none" xmlns="http://www.w3.org/2000/svg">
<path d="M4.87837 4.83333C4.99593 4.49917 5.22795 4.21739 5.53335 4.0379C5.83875 3.85841 6.19782 3.7928 6.54696 3.85269C6.8961 3.91257 7.21278 4.09409 7.44091 4.3651C7.66904 4.6361 7.7939 4.97909 7.79337 5.33333C7.79337 6.33333 6.29337 6.83333 6.29337 6.83333M6.33337 8.83333H6.33837M11.3334 6.33333C11.3334 9.09476 9.0948 11.3333 6.33337 11.3333C3.57195 11.3333 1.33337 9.09476 1.33337 6.33333C1.33337 3.57191 3.57195 1.33333 6.33337 1.33333C9.0948 1.33333 11.3334 3.57191 11.3334 6.33333Z" stroke="#98A2B3" stroke-width="1.33333" stroke-linecap="round" stroke-linejoin="round"/>
</svg>
