<svg width="24" height="24" viewBox="0 0 24 24" fill="none" xmlns="http://www.w3.org/2000/svg">
    <path d="M22.1 20.877a.912.912 0 0 0-.812-.906v-.012H5.253a1.53 1.53 0 0 1-1.53-1.523V4.123a.912.912 0 0 0-1.823 0v14.313a3.353 3.353 0 0 0 3.353 3.353h15.935a.912.912 0 0 0 .912-.912z" fill="#fff" stroke="#fff" stroke-width=".2"/>
    <path d="M15.101 11.266a.913.913 0 0 1 1.464 1.094L14.2 15.71l-.001.002-.005.008-.002.001a.912.912 0 0 1-1.274.177l-2.585-1.944-1.828 2.62-.002.003a.913.913 0 0 1-.707.367l-.102.003v-.029a.909.909 0 0 1-.435-.178m7.841-5.474-7.78 5.394m7.78-5.394-.002.003-1.828 2.62m1.83-2.623-1.75 2.684-.08-.06m-6.01 2.85.06-.08m-.06.08.06-.08m-.06.08a.912.912 0 0 1-.177-1.276m.237 1.196a.812.812 0 0 1-.156-1.137m-.08-.059-.002.002.082.057m-.08-.059 2.32-3.333.005-.007.002-.002m-2.328 3.342.002-.002.08.06m0 0 2.246-3.4m0 0-.002.003-.005.006-.004.008a.088.088 0 0 1 .01-.014v-.003l.005-.004s0-.001 0 0l-.004.004zm0 0a.912.912 0 0 1 1.274-.178l2.585 1.945m-3.859-1.767.075.066a.812.812 0 0 1 1.139-.164l2.588 1.947.057-.082m-5.477 2.936z" fill="#fff" stroke="#fff" stroke-width=".2"/>
</svg>
