<svg width="24" height="24" viewBox="0 0 24 24" fill="none" xmlns="http://www.w3.org/2000/svg">
    <g clip-path="url(#nk25n7hrza)">
        <g clip-path="url(#hlzgro0ueb)" fill="#fff">
            <path d="M12 22.5c5.79 0 10.5-4.71 10.5-10.5S17.79 1.5 12 1.5 1.5 6.21 1.5 12 6.21 22.5 12 22.5zM12 3c4.965 0 9 4.035 9 9s-4.035 9-9 9-9-4.035-9-9 4.035-9 9-9z"/>
            <path d="M7.5 11.25h9a.75.75 0 1 0 0-1.5H8.9l.723-1.084a.75.75 0 0 0-1.248-.832l-1.5 2.25A.75.75 0 0 0 7.5 11.25zM7.5 14.25h7.599l-.723 1.084a.75.75 0 1 0 1.248.832l1.5-2.25a.751.751 0 0 0-.624-1.166h-9a.75.75 0 0 0 0 1.5z"/>
            <path d="M12 22.5c5.79 0 10.5-4.71 10.5-10.5S17.79 1.5 12 1.5 1.5 6.21 1.5 12 6.21 22.5 12 22.5zM12 3c4.965 0 9 4.035 9 9s-4.035 9-9 9-9-4.035-9-9 4.035-9 9-9z" stroke="#ffffff" stroke-width=".5"/>
            <path d="M7.5 11.25h9a.75.75 0 1 0 0-1.5H8.9l.723-1.084a.75.75 0 0 0-1.248-.832l-1.5 2.25A.75.75 0 0 0 7.5 11.25zM7.5 14.25h7.599l-.723 1.084a.75.75 0 1 0 1.248.832l1.5-2.25a.751.751 0 0 0-.624-1.166h-9a.75.75 0 0 0 0 1.5z" stroke="#ffffff" stroke-width=".5"/>
        </g>
    </g>
    <defs>
        <clipPath id="nk25n7hrza">
            <path fill="#fff" d="M0 0h24v24H0z"/>
        </clipPath>
        <clipPath id="hlzgro0ueb">
            <path fill="#fff" d="M0 0h24v24H0z"/>
        </clipPath>
    </defs>
</svg>
