<svg width="20" height="20" viewBox="0 0 20 20" fill="none" xmlns="http://www.w3.org/2000/svg">
<g clip-path="url(#clip0_37_1936)">
<path d="M17.5 5.00002H4.16667C3.45083 5.00002 2.77333 4.69002 2.30417 4.16752C2.7625 3.65585 3.42833 3.33335 4.16667 3.33335H19.1667C20.2567 3.32835 20.2558 1.67085 19.1667 1.66669H4.16667C1.86583 1.66669 0 3.53252 0 5.83335V14.1667C0 16.4675 1.86583 18.3334 4.16667 18.3334H17.5C18.8808 18.3334 20 17.2142 20 15.8334V7.50002C20 6.11919 18.8808 5.00002 17.5 5.00002ZM16.6667 12.5C15.5767 12.495 15.5767 10.8384 16.6667 10.8334C17.7567 10.8384 17.7567 12.495 16.6667 12.5Z" fill="#F9FAFB"/>
</g>
<defs>
<clipPath id="clip0_37_1936">
<rect width="20" height="20" fill="white"/>
</clipPath>
</defs>
</svg>
