<svg width="24" height="24" viewBox="0 0 24 24" fill="none" xmlns="http://www.w3.org/2000/svg">
<path d="M19.3933 4.10376H4.57495V17.5808H19.3933V4.10376Z" fill="white"/>
<path fill-rule="evenodd" clip-rule="evenodd" d="M23.984 11.992C23.984 18.6151 18.6151 23.984 11.992 23.984C5.36901 23.984 0 18.6151 0 11.992C0 5.36901 5.36901 0 11.992 0C18.6151 0 23.984 5.36901 23.984 11.992ZM8.59382 16.7642H6.26651C5.77747 16.7642 5.5359 16.7642 5.38861 16.67C5.22953 16.5669 5.13231 16.396 5.12053 16.2074C5.11168 16.0337 5.23248 15.8215 5.47404 15.3973L11.2205 5.26842C11.465 4.83831 11.5887 4.62325 11.7448 4.54371C11.9128 4.45828 12.1131 4.45828 12.281 4.54371C12.4372 4.62325 12.5609 4.83831 12.8054 5.26842L13.9867 7.3306L13.9928 7.34113C14.2569 7.80256 14.3908 8.03655 14.4493 8.28214C14.5141 8.55023 14.5141 8.83304 14.4493 9.10113C14.3903 9.34858 14.2578 9.58427 13.9897 10.0527L10.9712 15.3885L10.9634 15.4021C10.6976 15.8674 10.5629 16.1032 10.3761 16.281C10.1729 16.4755 9.92835 16.6168 9.66026 16.6965C9.41574 16.7642 9.14178 16.7642 8.59382 16.7642ZM14.4711 16.7642H17.8058C18.2978 16.7642 18.5453 16.7642 18.6927 16.6671C18.8517 16.564 18.9519 16.3901 18.9608 16.2017C18.9693 16.0335 18.8511 15.8296 18.6196 15.4301C18.6116 15.4164 18.6036 15.4026 18.5954 15.3885L16.925 12.5309L16.906 12.4988C16.6713 12.1018 16.5528 11.9014 16.4006 11.8239C16.2328 11.7385 16.0353 11.7385 15.8674 11.8239C15.7143 11.9034 15.5905 12.1126 15.346 12.5339L13.6815 15.3915L13.6758 15.4013C13.4322 15.8219 13.3104 16.0321 13.3192 16.2046C13.331 16.3931 13.4282 16.5669 13.5873 16.67C13.7316 16.7642 13.9791 16.7642 14.4711 16.7642Z" fill="#E84142"/>
</svg>
