<svg width="24" height="24" viewBox="0 0 24 24" fill="none" xmlns="http://www.w3.org/2000/svg">
<rect width="24" height="24" rx="12" fill="#8247E5"/>
<g clip-path="url(#clip0_2298_28476)">
<path d="M16.0833 9.9582C15.7917 9.80297 15.4167 9.80297 15.0833 9.9582L12.75 11.2388L11.1667 12.0537L8.875 13.3343C8.58333 13.4895 8.20833 13.4895 7.875 13.3343L6.08333 12.3254C5.79167 12.1701 5.58333 11.8597 5.58333 11.5104V9.57014C5.58333 9.25969 5.75 8.94924 6.08333 8.75521L7.875 7.78506C8.16667 7.62984 8.54167 7.62984 8.875 7.78506L10.6667 8.79402C10.9583 8.94924 11.1667 9.25969 11.1667 9.60894V10.8895L12.75 10.0358V8.71641C12.75 8.40596 12.5833 8.09551 12.25 7.90148L8.91667 6.0776C8.625 5.92238 8.25 5.92238 7.91667 6.0776L4.5 7.94029C4.16667 8.09551 4 8.40596 4 8.71641V12.3642C4 12.6746 4.16667 12.9851 4.5 13.1791L7.875 15.003C8.16667 15.1582 8.54167 15.1582 8.875 15.003L11.1667 13.7612L12.75 12.9075L15.0417 11.6657C15.3333 11.5104 15.7083 11.5104 16.0417 11.6657L17.8333 12.6358C18.125 12.791 18.3333 13.1015 18.3333 13.4507V15.391C18.3333 15.7015 18.1667 16.0119 17.8333 16.206L16.0833 17.1761C15.7917 17.3313 15.4167 17.3313 15.0833 17.1761L13.2917 16.206C13 16.0507 12.7917 15.7403 12.7917 15.391V14.1492L11.2083 15.003V16.2836C11.2083 16.594 11.375 16.9045 11.7083 17.0985L15.0833 18.9224C15.375 19.0776 15.75 19.0776 16.0833 18.9224L19.4583 17.0985C19.75 16.9433 19.9583 16.6328 19.9583 16.2836V12.597C19.9583 12.2866 19.7917 11.9761 19.4583 11.7821L16.0833 9.9582Z" fill="white"/>
</g>
<defs>
<clipPath id="clip0_2298_28476">
<rect width="16" height="13" fill="white" transform="translate(4 6)"/>
</clipPath>
</defs>
</svg>
