<svg width="48" height="48" viewBox="0 0 48 48" fill="none" xmlns="http://www.w3.org/2000/svg">
<path fill-rule="evenodd" clip-rule="evenodd" d="M24 48C37.2548 48 48 37.2548 48 24C48 10.7452 37.2548 0 24 0C10.7452 0 0 10.7452 0 24C0 37.2548 10.7452 48 24 48ZM22.0622 23.7504L25.046 18.5148C25.3683 17.9499 24.9585 17.2457 24.31 17.2417H22.4998C22.1975 17.2417 21.919 17.0826 21.7678 16.82L20.5265 14.6756C20.2003 14.1107 20.6101 13.4025 21.2625 13.4025L30.9102 13.4224C31.5626 13.4264 31.9684 14.1266 31.6462 14.6915L24.7755 26.7342C24.4492 27.3031 23.6297 27.3031 23.3035 26.7381L22.0622 24.5938C21.915 24.3352 21.911 24.0129 22.0622 23.7504ZM36.8301 13.4386C36.5238 13.4386 36.2413 13.6018 36.0902 13.8683L24.8034 33.6609C24.4812 34.2298 23.6616 34.2337 23.3314 33.6648L15.498 20.1343H15.112L13.3377 23.2414C13.1865 23.504 13.1905 23.8262 13.3377 24.0888L23.3473 41.371C23.6736 41.9359 24.4931 41.9359 24.8193 41.367L40.0248 14.7157C40.347 14.1508 39.9412 13.4506 39.2888 13.4466L36.8301 13.4386ZM8.79442 13.4025H10.3858H11.9652C12.6018 13.4025 12.9956 14.0908 12.6773 14.6398L11.8856 15.9965V16.0124L11.0939 17.369C10.7757 17.9141 9.98794 17.9141 9.66967 17.369L8.87399 16.0124V16.0004L8.08229 14.6398C7.76402 14.0908 8.16186 13.4025 8.79442 13.4025Z" fill="#1B369A"/>
</svg>
